<?xml version="1.0" standalone="no"?>
<!DOCTYPE svg PUBLIC "-//W3C//DTD SVG 1.1//EN" "http://www.w3.org/Graphics/SVG/1.1/DTD/svg11.dtd" >
<svg>
<metadata>
Created by FontForge 20090914 at Mon Nov 23 04:12:36 2015
 By www-data
&#194;&#169; 2009, 2010, 2011, 2012 GrandChaos9000. Some Rights Reserved.
</metadata>
<defs>
<font id="DimboRegular" horiz-adv-x="747" >
  <font-face 
    font-family="Dimbo"
    font-weight="400"
    font-stretch="normal"
    units-per-em="2048"
    panose-1="2 11 6 3 1 1 1 1 1 1"
    ascent="1638"
    descent="-410"
    x-height="1077"
    cap-height="1506"
    bbox="-187 -418 2412 2009"
    underline-thickness="150"
    underline-position="-142"
    unicode-range="U+0020-U+E037"
  />
<missing-glyph horiz-adv-x="780" 
d="M740 1500v-1500h-700v1500h700zM240 1300v-1100h300v1100h-300z" />
    <glyph glyph-name=".notdef" horiz-adv-x="780" 
d="M740 1500v-1500h-700v1500h700zM240 1300v-1100h300v1100h-300z" />
    <glyph glyph-name="space" unicode=" " horiz-adv-x="373" 
 />
    <glyph glyph-name="exclam" unicode="!" horiz-adv-x="335" 
d="M173 45c-40 0 -74.333 14.333 -103 43s-43 63 -43 103c0 40.667 14.333 75.334 43 104.001s63 43 103 43c40.667 0 75.334 -14.333 104.001 -43s43 -63.334 43 -104.001c0 -40 -14.333 -74.333 -43 -103s-63.334 -43 -104.001 -43zM296 1453
c-9.33301 -339.333 -15.667 -674.667 -19 -1006l-222 -5l-23 1011h264z" />
    <glyph glyph-name="quotedbl" unicode="&#x22;" horiz-adv-x="713" 
d="M40 1221c74 21.333 116.999 62.334 128.999 123.001c-51.333 17.333 -85 38 -101 62s-24 51 -24 81s6.33301 56.5 19 79.5s30.834 40.5 54.501 52.5s47.167 18.333 70.5 19h2c22 0 43.333 -4 64 -12c20.667 -8.66699 37.5 -21.667 50.5 -39s22.167 -35.833 27.5 -55.5
s8.33301 -43.167 9 -70.5v-4c0 -26.667 -3.66699 -56 -11 -88c-7.33301 -34 -20 -66.333 -38 -97s-44.167 -59.834 -78.5 -87.501s-85.5 -44.167 -153.5 -49.5zM379.999 1171c74 21.333 116.999 62.334 128.999 123.001c-51.333 17.333 -85 38 -101 62s-24 51 -24 81
s6.33301 56.5 19 79.5s30.834 40.5 54.501 52.5s47.167 18.333 70.5 19h2c22 0 43.333 -4 64 -12c20.667 -8.66699 37.5 -21.667 50.5 -39s22.167 -35.833 27.5 -55.5s8.33301 -43.167 9 -70.5v-4c0 -26.667 -3.66699 -56 -11 -88c-7.33301 -34 -20 -66.333 -38 -97
s-44.167 -59.834 -78.5 -87.501s-85.5 -44.167 -153.5 -49.5z" />
    <glyph glyph-name="numbersign" unicode="#" horiz-adv-x="1309" 
d="M444 1476h209l-55 -304h263l55 304h209l-55 -304h199l-38 -209h-199l-74 -420h199l-38 -209h-199l-54 -304h-210l55 304h-262l-55 -304h-209l54 304h-199l38 209h199l75 420h-199l38 209h199zM561 963l-75 -420h262l76 420h-263z" />
    <glyph glyph-name="dollar" unicode="$" horiz-adv-x="909" 
d="M349 594c-4 -41.333 -6 -78.6699 -6 -112.003c0 -151.333 37.667 -227 113 -227h4c91.333 2.66699 137 51.334 137 146.001v9c-3.33301 100.667 -89.666 199.334 -258.999 296.001c-164.667 93.333 -247 247.666 -247 462.999v18c4.66699 196.667 101.667 309 291 337
v176h150v-173c187.333 -22 281 -163 281 -423c0 -23.333 -0.666992 -47.333 -2 -72l-261 -15c2.66699 30 4 57.667 4 83c0 119.333 -29 179 -87 179c-70 0 -108.333 -35.667 -115 -107c-0.666992 -10 -1 -20 -1 -30c0 -59.333 17.667 -114.666 53 -165.999
c40.667 -59.333 110.5 -113.666 209.5 -162.999s168.167 -117 207.5 -203c28 -62 42 -128 42 -198c0 -26.667 -2 -54 -6 -82c-15.333 -100.667 -58 -184.334 -128 -251.001c-52.667 -49.333 -118.334 -82 -197.001 -98v-181h-150v172
c-89.333 8.66699 -165.333 47.334 -228 116.001c-69.333 75.333 -104 212.333 -104 411c0 24 0.666992 49 2 75z" />
    <glyph glyph-name="percent" unicode="%" horiz-adv-x="1700" 
d="M1170 1560l-440 -1540l-170 30l440 1540zM412 1560c226.667 0 340 -132.666 340 -397.999c0 -10.667 -0.333008 -21.334 -1 -32.001c-9.33301 -287.333 -130 -432.333 -362 -435c-2.66699 -0.666992 -5.33398 -1 -8.00098 -1c-220.667 0 -331 135.667 -331 407v24
c6.66699 290 127.334 435 362.001 435zM379 1329c-42 -11.333 -70.668 -51.666 -86.001 -120.999c-9.33301 -41.333 -14 -82.666 -14 -123.999c0 -28.667 2 -57.334 6 -86.001c10.667 -70.667 45 -107.334 103 -110.001h8c53.333 0 90 26.333 110 79c16.667 44 25 96 25 156
c0 14.667 -0.333008 29.667 -1 45c-5.33301 79.333 -21.333 129 -48 149c-16.667 12 -36.667 18 -60 18c-13.333 0 -27.666 -2 -42.999 -6zM1322 906.001c226.667 0 340 -132.666 340 -397.999c0 -10.667 -0.333008 -21.334 -1 -32.001
c-9.33301 -287.333 -130 -432.333 -362 -435c-2.66699 -0.666992 -5.33398 -1 -8.00098 -1c-220.667 0 -331 135.667 -331 407v24c6.66699 290 127.334 435 362.001 435zM1289 675.002c-42 -11.333 -70.668 -51.666 -86.001 -120.999
c-9.33301 -41.333 -14 -82.666 -14 -123.999c0 -28.667 2 -57.334 6 -86.001c10.667 -70.667 45 -107.334 103 -110.001h8c53.333 0 90 26.333 110 79c16.667 44 25 96 25 156c0 14.667 -0.333008 29.667 -1 45c-5.33301 79.333 -21.333 129 -48 149
c-16.667 12 -36.667 18 -60 18c-13.333 0 -27.666 -2 -42.999 -6z" />
    <glyph glyph-name="ampersand" unicode="&#x26;" horiz-adv-x="936" 
d="M239 785c-74.667 24.667 -128.33 61.333 -160.997 110c-29.333 43.333 -44 112.333 -44 207v30c3.33301 109.333 27.166 195.333 71.499 258s103.5 103 177.5 121c38 9.33301 78 14 120 14c41.333 0 84.666 -4.33301 129.999 -13
c92.667 -17.333 159.667 -62.666 201 -135.999c31.333 -57.333 47 -139 47 -245c0 -30.667 -1.33301 -63.667 -4 -99l-252 -11c0.666992 18 1 35 1 51c0 135.333 -35 205.333 -105 210h-13c-70.667 0 -109 -42.667 -115 -128c-1.33301 -14.667 -2 -29 -2 -43
c0 -71.333 15 -129.333 45 -174c30.667 -48 87.667 -72 171 -72c10 0 20.667 0.333008 32 1l-12 -190c-95.333 0 -163.333 -26 -204 -78c-30.667 -38.667 -46 -84.334 -46 -137.001c0 -18.667 2 -38.334 6 -59.001c14 -73.333 61.667 -110 143 -110
c5.33301 0 11 0.333008 17 1c68 4 102 65 102 183c0 42 -4.33301 91 -13 147l364 16l5 -204l-110 -7v-4c0 -132.667 -34.667 -229 -104 -289c-68 -58.667 -158.333 -88 -271 -88h-15c-120.667 2.66699 -209.834 34.334 -267.501 95.001s-91.5 132.667 -101.5 216
c-4.66699 38 -7 73.333 -7 106c0 40 3.33301 76.667 10 110c12 60 33.5 107.833 64.5 143.5s77.5 58.167 139.5 67.5z" />
    <glyph glyph-name="quotesingle" unicode="'" horiz-adv-x="381" 
d="M40 1221c74 21.333 116.999 62.334 128.999 123.001c-51.333 17.333 -85 38 -101 62s-24 51 -24 81s6.33301 56.5 19 79.5s30.834 40.5 54.501 52.5s47.167 18.333 70.5 19h2c22 0 43.333 -4 64 -12c20.667 -8.66699 37.5 -21.667 50.5 -39s22.167 -35.833 27.5 -55.5
s8.33301 -43.167 9 -70.5v-4c0 -26.667 -3.66699 -56 -11 -88c-7.33301 -34 -20 -66.333 -38 -97s-44.167 -59.834 -78.5 -87.501s-85.5 -44.167 -153.5 -49.5z" />
    <glyph glyph-name="parenleft" unicode="(" horiz-adv-x="553" 
d="M300 -200c-165.333 266.667 -249.667 600 -253 1000c0 333.333 84.333 633.333 253 900h200c-133.333 -266.667 -200 -566.667 -200 -900c0 -400 66.667 -733.333 200 -1000h-200z" />
    <glyph glyph-name="parenright" unicode=")" horiz-adv-x="553" 
d="M47 -200c133.333 266.667 199.999 600 199.999 1000c0 333.333 -66.667 633.333 -200 900h200c168.667 -266.667 253 -566.667 253 -900c-3.33301 -400 -87.666 -733.333 -252.999 -1000h-200z" />
    <glyph glyph-name="asterisk" unicode="*" horiz-adv-x="640" 
d="M239 1596h168l-16 -177l180 68l29 -152l-164 -49l110 -147l-133 -78l-93 168l-94 -174l-139 78l123 160l-170 35l51 162l157 -67z" />
    <glyph glyph-name="plus" unicode="+" horiz-adv-x="920" 
d="M40 630v250h290v290h250v-290h300v-250h-300v-300h-250v300h-290z" />
    <glyph glyph-name="comma" unicode="," horiz-adv-x="381" 
d="M40 -79c74 21.333 116.999 62.334 128.999 123.001c-51.333 17.333 -85 38 -101 62s-24 51 -24 81s6.33301 56.5 19 79.5s30.834 40.5 54.501 52.5s47.167 18.333 70.5 19h2c22 0 43.333 -4 64 -12c20.667 -8.66699 37.5 -21.667 50.5 -39s22.167 -35.833 27.5 -55.5
s8.33301 -43.167 9 -70.5v-4c0 -26.667 -3.66699 -56 -11 -88c-7.33301 -34 -20 -66.333 -38 -97s-44.167 -59.834 -78.5 -87.501s-85.5 -44.167 -153.5 -49.5z" />
    <glyph glyph-name="hyphen" unicode="-" horiz-adv-x="580" 
d="M540 870v-250h-500v250h500z" />
    <glyph glyph-name="period" unicode="." horiz-adv-x="373" 
d="M186 45c-40 0 -74.333 14.333 -103 43s-43 63 -43 103c0 40.667 14.333 75.334 43 104.001s63 43 103 43c40.667 0 75.334 -14.333 104.001 -43s43 -63.334 43 -104.001c0 -40 -14.333 -74.333 -43 -103s-63.334 -43 -104.001 -43z" />
    <glyph glyph-name="slash" unicode="/" horiz-adv-x="600" 
d="M600 1600l-440 -1750l-170 50l430 1750z" />
    <glyph glyph-name="zero" unicode="0" horiz-adv-x="896" 
d="M477 1544c263.333 0 395 -240 395 -720c0 -480.667 -141 -721 -423 -721s-423 249 -423 747c0 462.667 150.333 694 451 694zM297 817c-0.666992 -18 -1 -35.333 -1 -52c0 -263.333 54.333 -395 163 -395c114.667 0 172 149 172 447s-53.667 447 -161 447
s-165 -149 -173 -447z" />
    <glyph glyph-name="one" unicode="1" horiz-adv-x="603" 
d="M561 1516c-4.66699 -314.667 -6.99902 -627.667 -6.99902 -939c0 -156 0.666992 -311.667 2 -467l-248 -13c-4.66699 400.667 -10.334 771.667 -17.001 1113c-56 -11.333 -132 -39.333 -228 -84l-48 219l278 176z" />
    <glyph glyph-name="two" unicode="2" horiz-adv-x="855" 
d="M72 1052c-3.33301 40 -5 76.998 -5 110.998c0 119.333 21.667 205.333 65 258c55.333 67.333 126 107.666 212 120.999c30.667 4.66699 60.667 7 90 7c52.667 0 103.334 -7.33301 152.001 -22c76 -23.333 133.333 -69.333 172 -138
c31.333 -57.333 47 -130.666 47 -219.999c0 -17.333 -0.333008 -35.666 -1 -54.999c-8 -114.667 -42.5 -220.167 -103.5 -316.5s-166.5 -234.166 -316.5 -413.499l437 -3l-3 -251c-191.333 -8.66699 -438 -13 -740 -13l-23 273c181.333 196 310.666 346.667 387.999 452
c70.667 96.667 106 191.667 106 285v25c-7.33301 100 -49.333 150 -126 150h-4c-66.667 -2 -100 -62.667 -100 -182c0 -22.667 1 -47 3 -73z" />
    <glyph glyph-name="three" unicode="3" horiz-adv-x="824" 
d="M39 1062c-2.66699 35.333 -3.99805 68.334 -3.99805 99.001c0 106 16 187.667 48 245c40.667 73.333 107.334 118.666 200.001 135.999c45.333 8.66699 88.666 13 129.999 13c42 0 82 -4.66699 120 -14c74 -18 133.167 -58.333 177.5 -121s68.166 -148.667 71.499 -258
v-30c0 -94.667 -14.667 -163.667 -44 -207c-32.667 -48.667 -86.334 -85.334 -161.001 -110.001c62 -9.33301 108.5 -31.833 139.5 -67.5s52.5 -83.5 64.5 -143.5c6.66699 -33.333 10 -70 10 -110c0 -32.667 -2.33301 -68 -7 -106c-10 -83.333 -43.833 -155.333 -101.5 -216
s-146.5 -92.334 -266.5 -95.001h-16c-112.667 0 -202.667 29.333 -270 88c-70 60 -105 189 -105 387v6l259 15c-0.666992 -11.333 -1 -22.333 -1 -33c0 -140 36.667 -212.333 110 -217c5.33301 -0.666992 10.333 -1 15 -1c69.333 0 111 36.667 125 110
c4 20.667 6 40.334 6 59.001c0 52.667 -15 98.334 -45 137.001c-41.333 52 -109.666 78 -204.999 78l-12 190c11.333 -0.666992 22 -1 32 -1c83.333 0 140.666 24 171.999 72c29.333 44.667 44 102.667 44 174c0 14 -0.666992 28.333 -2 43c-6 85.333 -44.333 128 -115 128
h-13c-70 -4.66699 -105 -74.667 -105 -210c0 -16 0.333008 -33 1 -51z" />
    <glyph glyph-name="four" unicode="4" horiz-adv-x="921" 
d="M39 537l-21.001 239c114.667 250.667 247.334 510 398.001 778l322 -18l-4 -772l141 -3v-239h-137v-421l-242 9l3 417zM502.999 761l3 515.999c-73.333 -169.333 -151.333 -339.666 -234 -510.999z" />
    <glyph glyph-name="five" unicode="5" horiz-adv-x="824" 
d="M29 545l235 19.9971c0 -146 46 -219 138 -219c91.333 0 141 43.667 149 131c3.33301 40.667 5 81.667 5 123c0 47.333 -2.33301 95 -7 143c-8.66699 87.333 -44.667 131 -108 131h-6c-68 -3.33301 -117.333 -56.333 -148 -159l-243 6l28 829l672 12l3 -243l-445 -9
l-18 -340c30.667 88.667 86.334 139.334 167.001 152.001c19.333 3.33301 38.333 5 57 5c58 0 111.333 -15.333 160 -46c64 -40 104 -135.333 120 -286c5.33301 -51.333 8 -101.666 8 -150.999c0 -93.333 -10 -181.666 -30 -264.999
c-30.667 -127.333 -90.667 -206.333 -180 -237c-63.333 -22 -127 -33 -191 -33c-26 0 -52.333 2 -79 6c-90.667 12.667 -162.334 51.667 -215.001 117c-48.667 59.333 -73 151 -73 275c0 12 0.333008 24.667 1 38z" />
    <glyph glyph-name="six" unicode="6" horiz-adv-x="885" 
d="M312 804c52 98 127.335 146.999 226.002 146.999h2c99.333 -0.666992 175 -37.167 227 -109.5s79.667 -155.5 83 -249.5v-25c0 -86 -14.667 -171.667 -44 -257c-32 -93.333 -82.333 -155.333 -151 -186c-50 -23.333 -106.333 -35 -169 -35
c-22.667 0 -46.334 1.66699 -71.001 5c-91.333 11.333 -164.333 53.333 -219 126s-94 169.334 -118 290.001c-18 88.667 -27 188 -27 298c0 38.667 1.33301 78.334 4 119.001c8 157.333 28 285.5 60 384.5s79.667 169.5 143 211.5c62 40.667 132.667 61 212 61h6
c81.333 -1.33301 150.166 -27.666 206.499 -78.999s92.833 -121.333 109.5 -210c10.667 -58.667 16 -116.334 16 -173.001c0 -30 -1.33301 -59.333 -4 -88h-224c1.33301 23.333 2 45 2 65c0 124.667 -23 193 -69 205c-12 2.66699 -23.333 4 -34 4
c-38.667 0 -71 -19.667 -97 -59c-34 -50.667 -55 -120.667 -63 -210c-6 -60.667 -9 -116.334 -9 -167.001c0 -24 0.666992 -46.667 2 -68zM332.002 613.999c1.33301 -88 12.8301 -153.832 34.4971 -197.499s53.834 -68.834 96.501 -75.501c6.66699 -1.33301 13.667 -2 21 -2
c33.333 0 63 13.667 89 41c28.667 30 43 84 43 162v20c-2.66699 88.667 -33.667 140.667 -93 156c-9.33301 2 -18.666 3 -27.999 3c-51.333 0 -105.666 -35.667 -162.999 -107z" />
    <glyph glyph-name="seven" unicode="7" horiz-adv-x="826" 
d="M64 1274l10 250c242 4 474.667 7 698 9v-254c-185.333 -380 -292.666 -757 -321.999 -1131l-237 27c29.333 362 125.666 729.333 288.999 1102z" />
    <glyph glyph-name="eight" unicode="8" horiz-adv-x="820" 
d="M605 805c90.667 -40.667 147.002 -99.333 169.002 -176c15.333 -53.333 23 -108 23 -164c0 -25.333 -1.66699 -51 -5 -77c-10 -83.333 -43.833 -155.333 -101.5 -216s-146.5 -92.334 -266.5 -95.001h-16c-112.667 0 -202.667 29.333 -270 88
c-70.667 60.667 -107.334 146.334 -110.001 257.001c-0.666992 7.33301 -1 14.666 -1 21.999c0 100.667 19.333 181 58 241c41.333 64 92.333 104.333 153 121c-44.667 18 -90 53.833 -136 107.5s-69.667 130.834 -71 231.501v9c0 96 20 180 60 252
c40.667 73.333 107.334 118.666 200.001 135.999c45.333 8.66699 88.666 13 129.999 13c42 0 82 -4.66699 120 -14c74 -18 133.167 -58.333 177.5 -121s68.166 -145.334 71.499 -248.001v-29c0 -89.333 -14.667 -158.666 -44 -207.999
c-32.667 -55.333 -79.667 -98.666 -141 -129.999zM416.002 704.001c-68 -36 -108.001 -78.6689 -120.001 -128.002c-6.66699 -28 -10 -55 -10 -81c0 -20 2 -39.333 6 -58c9.33301 -44 27 -75.333 53 -94c18.667 -14 40.334 -21 65.001 -21c9.33301 0 19.333 1 30 3
c37.333 6.66699 64.5 22.834 81.5 48.501s26.833 61.167 29.5 106.5c0.666992 5.33301 1 11 1 17c0 38.667 -8 75.334 -24 110.001c-18.667 40 -56 72.333 -112 97zM414.001 955.999c69.333 30 109.666 78.334 120.999 145.001c4.66699 25.333 7 48.666 7 69.999
c0 33.333 -5.66699 61.333 -17 84c-18 36.667 -49.667 56.334 -95 59.001h-9c-41.333 0 -73.666 -17.333 -96.999 -52c-18.667 -28 -28 -64 -28 -108c0 -16 1.33301 -33.333 4 -52c9.33301 -68.667 47.333 -117.334 114 -146.001z" />
    <glyph glyph-name="nine" unicode="9" horiz-adv-x="885" 
d="M589 769c-52 -98 -127.33 -146.999 -225.997 -146.999c-0.666992 0 -1 0.333008 -1 1c-100 0 -177.667 36.167 -233 108.5s-84.333 172.5 -87 300.5c-0.666992 9.33301 -1 19 -1 29c0 115.333 16.333 216 49 302c35.333 93.333 90.666 155.666 165.999 186.999
c55.333 22.667 113 34 173 34c22 0 44.333 -1.66699 67 -5c84.667 -11.333 154.334 -53.333 209.001 -126s94 -169 118 -289c18 -89.333 27 -189 27 -299c0 -38.667 -1 -78 -3 -118c-8.66699 -158 -29 -286.5 -61 -385.5s-79.667 -169.167 -143 -210.5
c-62 -41.333 -135.667 -62 -221 -62c-2 0 -4 0.333008 -6 1c-88.667 0.666992 -164.334 33.334 -227.001 98.001c-61.333 62.667 -92 174.667 -92 336v15h224c-1.33301 -15.333 -2 -30 -2 -44c0 -74 20 -122.333 60 -145c19.333 -12 38.666 -18 57.999 -18
c26.667 0 52.667 11 78 33c43.333 36.667 67.666 96.667 72.999 180c2.66699 46 4 89.333 4 130c0 33.333 -1 64.666 -3 93.999zM579.003 959.001c0.666992 22.667 1 44 1 64c0 95.333 -10 166.666 -30 213.999c-25.333 56.667 -59 88.334 -101 95.001
c-6 0.666992 -11.667 1 -17 1c-36 0 -69 -18.333 -99 -55c-32 -39.333 -48 -110.333 -48 -213v-24c2.66699 -115.333 40.667 -177 114 -185c6.66699 -1.33301 13.667 -2 21 -2c63.333 0 116.333 35 159 105z" />
    <glyph glyph-name="colon" unicode=":" horiz-adv-x="373" 
d="M186 45c-40 0 -74.333 14.333 -103 43s-43 63 -43 103c0 40.667 14.333 75.334 43 104.001s63 43 103 43c40.667 0 75.334 -14.333 104.001 -43s43 -63.334 43 -104.001c0 -40 -14.333 -74.333 -43 -103s-63.334 -43 -104.001 -43zM186 806c-40 0 -74.333 14.333 -103 43
s-43 63 -43 103c0 40.667 14.333 75.334 43 104.001s63 43 103 43c40.667 0 75.334 -14.333 104.001 -43s43 -63.334 43 -104.001c0 -40 -14.333 -74.333 -43 -103s-63.334 -43 -104.001 -43z" />
    <glyph glyph-name="semicolon" unicode=";" horiz-adv-x="381" 
d="M40 -79c74 21.333 116.999 62.334 128.999 123.001c-51.333 17.333 -85 38 -101 62s-24 51 -24 81s6.33301 56.5 19 79.5s30.834 40.5 54.501 52.5s47.167 18.333 70.5 19h2c22 0 43.333 -4 64 -12c20.667 -8.66699 37.5 -21.667 50.5 -39s22.167 -35.833 27.5 -55.5
s8.33301 -43.167 9 -70.5v-4c0 -26.667 -3.66699 -56 -11 -88c-7.33301 -34 -20 -66.333 -38 -97s-44.167 -59.834 -78.5 -87.501s-85.5 -44.167 -153.5 -49.5zM185.999 806.001c-40 0 -74.333 14.333 -103 43s-43 63 -43 103c0 40.667 14.333 75.334 43 104.001
s63 43 103 43c40.667 0 75.334 -14.333 104.001 -43s43 -63.334 43 -104.001c0 -40 -14.333 -74.333 -43 -103s-63.334 -43 -104.001 -43z" />
    <glyph glyph-name="less" unicode="&#x3c;" horiz-adv-x="780" 
d="M40 700v200l700 450v-300l-420 -250l420 -250v-300z" />
    <glyph glyph-name="equal" unicode="=" horiz-adv-x="880" 
d="M840 1170v-250h-800v250h800zM840 670v-250h-800v250h800z" />
    <glyph glyph-name="greater" unicode="&#x3e;" horiz-adv-x="780" 
d="M40 250v300l420 250l-420 250v300l700 -450v-200z" />
    <glyph glyph-name="question" unicode="?" horiz-adv-x="855" 
d="M72 1002c-3.33301 40 -5.00098 77.001 -5.00098 111.001c0 119.333 21.667 205.333 65 258c55.333 67.333 126 107.666 212 120.999c30.667 4.66699 60.667 7 90 7c52.667 0 103.334 -7.33301 152.001 -22c76 -23.333 133.333 -69.333 172 -138c34 -62 51 -141 51 -237
v-33c-4.66699 -111.333 -27.5 -203.5 -68.5 -276.5s-103.167 -125.833 -186.5 -158.5l-3 -183l-213 -4l-3 333c108 16 174 63.333 198 142c16.667 54.667 25 108 25 160c0 22 -1.33301 43.667 -4 65c-10.667 70 -54 105 -130 105h-5c-66.667 -2 -100 -62.667 -100 -182
c0 -22.667 1 -47 3 -73zM452.999 45.001c-40 0 -74.333 14.333 -103 43s-43 63 -43 103c0 40.667 14.333 75.334 43 104.001s63 43 103 43c40.667 0 75.334 -14.333 104.001 -43s43 -63.334 43 -104.001c0 -40 -14.333 -74.333 -43 -103s-63.334 -43 -104.001 -43z" />
    <glyph glyph-name="at" unicode="@" horiz-adv-x="1454" 
d="M794 330l0.000976562 406c-32.667 66 -74 99 -124 99c-10 0 -20.333 -1.33301 -31 -4c-64.667 -15.333 -100.334 -104.333 -107.001 -267c-0.666992 -17.333 -1 -34 -1 -50c0 -132.667 24.667 -214 74 -244c16.667 -10.667 34.334 -16 53.001 -16
c41.333 0 86.666 25.333 135.999 76zM819.001 942l5.99609 153.999l216 4c-0.666992 -216.667 -1 -395 -1 -535c0 -233.333 1 -359.666 3 -378.999c3.33301 -30.667 17 -46 41 -46c0.666992 0 1.66699 0.333008 3 1c25.333 0.666992 56.333 24.167 93 70.5
s59.334 133.833 68.001 262.5c2 30.667 3 62.334 3 95.001c0 100 -10 205.333 -30 316c-27.333 145.333 -84 240.5 -170 285.5s-190.333 68.833 -313 71.5h-18c-114.667 0 -211.334 -24 -290.001 -72c-82.667 -51.333 -138.667 -131.666 -168 -240.999
s-45.333 -231.333 -48 -366c-0.666992 -12.667 -1 -25.334 -1 -38.001c0 -119.333 13.333 -228.333 40 -327c28.667 -108.667 94.667 -196 198 -262c66.667 -42.667 173.334 -64 320.001 -64c78.667 0 168.667 6 270 18l12 -166c-105.333 -13.333 -201.666 -20 -288.999 -20
c-142 0 -259.333 17.667 -352 53c-150.667 56 -256 182.333 -316 379c-40 128.667 -60 267.667 -60 417c0 78 5.33301 158.333 16 241c31.333 242.667 112.333 407 243 493c125.333 82.667 277.333 124 456 124h21c188 -3.33301 335.833 -52.333 443.5 -147
s171.834 -257.667 192.501 -489c6 -74 9 -143.333 9 -208c0 -138.667 -14.667 -256.667 -44 -354c-43.333 -144 -146.666 -225 -309.999 -243c-19.333 -2.66699 -37.666 -4 -54.999 -4c-128.667 0 -198.334 60.667 -209.001 182c-60 -70.667 -121.667 -107 -185 -109
c-4.66699 -0.666992 -9 -1 -13 -1c-58 0 -108.333 14.333 -151 43c-46.667 30 -82.334 76.667 -107.001 140s-40 137.666 -46 222.999c-2.66699 31.333 -4 63 -4 95c0 54 3.33301 109 10 165c10.667 88 38.334 165.833 83.001 233.5s115.667 104.167 213 109.5h18
c88.667 0 156 -35 202 -105z" />
    <glyph glyph-name="A" unicode="A" horiz-adv-x="960" 
d="M-18 90c125.333 569.333 226.667 1052 304 1448l375 6l316 -1408l-256 -52l-81 379h-311l-84 -409zM632.001 744c-34.667 144 -91.333 316.334 -170 517.001c-60.667 -168.667 -112 -343.334 -154 -524.001z" />
    <glyph glyph-name="B" unicode="B" horiz-adv-x="917" 
d="M312 1309l7 -429c124 6.66699 202.667 49 236 127c18 41.333 27 82 27 122c0 33.333 -6.66699 66.333 -20 99c-23.333 56.667 -83 85 -179 85c-21.333 0 -45 -1.33301 -71 -4zM331 674l0.00195312 -335c15.333 -0.666992 30 -1 44 -1c124 0 202.333 34 235 102
c18 38 27 72.333 27 103c0 30 -8.66699 56.333 -26 79c-28.667 36.667 -95.334 55 -200.001 55c-24.667 0 -51.334 -1 -80.001 -3zM55.002 85c2.66699 186 4 369 4 549c0 310.667 -4 612.334 -12 905.001c113.333 12 212.666 18 297.999 18
c156.667 0 265.334 -20.333 326.001 -61c93.333 -62.667 146 -147.334 158 -254.001c2.66699 -27.333 4 -53.666 4 -78.999c0 -72.667 -12.333 -135.667 -37 -189c-34 -72.667 -94.333 -124.667 -181 -156c96.667 -14.667 166 -49.667 208 -105
c35.333 -46.667 53 -113.334 53 -200.001c0 -16.667 -0.666992 -34 -2 -52c-8 -113.333 -43.833 -198 -107.5 -254s-152.167 -94.333 -265.5 -115c-64 -11.333 -139 -17 -225 -17c-67.333 0 -141 3.33301 -221 10z" />
    <glyph glyph-name="C" unicode="C" horiz-adv-x="885" 
d="M816 978l-222 -1v27c0 156.667 -44 235 -132 235c-94 0 -141 -144.667 -141 -434c0 -326 49.333 -489 148 -489h1c98.667 0.666992 148 80.667 148 240v99h248v-75c0 -332 -136.333 -505.667 -409 -521c-8 -0.666992 -16 -1 -24 -1c-256.667 0 -385 246.667 -385 740
c0 482.667 132 724 396 724c248.667 0 373 -161.333 373 -484c0 -19.333 -0.333008 -39.333 -1 -60z" />
    <glyph glyph-name="D" unicode="D" horiz-adv-x="875" 
d="M296 1231c-11.333 -219.333 -16.998 -431.334 -16.998 -636.001c0 -77.333 0.666992 -153.333 2 -228c23.333 -5.33301 45.666 -8 66.999 -8c58.667 0 108 20.333 148 61c54.667 54.667 82 177.334 82 368.001v4c-0.666992 192 -27.334 318 -80.001 378
c-40.667 45.333 -89 68 -145 68c-18 0 -37 -2.33301 -57 -7zM48.002 87.999c1.33301 224.667 1.99902 455.999 1.99902 693.999c0 238.667 -0.666992 483.667 -2 735c76.667 9.33301 147.334 14 212.001 14c180 0 312.667 -36 398 -108c116 -98.667 176.667 -281 182 -547
v-72c0 -228 -22 -390.667 -66 -488c-48.667 -107.333 -137.667 -178.666 -267 -213.999c-74.667 -20.667 -156.667 -31 -246 -31c-66.667 0 -137.667 5.66699 -213 17z" />
    <glyph glyph-name="E" unicode="E" horiz-adv-x="798" 
d="M683 1490l-0.000976562 -282l-395 16v-328l355 10l9 -271h-317v-254h415v-284l-692 10c7.33301 187.333 11 376 11 566c0 263.333 -7 529 -21 797c150.667 6 362.334 12.667 635.001 20z" />
    <glyph glyph-name="F" unicode="F" horiz-adv-x="731" 
d="M683 1511l-0.000976562 -282l-395 15v-375l355 9l9 -271h-317v-493l-277 13c7.33301 187.333 11 376 11 566c0 263.333 -7 529 -21 797c150.667 6.66699 362.334 13.667 635.001 21z" />
    <glyph glyph-name="G" unicode="G" horiz-adv-x="981" 
d="M882 959l-227.001 -2c-3.33301 169.333 -46 258.333 -128 267h-18c-73.333 0 -132.666 -48.333 -177.999 -145s-68 -233.667 -68 -411v-44c4 -198.667 73.667 -298 209 -298c93.333 0 140 76 140 228c0 15.333 -0.333008 31 -1 47l-199 -3l10 225l511 -8v-245l-102 -2
c0 -348 -138.667 -522 -416 -522c-256.667 0 -385 204.667 -385 614c0 34 1 69.667 3 107c23.333 480.667 176.333 731 459 751c14 0.666992 27.333 1 40 1c235.333 0 353 -158.667 353 -476c0 -26.667 -1 -54.667 -3 -84z" />
    <glyph glyph-name="H" unicode="H" horiz-adv-x="904" 
d="M856 1484c-8 -448.667 -15.667 -932 -23 -1450h-227v583h-285v-536l-273 1c8 244.667 12 484 12 718c0 233.333 -4 461.333 -12 684h261l-11 -583l285 -12v619z" />
    <glyph glyph-name="I" unicode="I" horiz-adv-x="381" 
d="M321 127l-249 -22.998c0 489.333 -8 948.666 -24 1378l285 24c-7.33301 -452.667 -11.333 -912.334 -12 -1379z" />
    <glyph glyph-name="J" unicode="J" horiz-adv-x="912" 
d="M64 689l262.999 17.998c-0.666992 -19.333 -1 -37.666 -1 -54.999c0 -148.667 18 -238.667 54 -270c22 -20.667 45.667 -31 71 -31c20 0 40.667 6 62 18c46.667 26 70 117 70 273v23c-2.66699 170 -10 446 -22 828l285 17c4.66699 -187.333 7 -352.666 7 -495.999
c0 -356.667 -14.667 -579 -44 -667c-41.333 -124.667 -109.333 -202 -204 -232c-56.667 -18 -111.667 -27 -165 -27c-36 0 -71.333 4.33301 -106 13c-86 20 -149.167 63.167 -189.5 129.5s-64.166 136.5 -71.499 210.5c-6 62 -9 130.667 -9 206v42z" />
    <glyph glyph-name="K" unicode="K" horiz-adv-x="904" 
d="M305 1473l-4 -624.998l309 589l280 -16c-94 -174.667 -222.667 -390.334 -386 -647.001c82.667 -170 207 -404.333 373 -703l-318 -4c-61.333 155.333 -152 350.666 -272 585.999v-534l-239 -4c4.66699 354.667 7 800.667 7 1338z" />
    <glyph glyph-name="L" unicode="L" horiz-adv-x="842" 
d="M349 1554c-12 -347.333 -18 -645.001 -18 -893.001c0 -98.667 1 -189.667 3 -273l446 22l7 -326l-714 -16c0.666992 88 1 175.667 1 263c0 400.667 -8.66699 799.334 -26 1196z" />
    <glyph glyph-name="M" unicode="M" horiz-adv-x="1307" 
d="M396 1533l233 -1036l171 960l456 -5c-8 -216.667 -12 -435.334 -12 -656.001c0 -246 5 -495 15 -747l-291 -20c0 265.333 -3 589.666 -9 972.999l-163 -879l-310 -21l-200 948l-4 -960l-244 -17c4.66699 219.333 7 437 7 653c0 269.333 -3.66699 535.333 -11 798z" />
    <glyph glyph-name="N" unicode="N" horiz-adv-x="947" 
d="M52 79c8 228 12 450 12 666c0 249.333 -5.33301 491 -16 725l294 14l270 -753c-2.66699 258.667 -10 523.334 -22 794.001l309 4c-30.667 -408.667 -46 -821.334 -46 -1238c0 -56 0.333008 -112 1 -168l-271 -3l-288 806l24 -829z" />
    <glyph glyph-name="O" unicode="O" horiz-adv-x="952" 
d="M507 1524c280.667 0 421 -240 421 -720c0 -480.667 -150.333 -721 -451 -721s-451 249 -451 747c0 462.667 160.333 694 481 694zM307 777c-0.666992 -17.333 -0.999023 -34 -0.999023 -50c0 -251.333 58.667 -377 176 -377c124.667 0 187 142.333 187 427
s-58 427 -174 427c-116.667 0 -179.334 -142.333 -188.001 -427z" />
    <glyph glyph-name="P" unicode="P" horiz-adv-x="879" 
d="M56 80c4 175.333 6.00195 354.668 6.00195 538.001c0 281.333 -4.66699 572.666 -14 873.999c114 16 214.667 24 302 24c137.333 0 240.666 -20 309.999 -60c107.333 -62 161 -189 161 -381v-33c-6.66699 -210.667 -54.334 -345.5 -143.001 -404.5s-198 -90.5 -328 -94.5
c-0.666992 -20.667 -1 -42 -1 -64c0 -110.667 5.66699 -241.667 17 -393zM312.002 1260l6.99902 -488.999c124 6.66699 196.667 51 218 133c10 37.333 15 75.666 15 114.999c0 46 -6.66699 93.333 -20 142c-20 71.333 -70 107 -150 107
c-21.333 0 -44.666 -2.66699 -69.999 -8z" />
    <glyph glyph-name="Q" unicode="Q" horiz-adv-x="957" 
d="M801 -30l-109.999 163c-58.667 -34.667 -128.334 -52 -209.001 -52c-300.667 0 -451 249.333 -451 748c0 462.667 160.333 694 481 694c280.667 0 421 -240.333 421 -721c0 -227.333 -33.667 -401 -101 -521l114 -147zM312.001 775c-0.666992 -17.333 -1 -34 -1 -50
c0 -251.333 58.667 -377 176 -377c16.667 0 32.334 2.66699 47.001 8l-131 183l143 157l106 -161c14.667 64 22 144 22 240c0 285.333 -58 428 -174 428c-116.667 0 -179.334 -142.667 -188.001 -428z" />
    <glyph glyph-name="R" unicode="R" horiz-adv-x="895" 
d="M56 64c4 190.667 5.99805 382.667 5.99805 576c0 296 -4.66699 595 -14 897c103.333 10.667 196 16 278 16c228 0 373.333 -41.667 436 -125c58.667 -78 88 -164 88 -258c0 -42.667 -5.66699 -86.667 -17 -132c-38.667 -146.667 -120 -239.667 -244 -279
c86.667 -12 152.334 -58.667 197.001 -140c42.667 -78.667 64 -276.667 64 -594v-43l-302 -4c3.33301 84 5 159.333 5 226c0 202 -16.333 325.667 -49 371c-37.333 50.667 -81.666 76 -132.999 76c-10 0 -20.333 -1 -31 -3c4 -203.333 12.667 -396 26 -578zM311.998 1304
l7 -427.999c124 6 202.667 48 236 126c18 41.333 27 81.666 27 120.999c0 34 -6.66699 67.333 -20 100c-24 56.667 -83.667 85 -179 85c-22 0 -45.667 -1.33301 -71 -4z" />
    <glyph glyph-name="S" unicode="S" horiz-adv-x="909" 
d="M52 609l296.999 19.9941c-4 -41.333 -6 -78.666 -6 -111.999c0 -151.333 37.667 -227 113 -227h4c91.333 2.66699 137 51.334 137 146.001v9c-3.33301 100.667 -89.666 199.334 -258.999 296.001c-164.667 93.333 -247 247.333 -247 462
c0 6.66699 0.333008 13.334 1 20.001c4.66699 224.667 130.667 339 378 343h8c223.333 0 335 -142.333 335 -427c0 -22.667 -0.666992 -46.667 -2 -72l-261 -15c2.66699 30 4 57.667 4 83c0 119.333 -29 179 -87 179c-70 0 -108.333 -35.667 -115 -107
c-0.666992 -10 -1 -20 -1 -30c0 -59.333 17.667 -114.666 53 -165.999c40.667 -59.333 110.5 -113.666 209.5 -162.999s168.167 -117 207.5 -203c28 -62 42 -128 42 -198c0 -26.667 -2 -54 -6 -82c-15.333 -100.667 -58 -184.167 -128 -250.5s-164 -102.5 -282 -108.5
c-8 -0.666992 -16 -1 -24 -1c-107.333 0 -197 39.333 -269 118c-69.333 75.333 -104 212.333 -104 411c0 24 0.666992 49 2 75z" />
    <glyph glyph-name="T" unicode="T" horiz-adv-x="835" 
d="M48 1232v263c98 -2.66699 195 -4 291 -4c149.333 0 295.666 3 438.999 9l9 -280h-252c0 -474 5 -850 15 -1128l-282 -14c14.667 473.333 25.334 859.333 32.001 1158z" />
    <glyph glyph-name="U" unicode="U" horiz-adv-x="912" 
d="M864 1516v-989.001c0 -304.667 -139.333 -457 -418 -457h-22c-233.333 26.667 -354 154.334 -362 383.001c0 456.667 -4.66699 816.667 -14 1080h266c-6.66699 -150.667 -10 -327.667 -10 -531c0 -142.667 1.66699 -298.667 5 -468c1.33301 -124 46 -186 134 -186
c0 -0.666992 0.333008 -1 1 -1c87.333 0 131 79.333 131 238l-5 922z" />
    <glyph glyph-name="V" unicode="V" horiz-adv-x="913" 
d="M264 94c-81.333 449.333 -177.666 919 -288.999 1409l292 30l171 -1096c87.333 383.333 158.666 730.333 213.999 1041l277 -34l-313 -1339z" />
    <glyph glyph-name="W" unicode="W" horiz-adv-x="1337" 
d="M258 1515l91 -989l155 869l361 4l103 -866l89 947l300 -39c-72 -436 -140 -876.667 -204 -1322l-364 -19l-119 959l-184 -978l-342 14c-51.333 453.333 -113.333 920.333 -186 1401z" />
    <glyph glyph-name="X" unicode="X" horiz-adv-x="913" 
d="M293 1513l181 -530l166 529l267 -13l-236 -683c60 -193.333 141.667 -436.333 245 -729l-281 -28l-168 560l-169 -536l-284 40l257 693l-265 654z" />
    <glyph glyph-name="Y" unicode="Y" horiz-adv-x="835" 
d="M304 75l11 620.001c-152 321.333 -269.333 582.666 -352 783.999l282 29l191 -558c86 268 155 467.667 207 599h273l-352 -873v-589z" />
    <glyph glyph-name="Z" unicode="Z" horiz-adv-x="826" 
d="M61 1252l14.002 260c315.333 4 543.666 6 684.999 6v-263l-432 -858c77.333 -2 150.666 -3 219.999 -3c80.667 0 156 1.33301 226 4l10 -279c-176.667 7.33301 -414 11 -712 11l-21 292c193.333 334.667 338 612 434 832z" />
    <glyph glyph-name="bracketleft" unicode="[" horiz-adv-x="553" 
d="M503 1700v-250h-200v-1400h200v-250h-450v1900h450z" />
    <glyph glyph-name="backslash" unicode="\" horiz-adv-x="600" 
d="M170 1650l430 -1750l-170 -50l-440 1750z" />
    <glyph glyph-name="bracketright" unicode="]" horiz-adv-x="553" 
d="M503 1700v-1900h-450v250h200v1400h-200v250h450z" />
    <glyph glyph-name="asciicircum" unicode="^" horiz-adv-x="980" 
d="M640 1700l300 -600h-250l-200 400l-200 -400h-250l300 600h300z" />
    <glyph glyph-name="underscore" unicode="_" horiz-adv-x="694" 
d="M692 -150v-200h-700v200h700z" />
    <glyph glyph-name="grave" unicode="`" horiz-adv-x="395" 
d="M254 1181c-86.667 100.667 -165.333 185.667 -236 255l164 130c50 -84 114 -172.333 192 -265z" />
    <glyph glyph-name="a" unicode="a" horiz-adv-x="796" 
d="M427 1106c219.333 -12 329 -122.332 329 -330.999v-710l-233 -4l-8 95c-48 -54.667 -111.667 -82 -191 -82c-34 0 -70.667 5.33301 -110 16c-118 29.333 -177 120.666 -177 273.999c0 18.667 1 38.667 3 60c13.333 158 125.666 237 336.999 237
c40.667 0 85.334 -3 134.001 -9v116c0 94 -29.667 141 -89 141h-4c-4.66699 0.666992 -9 1 -13 1c-64.667 0 -97 -52.667 -97 -158v-15l-238 20c0 232.667 112 349 336 349h21zM511 316.001l-0.000976562 176.001c-28.667 6 -54.667 9 -78 9
c-60.667 0 -102 -20.333 -124 -61c-13.333 -24.667 -20 -47.667 -20 -69c0 -26.667 10.667 -50.334 32 -71.001c16.667 -16 38.334 -24 65.001 -24c34 0 75.667 13.333 125 40z" />
    <glyph glyph-name="b" unicode="b" horiz-adv-x="835" 
d="M312 1465c-7.33301 -200.667 -11.001 -374.999 -11.001 -522.999c35.333 63.333 80.333 100.333 135 111c9.33301 0.666992 18.333 1 27 1c217.333 0 328.333 -157 333 -471v-18c0 -314.667 -115.667 -472 -347 -472c-55.333 0 -107.666 37 -156.999 111l-8 -153l-237 1
c3.33301 244 5 478.667 5 704c0 247.333 -2 483.666 -6 708.999h266zM300.999 755.001l-5 -346c34.667 -70.667 78.667 -106 132 -106c6 0 12 0.333008 18 1c61.333 8.66699 95.333 91 102 247c0.666992 16 1 31.333 1 46c0 128 -26 204.333 -78 229
c-16 7.33301 -31.667 11 -47 11c-42 0 -83 -27.333 -123 -82z" />
    <glyph glyph-name="c" unicode="c" horiz-adv-x="730" 
d="M449 462l237.999 -15.001c0 -240.667 -111 -362.667 -333 -366c-2.66699 -0.666992 -5 -1 -7 -1c-211.333 0 -317 160.333 -317 481v30c6.66699 344 119.334 517.667 338.001 521h8c201.333 0 302 -115.333 302 -346c0 -13.333 -0.333008 -26.666 -1 -39.999l-215 -16v24
c0 121.333 -34.333 182 -103 182c-70 0 -105 -98.333 -105 -295v-33c4 -212.667 39.333 -319 106 -319h6c58 4.66699 87 49 87 133c0 18 -1.33301 38 -4 60z" />
    <glyph glyph-name="d" unicode="d" horiz-adv-x="835" 
d="M796 1465c-4 -225.333 -6 -461.668 -6 -709.001c0 -225.333 1.66699 -460 5 -704l-237 -1l-8 153c-49.333 -74 -115 -111 -197 -111c-204.667 0 -307 156.667 -307 470c0 6.66699 0.333008 13.334 1 20.001c4 314 105.333 471 304 471c8 0 16.333 -0.333008 25 -1
c68 -4 123 -41 165 -111c0 148 -3.66699 322.333 -11 523h266zM546 408.998l-4.99805 346.001c-38.667 52.667 -78.334 79 -119.001 79c-16.667 0 -33.334 -4.33301 -50.001 -13c-52.667 -27.333 -79 -104 -79 -230c0 -14.667 0.333008 -29.667 1 -45
c6.66699 -152.667 40.667 -233.334 102 -242.001c6 -0.666992 12 -1 18 -1c53.333 0 97.333 35.333 132 106z" />
    <glyph glyph-name="e" unicode="e" 
d="M365 1077c231.333 0 346.999 -153.667 346.999 -461c0 -37.333 -1.66699 -77.333 -5 -120h-447c0 -171.333 33 -257 99 -257h7c58 4.66699 87 49 87 133c0 18 -1.33301 38 -4 60l238 5c0 -254 -111 -382.667 -333 -386c-2.66699 -0.666992 -5 -1 -7 -1
c-211.333 0 -317 160.333 -317 481v30c6.66699 344 118.334 516 335.001 516zM235.999 680h226v24c0 121.333 -34.333 182 -103 182c-74 0 -115 -68.667 -123 -206z" />
    <glyph glyph-name="f" unicode="f" horiz-adv-x="699" 
d="M186 1041c-1.33301 18 -1.99902 36.334 -1.99902 55.001c0 62.667 6.33301 127 19 193c15.333 86 62 154.667 140 206c58 38.667 131.333 58 220 58c29.333 0 60.666 -2.33301 93.999 -7l-2 -219c-20 2.66699 -38.667 4 -56 4c-55.333 0 -96 -13.667 -122 -41
c-28.667 -28.667 -43 -84.667 -43 -168c0 -20 1 -42 3 -66l214 3v-203l-220 -14c5.33301 -218.667 8 -425.334 8 -620.001c0 -58.667 -0.333008 -116 -1 -172l-254 -11c2 222 5.33301 484.667 10 788l-162 -8l-4 215z" />
    <glyph glyph-name="g" unicode="g" horiz-adv-x="827" 
d="M546 330l0.000976562 406c-32.667 66 -74 99 -124 99c-10 0 -20.333 -1.33301 -31 -4c-64.667 -15.333 -100.334 -104.333 -107.001 -267c-0.666992 -17.333 -1 -34 -1 -50c0 -132.667 24.667 -214 74 -244c16.667 -10.667 34.334 -16 53.001 -16
c41.333 0 86.666 25.333 135.999 76zM68.001 -66l234.997 13.001c-0.666992 -8 -1 -16 -1 -24c0 -72.667 29 -112.334 87 -119.001c9.33301 -1.33301 18 -2 26 -2c50 0 85.667 20 107 60c18.667 36 28 103.333 28 202c0 26.667 -0.666992 56 -2 88
c-37.333 -74.667 -106.666 -115.334 -207.999 -122.001c-198 2 -297 170.333 -297 505v7c1.33301 338.667 119 509 353 511c64 0 121.333 -37.333 172 -112l3 159l219 -10c0 -550 -1.66699 -890.667 -5 -1022s-23.166 -236.666 -59.499 -315.999s-98.166 -130 -185.499 -152
c-46 -12 -91.667 -18 -137 -18c-40.667 0 -81 4.66699 -121 14c-85.333 20 -144 57.667 -176 113c-26.667 45.333 -40 104.666 -40 177.999c0 14.667 0.666992 30.334 2 47.001z" />
    <glyph glyph-name="h" unicode="h" horiz-adv-x="791" 
d="M278 1483l10.002 -562.999c28 86.667 93.333 130.667 196 132h3c101.333 0 173.333 -46 216 -138c29.333 -62.667 44 -209.334 44 -440.001c0 -113.333 -3.66699 -247.333 -11 -402h-252c8.66699 206 13 365.667 13 479c0 56.667 -1 102 -3 136
c-6.66699 100 -35.334 150 -86.001 150s-83.334 -26.667 -98.001 -80l10 -725l-245 -2c0 306.667 -13.667 787.667 -41 1443z" />
    <glyph glyph-name="i" unicode="i" horiz-adv-x="335" 
d="M320 1307c0 -40.667 -14.333 -75.334 -43 -104.001s-63.334 -43 -104.001 -43c-40 0 -74.333 14.333 -103 43s-43 63.334 -43 104.001c0 40 14.333 74.333 43 103s63 43 103 43c40.667 0 75.334 -14.333 104.001 -43s43 -63 43 -103zM52 45c-4.66699 390 -7 727 -7 1011
l252 15c-8 -272 -12 -542.333 -12 -811c0 -72 0.333008 -143.667 1 -215h-234z" />
    <glyph glyph-name="j" unicode="j" horiz-adv-x="335" 
d="M48 1037l245.999 17.999c2.66699 -203.333 4 -379.666 4 -528.999c0 -187.333 -2 -333 -6 -437c-6.66699 -186.667 -46 -313.334 -118 -380.001c-63.333 -58.667 -155.666 -88 -276.999 -88c-18 0 -36.667 0.666992 -56 2l-28 254c28 -4.66699 53.333 -7 76 -7
c63.333 0 107 18.333 131 55c31.333 48.667 47 150.334 47 305.001v10c-0.666992 159.333 -7 425 -19 797zM319.999 1307c0 -40.667 -14.333 -75.334 -43 -104.001s-63.334 -43 -104.001 -43c-40 0 -74.333 14.333 -103 43s-43 63.334 -43 104.001
c0 40 14.333 74.333 43 103s63 43 103 43c40.667 0 75.334 -14.333 104.001 -43s43 -63 43 -103z" />
    <glyph glyph-name="k" unicode="k" horiz-adv-x="808" 
d="M285 1473l-4 -774.999l259 409l230 -26c-120.667 -168 -226 -327 -316 -477c76 -136.667 180.333 -314.334 313 -533.001l-248 -24c-74.667 162 -158.667 314 -252 456v-384l-219 -4c4.66699 354.667 7 800.667 7 1338z" />
    <glyph glyph-name="l" unicode="l" horiz-adv-x="367" 
d="M321 67l-249 -22.999c2.66699 220.667 4 433 4 637c0 286.667 -2.66699 557 -8 811l245 4c-2.66699 -163.333 -4 -331 -4 -503c0 -296.667 4 -605.334 12 -926.001z" />
    <glyph glyph-name="m" unicode="m" horiz-adv-x="1140" 
d="M201 1098l4 -160.002c36 76.667 77.667 124.334 125 143.001c28 10.667 56.333 16 85 16c21.333 0 42.666 -2.66699 63.999 -8c52 -13.333 89 -66.666 111 -159.999c17.333 72.667 47.333 121.167 90 145.5s90 36.833 142 37.5h4c50.667 0 99.334 -12.333 146.001 -37
c47.333 -25.333 83.5 -72.833 108.5 -142.5s38.167 -165.167 39.5 -286.5v-581l-216 -5c8.66699 219.333 13 406 13 560s-29.333 237 -88 249c-8.66699 1.33301 -17 2 -25 2c-46.667 0 -82.667 -30 -108 -90c-4 -69.333 -6 -150.333 -6 -243c0 -126 3.66699 -273 11 -441
l-250 -2c9.33301 258 14 446 14 564v12c-0.666992 116.667 -23.667 178 -69 184h-13c-40.667 0 -80 -23.333 -118 -70l2 -732l-236 -9v164c0 290.667 -4.33301 581 -13 871z" />
    <glyph glyph-name="n" unicode="n" horiz-adv-x="786" 
d="M224 1103l10 -162.999c28 86.667 101.667 130.667 221 132h4c117.333 0 197.333 -46 240 -138c29.333 -62.667 44 -209.334 44 -440.001c0 -113.333 -3.66699 -247.333 -11 -402h-242c8.66699 206 13 365.667 13 479c0 56.667 -1 102 -3 136
c-6.66699 100 -38.667 150 -96 150s-93.333 -26.667 -108 -80l10 -725l-235 -2c0 306.667 -10.333 651 -31 1033z" />
    <glyph glyph-name="o" unicode="o" 
d="M392 1077c226.667 0 340 -157.332 340 -471.999c0 -12.667 -0.333008 -25.334 -1 -38.001c-9.33301 -340.667 -130 -512.667 -362 -516c-2.66699 -0.666992 -5.33398 -1 -8.00098 -1c-220.667 0 -331 161 -331 483v28c6.66699 344 127.334 516 362.001 516zM359 849.001
c-42 -14.667 -70.668 -68.999 -86.001 -162.999c-9.33301 -56 -14 -112.333 -14 -169c0 -38 2 -76.333 6 -115c10.667 -96 45 -145.667 103 -149h7c54 0 91 35.667 111 107c16.667 59.333 25 129.666 25 210.999c0 20 -0.333008 40.333 -1 61
c-5.33301 107.333 -21.333 174.333 -48 201c-16.667 16 -36.667 24 -60 24c-13.333 0 -27.666 -2.66699 -42.999 -8z" />
    <glyph glyph-name="p" unicode="p" horiz-adv-x="835" 
d="M46 -349c4 224.667 6 463.667 6 717c0 230.667 -1.66699 472.667 -5 726l237 1l8 -154c49.333 74.667 115 112 197 112c204.667 0 307 -161.667 307 -485v-20c-4.66699 -324 -106.667 -486 -306 -486c-8 0 -16 0.333008 -24 1c-68 3.33301 -123 40.333 -165 111
c0 -148 3.66699 -322.333 11 -523h-266zM296 736l5.00098 -376.002c38.667 -52.667 77.667 -79 117 -79c16 0 32 4.66699 48 14c48.667 26.667 73 106.334 73 239.001c0 16 -0.333008 32.667 -1 50c-6.66699 162.667 -39 248.334 -97 257.001c-6 0.666992 -11.667 1 -17 1
c-50.667 0 -93.334 -35.333 -128.001 -106z" />
    <glyph glyph-name="q" unicode="q" horiz-adv-x="835" 
d="M545 -399c0.666992 214 1 395.001 1 543.001c-38.667 -70.667 -108.667 -107.667 -210 -111c-195.333 0 -293.333 170 -294 510c-0.666992 1.33301 -1 2.66602 -1 3.99902c0 337.333 117.333 506 352 506c68.667 0 127.667 -37.333 177 -112l8 154l217 -1
c-3.33301 -263.333 -5 -512.666 -5 -747.999c0 -258.667 2 -500.334 6 -725.001zM546 330.001l0.000976562 406c-32.667 66 -74 99 -124 99c-10 0 -20.333 -1.33301 -31 -4c-64.667 -15.333 -100.334 -104.333 -107.001 -267c-0.666992 -17.333 -1 -34 -1 -50
c0 -132.667 24.667 -214 74 -244c16.667 -10.667 34.334 -16 53.001 -16c41.333 0 86.666 25.333 135.999 76z" />
    <glyph glyph-name="r" unicode="r" horiz-adv-x="759" 
d="M306 767l9.99902 -724.999l-245 -2c0 306.667 -10.333 651 -31 1033l184 20l10 -163c28 80 93.333 125.667 196 137c15.333 1.33301 30 2 44 2c80.667 0 142 -26.333 184 -79c48.667 -62.667 73.334 -162.334 74.001 -299.001l-222 -22c0.666992 11.333 1 22.333 1 33
c0 106.667 -27.667 160 -83 160h-4c-64 -3.33301 -103.333 -35 -118 -95z" />
    <glyph glyph-name="s" unicode="s" horiz-adv-x="710" 
d="M28 405l229.002 11v-13c0 -102.667 31.667 -154.667 95 -156h4c61.333 0 92 29.667 92 89v7c-2.66699 65.333 -63.167 118 -181.5 158s-189.5 107.333 -213.5 202c-8.66699 33.333 -13 65.333 -13 96c0 56 14.333 108 43 156c44 73.333 110.667 115.333 200 126
c24 2.66699 47.333 4 70 4c59.333 0 111.666 -10.333 156.999 -31c62 -28.667 105 -69.667 129 -123c16 -36.667 24 -77.334 24 -122.001c0 -21.333 -1.66699 -43.333 -5 -66l-214 -5c2 16.667 3 32 3 46c0 66.667 -21.333 102.334 -64 107.001
c-4.66699 0.666992 -9.33398 1 -14.001 1c-44 0 -73.667 -22.333 -89 -67c-5.33301 -15.333 -8 -29.333 -8 -42c0 -31.333 14.667 -58.333 44 -81c41.333 -32 102.5 -64.5 183.5 -97.5s135.5 -89.167 163.5 -168.5c10 -30 15 -60 15 -90
c0 -50.667 -14.667 -101.667 -44 -153c-46.667 -82 -119 -129.667 -217 -143c-21.333 -3.33301 -42.333 -5 -63 -5c-73.333 0 -141.333 19 -204 57c-80 48.667 -120.667 149.667 -122 303z" />
    <glyph glyph-name="t" unicode="t" horiz-adv-x="671" 
d="M207 1396l227 15v-331l191 5l3 -189l-194 -9v-455c0 -106 45 -159 135 -159c18.667 0 39 2.33301 61 7l-9 -220c-32 -4 -62.333 -6 -91 -6c-210.667 0 -318 108.667 -322 326v489l-164 -10l-4 223l168 -2z" />
    <glyph glyph-name="u" unicode="u" horiz-adv-x="786" 
d="M559 50l-10.001 163.002c-28 -86.667 -103.333 -130.334 -226 -131.001c-1.33301 -0.666992 -2.33301 -1 -3 -1c-121.333 0 -201.666 54.667 -240.999 164c-26.667 72.667 -40 223 -40 451c0 117.333 3.66699 255.666 11 414.999h243c-13.333 -224 -20 -396.333 -20 -517
c0 -60.667 1.66699 -108 5 -142c10 -104 43.667 -156 101 -156s93.333 27 108 81l-10 694l235 2c0 -286.667 10.333 -620.667 31 -1002z" />
    <glyph glyph-name="v" unicode="v" horiz-adv-x="755" 
d="M226 76c-84 386 -159.333 717.333 -226 994l243 13l123 -727c64 272 115 520 153 744l239 -30l-263 -990z" />
    <glyph glyph-name="w" unicode="w" horiz-adv-x="1168" 
d="M221 1107l96.999 -757.001l126 700l279 10l143 -648l92 695l221 -20c-61.333 -319.333 -116.666 -655.666 -165.999 -1009l-296 -13l-107 686l-168 -676l-270 -13l-194 1009z" />
    <glyph glyph-name="x" unicode="x" horiz-adv-x="812" 
d="M291 1096l104.999 -393l104 396l264 -31c-61.333 -130 -126.666 -288.333 -195.999 -475c61.333 -161.333 129 -326.333 203 -495l-258 -28l-126 385l-120 -382l-245 32l202 478l-196 473z" />
    <glyph glyph-name="y" unicode="y" horiz-adv-x="803" 
d="M38 1081l261.999 21.002c-6 -200 -9 -364.667 -9 -494c0 -48.667 0.666992 -92.334 2 -131.001c2.66699 -142.667 34.667 -216 96 -220c4 -0.666992 7.66699 -1 11 -1c54.667 0 89.334 31.333 104.001 94c8 36.667 12 123.667 12 261c0 110 -2.66699 252 -8 426l246 18
c2.66699 -203.333 4 -378 4 -524c0 -182 -2 -319.333 -6 -412c-6.66699 -166.667 -54.334 -293.334 -143.001 -380.001c-80 -78.667 -192.333 -118 -337 -118c-16.667 0 -33.667 0.666992 -51 2l-28 244c12.667 -0.666992 25 -1 37 -1c112 0 188.667 19.667 230 59
c42.667 40.667 64 106 64 196v16c-38 -60 -96.333 -90 -175 -90h-14c-86 4 -152.667 37.833 -200 101.5s-73.166 153 -77.499 268s-10.833 336.5 -19.5 664.5z" />
    <glyph glyph-name="z" unicode="z" horiz-adv-x="685" 
d="M45 1082c58.667 -1.33301 124.333 -2 197 -2c116.667 0 251.667 1.66699 405 5l5 -204l-356 -600h356l-3 -219c-167.333 0 -371 -3.33301 -611 -10l-8 194l373 635c-119.333 0 -237 -4.33301 -353 -13z" />
    <glyph glyph-name="braceleft" unicode="{" horiz-adv-x="830" 
d="M790 50v-250.002h-100c-266.667 0 -400 133.333 -400 400v270c0 100 -83.333 150 -250 150v250c166.667 0 250 50 250 150v280c0 266.667 133.333 400 400 400h100v-250h-100c-100 0 -150 -50 -150 -150v-300c0 -133.333 -66.667 -216.666 -200 -249.999
c133.333 -33.333 200 -116.666 200 -249.999v-300c0 -100 50 -150 150 -150h100z" />
    <glyph glyph-name="bar" unicode="|" horiz-adv-x="330" 
d="M290 1700v-1900h-250v1900h250z" />
    <glyph glyph-name="braceright" unicode="}" horiz-adv-x="830" 
d="M140 50c100 0 150 50.002 150 150.002v300c0 133.333 66.667 216.666 200 249.999c-133.333 33.333 -200 116.666 -200 249.999v300c0 100 -50 150 -150 150h-100v250h100c266.667 0 400 -133.333 400 -400v-280c0 -100 83.333 -150 250 -150v-250
c-166.667 0 -250 -50 -250 -150v-270c0 -266.667 -133.333 -400 -400 -400h-100v250h100z" />
    <glyph glyph-name="asciitilde" unicode="~" horiz-adv-x="883" 
d="M50 614c0 244 81.334 366 244.001 366c81.333 0 144.333 -30.333 189 -91c37.333 -51.333 71.666 -77 102.999 -77c6.66699 0 13 1.33301 19 4c36.667 12 55 66.667 55 164h183c0 -244 -81.333 -366 -244 -366c-81.333 0 -146.333 30.667 -195 92
c-40.667 50.667 -75.667 76 -105 76c-6 0 -11.667 -1 -17 -3c-32.667 -12.667 -49 -67.667 -49 -165h-183z" />
    <glyph glyph-name="uni00A0" unicode="&#xa0;" horiz-adv-x="373" 
 />
    <glyph glyph-name="exclamdown" unicode="&#xa1;" horiz-adv-x="335" 
d="M174 1099c40 0 74.333 -14.333 103 -43s43 -63 43 -103c0 -40.667 -14.333 -75.334 -43 -104.001s-63 -43 -103 -43c-40.667 0 -75.334 14.333 -104.001 43s-43 63.334 -43 104.001c0 40 14.333 74.333 43 103s63.334 43 104.001 43zM51 -309
c9.33301 339.333 15.667 674.667 19 1006l222 5l23 -1011h-264z" />
    <glyph glyph-name="cent" unicode="&#xa2;" horiz-adv-x="730" 
d="M687 857c0 -210 -84.666 -329.668 -253.999 -359.001v-198h-150v195c-168.667 30.667 -253 189.334 -253 476.001v30c5.33301 296 89.666 465.667 252.999 509v190h150v-182c163.333 -20.667 245 -135 245 -343c0 -12.667 -0.333008 -25.667 -1 -39l-215 -16v24
c0 121.333 -34.333 182 -103 182c-70 0 -105 -98.333 -105 -295v-33c4 -212.667 39.333 -319 106 -319h6c58 4.66699 87 49 87 133c0 18 -1.33301 38 -4 60z" />
    <glyph glyph-name="sterling" unicode="&#xa3;" horiz-adv-x="919" 
d="M600 1040l0.000976562 27.999c0 138 -31.333 207 -94 207h-11c-73.333 -9.33301 -110 -75.666 -110 -198.999v-10c1.33301 -78.667 5.33301 -154 12 -226h293v-220h-267v-11c0 -82.667 -15 -171.667 -45 -267c26 -2.66699 52.667 -4 80 -4c109.333 0 225 21.667 347 65
l74 -248c-126 -42.667 -242 -66.334 -348 -71.001c-43.333 -2 -96.333 -3 -159 -3c-88.667 0 -196 2 -322 6l-7 253l144 -1c13.333 62.667 20 122.334 20 179.001c0 35.333 -2.66699 69.333 -8 102h-159v220h102c-12.667 67.333 -19.334 137.333 -20.001 210v9
c0 116.667 25.667 215 77 295c52.667 81.333 122.667 130 210 146c35.333 6 69 9 101 9c46 0 87.667 -6.33301 125 -19c64 -22.667 116.333 -71.334 157 -146.001c32.667 -61.333 49 -138.333 49 -231c0 -21.333 -1 -43.666 -3 -66.999z" />
    <glyph glyph-name="yen" unicode="&#xa5;" horiz-adv-x="1033" 
d="M381 75l4 235h-328v170h331l2 130h-333v170h295c-132.667 282.667 -236.667 515.667 -312 699l282 29l191 -558c86 268 155 467.667 207 599h273l-311 -769h275v-170h-316v-130h316v-170h-316v-223z" />
    <glyph glyph-name="dieresis" unicode="&#xa8;" horiz-adv-x="777" 
d="M186 1245c-40 0 -74.333 14.333 -103 43s-43 63 -43 103c0 40.667 14.333 75.334 43 104.001s63 43 103 43c40.667 0 75.334 -14.333 104.001 -43s43 -63.334 43 -104.001c0 -40 -14.333 -74.333 -43 -103s-63.334 -43 -104.001 -43zM596 1245
c-40 0 -74.333 14.333 -103 43s-43 63 -43 103c0 40.667 14.333 75.334 43 104.001s63 43 103 43c40.667 0 75.334 -14.333 104.001 -43s43 -63.334 43 -104.001c0 -40 -14.333 -74.333 -43 -103s-63.334 -43 -104.001 -43z" />
    <glyph glyph-name="copyright" unicode="&#xa9;" horiz-adv-x="1108" 
d="M763 769l-114.999 0.999023c-4 58.667 -15.667 95.334 -35 110.001c-8 5.33301 -16 8 -24 8c-12.667 0 -26 -7 -40 -21c-22.667 -23.333 -34.334 -87.666 -35.001 -192.999c-0.666992 -2.66699 -1 -5.33398 -1 -8.00098c0 -100.667 20.667 -152 62 -154
c0.666992 -0.666992 1.66699 -1 3 -1c39.333 0 60.666 43 63.999 129l126 -3c-9.33301 -138.667 -49.333 -219.334 -120 -242.001c-28 -8.66699 -54 -13 -78 -13c-37.333 0 -69.333 10.667 -96 32c-45.333 34.667 -74.666 83.334 -87.999 146.001c-10 45.333 -15 91 -15 137
c0 17.333 0.666992 35.333 2 54c5.33301 70.667 27.5 131 66.5 181s87.5 75.333 145.5 76h1c57.333 0 100.5 -17.667 129.5 -53s44.833 -97.333 47.5 -186zM582.001 1111h-19.002c-105.333 0 -183 -32 -233 -96c-53.333 -68.667 -88.666 -149 -105.999 -241
c-7.33301 -36 -11 -71.667 -11 -107c0 -56 8.66699 -111.333 26 -166c27.333 -90 87.333 -153.333 180 -190c54.667 -22 109.334 -33 164.001 -33c38.667 0 77.334 5.33301 116.001 16c93.333 26 156.333 78.667 189 158c25.333 62.667 38 136.667 38 222
c0 22.667 -1 46.334 -3 71.001c-8.66699 115.333 -38.834 204.166 -90.501 266.499s-135.167 95.5 -250.5 99.5zM597.999 1248c167.333 -8.66699 281.667 -54.501 343 -137.501s98 -201.5 110 -355.5c2 -34 3 -67 3 -99c0 -110.667 -15.667 -206 -47 -286
c-41.333 -103.333 -127.333 -174 -258 -212c-58.667 -17.333 -117 -26 -175 -26c-70.667 0 -141 13 -211 39c-126.667 46.667 -210.334 131.334 -251.001 254.001c-27.333 81.333 -41 163 -41 245c0 41.333 3.33301 82.666 10 123.999
c20.667 122.667 70.334 231.334 149.001 326.001c72 86 181 129 327 129c13.333 0 27 -0.333008 41 -1z" />
    <glyph glyph-name="guillemotleft" unicode="&#xab;" horiz-adv-x="936" 
d="M50 700l230 400h220l-200 -400l200 -400h-220zM446 700l230 400h220l-200 -400l200 -400h-220z" />
    <glyph glyph-name="logicalnot" unicode="&#xac;" horiz-adv-x="920" 
d="M40 630v250h840v-550h-250v300h-590z" />
    <glyph glyph-name="registered" unicode="&#xae;" horiz-adv-x="1108" 
d="M577 1099h-19c-104 0 -181 -31.667 -231 -95c-52.667 -68 -87.667 -147.333 -105 -238c-6.66699 -35.333 -10 -70.333 -10 -105c0 -55.333 8.66699 -110.333 26 -165c27.333 -89.333 87 -152.333 179 -189c53.333 -22 107.333 -33 162 -33c38 0 76 5.33301 114 16
c92.667 26 155 78.333 187 157c24.667 62 37 135.667 37 221c0 22 -0.666992 45 -2 69c-8.66699 114.667 -38.667 202.667 -90 264s-134 94 -248 98zM598 1248c167.333 -8.66699 281.667 -54.501 343 -137.501s98 -201.5 110 -355.5c2 -34 3 -67 3 -99
c0 -110.667 -15.667 -206 -47 -286c-41.333 -103.333 -127.333 -174 -258 -212c-58.667 -17.333 -117 -26 -175 -26c-70.667 0 -141 13 -211 39c-126.667 46.667 -210.334 131.334 -251.001 254.001c-27.333 81.333 -41 163 -41 245c0 41.333 3.33301 82.666 10 123.999
c20.667 122.667 70.334 231.334 149.001 326.001c72 86 181 129 327 129c13.333 0 27 -0.333008 41 -1zM507.001 877.999l2.00098 -177h7c26.667 0 50.667 7.33301 72 22c23.333 16 35 41 35 75s-8.66699 57.333 -26 70c-12 8 -30.333 12 -55 12
c-10.667 0 -22.334 -0.666992 -35.001 -2zM375.002 411.999l0.000976562 145c0 145.333 -0.666992 293 -2 443c43.333 3.33301 82.666 5 117.999 5c54 0 98 -3.66699 132 -11c56 -12.667 93.333 -41.667 112 -87c11.333 -28.667 17 -56.667 17 -84c0 -18 -2 -35.333 -6 -52
c-12 -45.333 -41 -77.333 -87 -96c50 -10.667 80.167 -33 90.5 -67s15.5 -98.333 15.5 -193l-136 -4c0.666992 12 1 23.333 1 34c0 64 -8.33301 105.667 -25 125c-17.333 19.333 -44.333 29 -81 29c-6 0 -12.667 -0.333008 -20 -1l1 -184z" />
    <glyph glyph-name="degree" unicode="&#xb0;" horiz-adv-x="690" 
d="M650 1130c0 -82.667 -29.333 -153.334 -88 -212.001s-129.334 -88 -212.001 -88s-153.334 29.333 -212.001 88s-88 129.334 -88 212.001s29.333 153.334 88 212.001s129.334 88 212.001 88s153.334 -29.333 212.001 -88s88 -129.334 88 -212.001zM350 1265
c-37.333 0 -69.166 -13.167 -95.499 -39.5s-39.5 -58.166 -39.5 -95.499s13.167 -69.166 39.5 -95.499s58.166 -39.5 95.499 -39.5s69.166 13.167 95.499 39.5s39.5 58.166 39.5 95.499s-13.167 69.166 -39.5 95.499s-58.166 39.5 -95.499 39.5z" />
    <glyph glyph-name="plusminus" unicode="&#xb1;" horiz-adv-x="920" 
d="M40 780v250h290v290h250v-290h300v-250h-300v-300h-250v300h-290zM40 50v250h840v-250h-840z" />
    <glyph glyph-name="acute" unicode="&#xb4;" horiz-adv-x="395" 
d="M18 1301c78 92.667 142.001 181 192.001 265l164 -130c-70.667 -69.333 -149.334 -154.333 -236.001 -255z" />
    <glyph glyph-name="mu" unicode="&#xb5;" horiz-adv-x="786" 
d="M559 50l-9.99902 133.001c-34.667 -66.667 -77.667 -103.334 -129 -110.001c-6.66699 -1.33301 -13.334 -2 -20.001 -2c-42.667 0 -79.667 19.667 -111 59l1 -460l-250 -10c8.66699 339.333 13 671 13 995c0 154 -1 306 -3 456h233c-3.33301 -168 -5 -306.667 -5 -416
c0 -108.667 1.66699 -188 5 -238c6.66699 -100.667 38.667 -151 96 -151s93.333 27 108 81l-10 684l235 2c0 -286.667 10.333 -620.667 31 -1002z" />
    <glyph glyph-name="paragraph" unicode="&#xb6;" horiz-adv-x="1130" 
d="M1090 1470v-1450h-250v1200h-150v-1200h-250v670c-266.667 0 -400 130 -400 390s130 390 390 390h660z" />
    <glyph glyph-name="periodcentered" unicode="&#xb7;" horiz-adv-x="381" 
d="M163 629c-34 0 -63.167 12.167 -87.5 36.5s-36.5 53.5 -36.5 87.5c0 34.667 12.167 64.167 36.5 88.5s53.5 36.5 87.5 36.5c34.667 0 64.167 -12.167 88.5 -36.5s36.5 -53.833 36.5 -88.5c0 -34 -12.167 -63.167 -36.5 -87.5s-53.833 -36.5 -88.5 -36.5z" />
    <glyph glyph-name="cedilla" unicode="&#xb8;" horiz-adv-x="429" 
d="M139 -237l-88.999 8.99805c6.66699 104 12.667 181.333 18 232h122l-9 -89c17.333 14 37 21 59 21c12 0 24.667 -2 38 -6c37.333 -11.333 65.333 -37.666 84 -78.999c11.333 -26.667 17 -54 17 -82c0 -16.667 -2 -33.667 -6 -51
c-10.667 -46.667 -39.334 -82 -86.001 -106c-30 -15.333 -71 -23 -123 -23c-30 0 -64 2.66699 -102 8l-10 119c37.333 -4 69 -6 95 -6c42 0 69.667 5 83 15c14 10.667 21 23 21 37c0 6.66699 -1.33301 13.334 -4 20.001c-8 18 -22 27 -42 27
c-4.66699 0 -9.33398 -0.333008 -14.001 -1c-27.333 -4.66699 -44.666 -19.667 -51.999 -45z" />
    <glyph glyph-name="guillemotright" unicode="&#xbb;" horiz-adv-x="936" 
d="M270 300h-220l200 400l-200 400h220l230 -400zM666 300h-220l200 400l-200 400h220l230 -400z" />
    <glyph glyph-name="questiondown" unicode="&#xbf;" horiz-adv-x="855" 
d="M791 142c3.33301 -40 5 -77 5 -111c0 -119.333 -21.333 -205 -64 -257c-56 -68 -126.667 -108.333 -212 -121c-31.333 -5.33301 -61.666 -8 -90.999 -8c-52.667 0 -103.334 7.66699 -152.001 23c-76 22.667 -133 68.334 -171 137.001c-34.667 62 -52 141 -52 237
c0 10.667 0.333008 21.667 1 33c4 111.333 26.5 203.5 67.5 276.5s103.167 125.833 186.5 158.5l3 183l213 4l3 -333c-108 -16 -174 -63.333 -198 -142c-16.667 -54.667 -25 -108 -25 -160c0 -22 1.66699 -43.667 5 -65c10 -70 53 -105 129 -105c1.33301 0 3 0.333008 5 1
c66.667 1.33301 100 61.666 100 180.999c0 22.667 -1 47 -3 73zM410 1099c40 0 74.333 -14.333 103 -43s43 -63 43 -103c0 -40.667 -14.333 -75.334 -43 -104.001s-63 -43 -103 -43c-40.667 0 -75.334 14.333 -104.001 43s-43 63.334 -43 104.001c0 40 14.333 74.333 43 103
s63.334 43 104.001 43z" />
    <glyph glyph-name="Agrave" unicode="&#xc0;" horiz-adv-x="960" 
d="M-18 90c125.333 569.333 226.667 1052 304 1448l375 6l316 -1408l-256 -52l-81 379h-311l-84 -409zM632.001 744c-34.667 144 -91.333 316.334 -170 517.001c-60.667 -168.667 -112 -343.334 -154 -524.001zM478.002 1610c-86.667 100.667 -165.333 185.667 -236 255
l164 130c50 -84 114 -172.333 192 -265z" />
    <glyph glyph-name="Aacute" unicode="&#xc1;" horiz-adv-x="960" 
d="M-18 90c125.333 569.333 226.667 1052 304 1448l375 6l316 -1408l-256 -52l-81 379h-311l-84 -409zM632.001 744c-34.667 144 -91.333 316.334 -170 517.001c-60.667 -168.667 -112 -343.334 -154 -524.001zM361.002 1730c78 92.667 142.001 181 192.001 265l164 -130
c-70.667 -69.333 -149.334 -154.333 -236.001 -255z" />
    <glyph glyph-name="Acircumflex" unicode="&#xc2;" horiz-adv-x="960" 
d="M-18 90c125.333 569.333 226.667 1052 304 1448l375 6l316 -1408l-256 -52l-81 379h-311l-84 -409zM632.001 744c-34.667 144 -91.333 316.334 -170 517.001c-60.667 -168.667 -112 -343.334 -154 -524.001zM180.002 1659l180 300h240l180 -300h-200l-100 150l-100 -150
h-200z" />
    <glyph glyph-name="Atilde" unicode="&#xc3;" horiz-adv-x="960" 
d="M-18 90c125.333 569.333 226.667 1052 304 1448l375 6l316 -1408l-256 -52l-81 379h-311l-84 -409zM632.001 744c-34.667 144 -91.333 316.334 -170 517.001c-60.667 -168.667 -112 -343.334 -154 -524.001zM155.002 1669c0 200 66.667 300 200 300
c66.667 0 118.334 -25 155.001 -75c30.667 -41.333 59 -62 85 -62c5.33301 0 10.333 0.666992 15 2c30 10 45 55 45 135h150c0 -200 -66.667 -300 -200 -300c-66.667 0 -120 25 -160 75c-33.333 42 -62 63 -86 63c-4.66699 0 -9.33398 -1 -14.001 -3
c-26.667 -10 -40 -55 -40 -135h-150z" />
    <glyph glyph-name="Adieresis" unicode="&#xc4;" horiz-adv-x="960" 
d="M-18 90c125.333 569.333 226.667 1052 304 1448l375 6l316 -1408l-256 -52l-81 379h-311l-84 -409zM632.001 744c-34.667 144 -91.333 316.334 -170 517.001c-60.667 -168.667 -112 -343.334 -154 -524.001zM274.002 1654c-40 0 -74.333 14.333 -103 43s-43 63 -43 103
c0 40.667 14.333 75.334 43 104.001s63 43 103 43c40.667 0 75.334 -14.333 104.001 -43s43 -63.334 43 -104.001c0 -40 -14.333 -74.333 -43 -103s-63.334 -43 -104.001 -43zM684.002 1654c-40 0 -74.333 14.333 -103 43s-43 63 -43 103c0 40.667 14.333 75.334 43 104.001
s63 43 103 43c40.667 0 75.334 -14.333 104.001 -43s43 -63.334 43 -104.001c0 -40 -14.333 -74.333 -43 -103s-63.334 -43 -104.001 -43z" />
    <glyph glyph-name="Aring" unicode="&#xc5;" horiz-adv-x="960" 
d="M-18 90c125.333 569.333 226.667 1052 304 1448l375 6l316 -1408l-256 -52l-81 379h-311l-84 -409zM632.001 744c-34.667 144 -91.333 316.334 -170 517.001c-60.667 -168.667 -112 -343.334 -154 -524.001zM680.002 1809c0 -55.333 -19.5 -102.5 -58.5 -141.5
s-86.167 -58.5 -141.5 -58.5s-102.5 19.5 -141.5 58.5s-58.5 86.167 -58.5 141.5s19.5 102.5 58.5 141.5s86.167 58.5 141.5 58.5s102.5 -19.5 141.5 -58.5s58.5 -86.167 58.5 -141.5zM480.002 1892c-22.667 0 -42 -8.16699 -58 -24.5s-24 -35.833 -24 -58.5s8 -42 24 -58
s35.333 -24 58 -24s42.167 8 58.5 24s24.5 35.333 24.5 58s-8.16699 42.167 -24.5 58.5s-35.833 24.5 -58.5 24.5z" />
    <glyph glyph-name="AE" unicode="&#xc6;" horiz-adv-x="1376" 
d="M1261 1208l-395 16v-328l355 10l9 -271h-317v-254h415v-284l-692 10c4.66699 118 7.66699 236.667 9 356h-276l-84 -409l-263 36l304 1378l935 22v-282zM636 1232l-124 -0.999023c-47.333 -148.667 -92 -313.334 -134 -494.001l268 6z" />
    <glyph glyph-name="Ccedilla" unicode="&#xc7;" horiz-adv-x="885" 
d="M594 977l0.000976562 26.999c0 156.667 -44 235 -132 235c-94 0 -141 -144.667 -141 -434c0 -326 49.333 -489 148 -489h1c98.667 0.666992 148 80.667 148 240v99h248v-75c0 -315.333 -123 -488 -369 -518l-9 -87c17.333 14 37 21 59 21c12 0 24.667 -2 38 -6
c37.333 -11.333 65.333 -37.666 84 -78.999c11.333 -26.667 17 -54 17 -82c0 -16.667 -2 -33.667 -6 -51c-10.667 -46.667 -39.334 -82 -86.001 -106c-30 -15.333 -71 -23 -123 -23c-30 0 -64 2.66699 -102 8l-10 119c37.333 -4 69 -6 95 -6c42 0 69.667 5 83 15
c14 10.667 21 23 21 37c0 6.66699 -1.33301 13.334 -4 20.001c-8 18 -22 27 -42 27c-4.66699 0 -9.33398 -0.333008 -14.001 -1c-27.333 -4.66699 -44.666 -19.667 -51.999 -45l-89 9c6.66699 103.333 12.667 180 18 230c-218 35.333 -327 280.666 -327 735.999
c0 482.667 132 724 396 724c248.667 0 373 -161.333 373 -484c0 -19.333 -0.333008 -39.333 -1 -60z" />
    <glyph glyph-name="Egrave" unicode="&#xc8;" horiz-adv-x="798" 
d="M683 1490l-0.000976562 -282l-395 16v-328l355 10l9 -271h-317v-254h415v-284l-692 10c7.33301 187.333 11 376 11 566c0 263.333 -7 529 -21 797c150.667 6 362.334 12.667 635.001 20zM397.999 1560c-86.667 100.667 -165.333 185.667 -236 255l164 130
c50 -84 114 -172.333 192 -265z" />
    <glyph glyph-name="Eacute" unicode="&#xc9;" horiz-adv-x="798" 
d="M683 1490l-0.000976562 -282l-395 16v-328l355 10l9 -271h-317v-254h415v-284l-692 10c7.33301 187.333 11 376 11 566c0 263.333 -7 529 -21 797c150.667 6 362.334 12.667 635.001 20zM279.999 1680c78 92.667 142.001 181 192.001 265l164 -130
c-70.667 -69.333 -149.334 -154.333 -236.001 -255z" />
    <glyph glyph-name="Ecircumflex" unicode="&#xca;" horiz-adv-x="798" 
d="M683 1490l-0.000976562 -282l-395 16v-328l355 10l9 -271h-317v-254h415v-284l-692 10c7.33301 187.333 11 376 11 566c0 263.333 -7 529 -21 797c150.667 6 362.334 12.667 635.001 20zM98.999 1629l180 300h240l180 -300h-200l-100 150l-100 -150h-200z" />
    <glyph glyph-name="Edieresis" unicode="&#xcb;" horiz-adv-x="798" 
d="M684 1490l-0.000976562 -282l-395 16v-328l355 10l9 -271h-317v-254h415v-284l-692 10c7.33301 187.333 11 376 11 566c0 263.333 -7 529 -21 797c150.667 6 362.334 12.667 635.001 20zM193.999 1604c-40 0 -74.333 14.333 -103 43s-43 63 -43 103
c0 40.667 14.333 75.334 43 104.001s63 43 103 43c40.667 0 75.334 -14.333 104.001 -43s43 -63.334 43 -104.001c0 -40 -14.333 -74.333 -43 -103s-63.334 -43 -104.001 -43zM603.999 1604c-40 0 -74.333 14.333 -103 43s-43 63 -43 103c0 40.667 14.333 75.334 43 104.001
s63 43 103 43c40.667 0 75.334 -14.333 104.001 -43s43 -63.334 43 -104.001c0 -40 -14.333 -74.333 -43 -103s-63.334 -43 -104.001 -43z" />
    <glyph glyph-name="Igrave" unicode="&#xcc;" horiz-adv-x="381" 
d="M321 127l-249 -22.998c0 489.333 -8 948.666 -24 1378l285 24c-7.33301 -452.667 -11.333 -912.334 -12 -1379zM190 1590c-86.667 100.667 -165.333 185.667 -236 255l164 130c50 -84 114 -172.333 192 -265z" />
    <glyph glyph-name="Iacute" unicode="&#xcd;" horiz-adv-x="381" 
d="M321 127l-249 -22.998c0 489.333 -8 948.666 -24 1378l285 24c-7.33301 -452.667 -11.333 -912.334 -12 -1379zM72 1710c78 92.667 142.001 181 192.001 265l164 -130c-70.667 -69.333 -149.334 -154.333 -236.001 -255z" />
    <glyph glyph-name="Icircumflex" unicode="&#xce;" horiz-adv-x="381" 
d="M322 127l-249 -22.998c0 489.333 -8 948.666 -24 1378l285 24c-7.33301 -452.667 -11.333 -912.334 -12 -1379zM-108 1659l180 300h240l180 -300h-200l-100 150l-100 -150h-200z" />
    <glyph glyph-name="Idieresis" unicode="&#xcf;" horiz-adv-x="381" 
d="M321 127l-249 -22.998c0 489.333 -8 948.666 -24 1378l285 24c-7.33301 -452.667 -11.333 -912.334 -12 -1379zM-14 1654c-40 0 -74.333 14.333 -103 43s-43 63 -43 103c0 40.667 14.333 75.334 43 104.001s63 43 103 43c40.667 0 75.334 -14.333 104.001 -43
s43 -63.334 43 -104.001c0 -40 -14.333 -74.333 -43 -103s-63.334 -43 -104.001 -43zM396 1654c-40 0 -74.333 14.333 -103 43s-43 63 -43 103c0 40.667 14.333 75.334 43 104.001s63 43 103 43c40.667 0 75.334 -14.333 104.001 -43s43 -63.334 43 -104.001
c0 -40 -14.333 -74.333 -43 -103s-63.334 -43 -104.001 -43z" />
    <glyph glyph-name="Eth" unicode="&#xd0;" horiz-adv-x="875" 
d="M48 88c1.33301 201.333 1.99902 408.666 1.99902 621.999h-140v170h140l-2 637c76.667 9.33301 147.334 14 212.001 14c180 0 312.667 -36 398 -108c116 -98.667 176.667 -281 182 -547v-72c0 -228 -22 -390.667 -66 -488
c-48.667 -107.333 -137.667 -178.666 -267 -213.999c-74.667 -20.667 -156.667 -31 -246 -31c-66.667 0 -137.667 5.66699 -213 17zM281.999 880l128.002 0.000976562v-170h-131c-0.666992 -38.667 -1 -77.334 -1 -116.001c0 -76.667 1 -152.334 3 -227.001
c23.333 -5.33301 45.666 -8 66.999 -8c58.667 0 108 20.333 148 61c54.667 54.667 82 177.334 82 368.001v4c-0.666992 192 -27.334 318 -80.001 378c-40.667 45.333 -89 68 -145 68c-18 0 -37 -2.33301 -57 -7z" />
    <glyph glyph-name="Ntilde" unicode="&#xd1;" horiz-adv-x="947" 
d="M52 79c8 228 12 450 12 666c0 249.333 -5.33301 491 -16 725l294 14l270 -753c-2.66699 258.667 -10 523.334 -22 794.001l309 4c-30.667 -408.667 -46 -821.334 -46 -1238c0 -56 0.333008 -112 1 -168l-271 -3l-288 806l24 -829zM149 1669c0 200 66.667 300 200 300
c66.667 0 118.334 -25 155.001 -75c30.667 -41.333 59 -62 85 -62c5.33301 0 10.333 0.666992 15 2c30 10 45 55 45 135h150c0 -200 -66.667 -300 -200 -300c-66.667 0 -120 25 -160 75c-33.333 42 -62 63 -86 63c-4.66699 0 -9.33398 -1 -14.001 -3
c-26.667 -10 -40 -55 -40 -135h-150z" />
    <glyph glyph-name="Ograve" unicode="&#xd2;" horiz-adv-x="952" 
d="M507 1524c280.667 0 421 -240 421 -720c0 -480.667 -150.333 -721 -451 -721s-451 249 -451 747c0 462.667 160.333 694 481 694zM307 777c-0.666992 -17.333 -0.999023 -34 -0.999023 -50c0 -251.333 58.667 -377 176 -377c124.667 0 187 142.333 187 427
s-58 427 -174 427c-116.667 0 -179.334 -142.333 -188.001 -427zM476.001 1600c-86.667 100.667 -165.333 185.667 -236 255l164 130c50 -84 114 -172.333 192 -265z" />
    <glyph glyph-name="Oacute" unicode="&#xd3;" horiz-adv-x="952" 
d="M507 1524c280.667 0 421 -240 421 -720c0 -480.667 -150.333 -721 -451 -721s-451 249 -451 747c0 462.667 160.333 694 481 694zM307 777c-0.666992 -17.333 -0.999023 -34 -0.999023 -50c0 -251.333 58.667 -377 176 -377c124.667 0 187 142.333 187 427
s-58 427 -174 427c-116.667 0 -179.334 -142.333 -188.001 -427zM358.001 1720c78 92.667 142.001 181 192.001 265l164 -130c-70.667 -69.333 -149.334 -154.333 -236.001 -255z" />
    <glyph glyph-name="Ocircumflex" unicode="&#xd4;" horiz-adv-x="952" 
d="M507 1524c280.667 0 421 -240 421 -720c0 -480.667 -150.333 -721 -451 -721s-451 249 -451 747c0 462.667 160.333 694 481 694zM307 777c-0.666992 -17.333 -0.999023 -34 -0.999023 -50c0 -251.333 58.667 -377 176 -377c124.667 0 187 142.333 187 427
s-58 427 -174 427c-116.667 0 -179.334 -142.333 -188.001 -427zM177.001 1609l180 300h240l180 -300h-200l-100 150l-100 -150h-200z" />
    <glyph glyph-name="Otilde" unicode="&#xd5;" horiz-adv-x="952" 
d="M507 1524c280.667 0 421 -240 421 -720c0 -480.667 -150.333 -721 -451 -721s-451 249 -451 747c0 462.667 160.333 694 481 694zM307 777c-0.666992 -17.333 -0.999023 -34 -0.999023 -50c0 -251.333 58.667 -377 176 -377c124.667 0 187 142.333 187 427
s-58 427 -174 427c-116.667 0 -179.334 -142.333 -188.001 -427zM152.001 1619c0 200 66.667 300 200 300c66.667 0 118.334 -25 155.001 -75c30.667 -41.333 59 -62 85 -62c5.33301 0 10.333 0.666992 15 2c30 10 45 55 45 135h150c0 -200 -66.667 -300 -200 -300
c-66.667 0 -120 25 -160 75c-33.333 42 -62 63 -86 63c-4.66699 0 -9.33398 -1 -14.001 -3c-26.667 -10 -40 -55 -40 -135h-150z" />
    <glyph glyph-name="Odieresis" unicode="&#xd6;" horiz-adv-x="952" 
d="M507 1524c280.667 0 421 -240 421 -720c0 -480.667 -150.333 -721 -451 -721s-451 249 -451 747c0 462.667 160.333 694 481 694zM307 777c-0.666992 -17.333 -0.999023 -34 -0.999023 -50c0 -251.333 58.667 -377 176 -377c124.667 0 187 142.333 187 427
s-58 427 -174 427c-116.667 0 -179.334 -142.333 -188.001 -427zM272.001 1614c-40 0 -74.333 14.333 -103 43s-43 63 -43 103c0 40.667 14.333 75.334 43 104.001s63 43 103 43c40.667 0 75.334 -14.333 104.001 -43s43 -63.334 43 -104.001
c0 -40 -14.333 -74.333 -43 -103s-63.334 -43 -104.001 -43zM682.001 1614c-40 0 -74.333 14.333 -103 43s-43 63 -43 103c0 40.667 14.333 75.334 43 104.001s63 43 103 43c40.667 0 75.334 -14.333 104.001 -43s43 -63.334 43 -104.001c0 -40 -14.333 -74.333 -43 -103
s-63.334 -43 -104.001 -43z" />
    <glyph glyph-name="multiply" unicode="&#xd7;" horiz-adv-x="993" 
d="M217 297l-177 177l276 276l-276 276l177 177l276 -276l282 283l177 -177l-283 -283l283 -283l-177 -177l-282 283z" />
    <glyph glyph-name="Oslash" unicode="&#xd8;" horiz-adv-x="952" 
d="M507 1524c42.667 0 82.333 -5.66699 119 -17l47 173l119 -36l-54 -198c126.667 -106 190 -320 190 -642c0 -480.667 -150.333 -721 -451 -721c-39.333 0 -76 4 -110 12l-45 -165l-112 36l48 177c-154.667 100.667 -232 329.667 -232 687c0 462.667 160.333 694 481 694z
M306.999 777c-0.666992 -17.333 -1 -34.333 -1 -51c0 -115.333 12.333 -204.333 37 -267l199 736c-14.667 6 -30.667 9 -48 9c-116 0 -178.333 -142.333 -187 -427zM668.999 777c0 125.333 -11.332 223.333 -33.999 294l-196 -715c13.333 -4 27.666 -6 42.999 -6
c124.667 0 187 142.333 187 427z" />
    <glyph glyph-name="Ugrave" unicode="&#xd9;" horiz-adv-x="912" 
d="M864 1516v-989.001c0 -304.667 -139.333 -457 -418 -457h-22c-233.333 26.667 -354 154.334 -362 383.001c0 456.667 -4.66699 816.667 -14 1080h266c-6.66699 -150.667 -10 -327.667 -10 -531c0 -142.667 1.66699 -298.667 5 -468c1.33301 -124 46 -186 134 -186
c0 -0.666992 0.333008 -1 1 -1c87.333 0 131 79.333 131 238l-5 922zM455 1590c-86.667 100.667 -165.333 185.667 -236 255l164 130c50 -84 114 -172.333 192 -265z" />
    <glyph glyph-name="Uacute" unicode="&#xda;" horiz-adv-x="912" 
d="M864 1516v-989.001c0 -304.667 -139.333 -457 -418 -457h-22c-233.333 26.667 -354 154.334 -362 383.001c0 456.667 -4.66699 816.667 -14 1080h266c-6.66699 -150.667 -10 -327.667 -10 -531c0 -142.667 1.66699 -298.667 5 -468c1.33301 -124 46 -186 134 -186
c0 -0.666992 0.333008 -1 1 -1c87.333 0 131 79.333 131 238l-5 922zM337 1710c78 92.667 142.001 181 192.001 265l164 -130c-70.667 -69.333 -149.334 -154.333 -236.001 -255z" />
    <glyph glyph-name="Ucircumflex" unicode="&#xdb;" horiz-adv-x="912" 
d="M864 1516v-989.001c0 -304.667 -139.333 -457 -418 -457h-22c-233.333 26.667 -354 154.334 -362 383.001c0 456.667 -4.66699 816.667 -14 1080h266c-6.66699 -150.667 -10 -327.667 -10 -531c0 -142.667 1.66699 -298.667 5 -468c1.33301 -124 46 -186 134 -186
c0 -0.666992 0.333008 -1 1 -1c87.333 0 131 79.333 131 238l-5 922zM156 1659l180 300h240l180 -300h-200l-100 150l-100 -150h-200z" />
    <glyph glyph-name="Udieresis" unicode="&#xdc;" horiz-adv-x="912" 
d="M864 1516v-989.001c0 -304.667 -139.333 -457 -418 -457h-22c-233.333 26.667 -354 154.334 -362 383.001c0 456.667 -4.66699 816.667 -14 1080h266c-6.66699 -150.667 -10 -327.667 -10 -531c0 -142.667 1.66699 -298.667 5 -468c1.33301 -124 46 -186 134 -186
c0 -0.666992 0.333008 -1 1 -1c87.333 0 131 79.333 131 238l-5 922zM251 1634c-40 0 -74.333 14.333 -103 43s-43 63 -43 103c0 40.667 14.333 75.334 43 104.001s63 43 103 43c40.667 0 75.334 -14.333 104.001 -43s43 -63.334 43 -104.001
c0 -40 -14.333 -74.333 -43 -103s-63.334 -43 -104.001 -43zM661 1634c-40 0 -74.333 14.333 -103 43s-43 63 -43 103c0 40.667 14.333 75.334 43 104.001s63 43 103 43c40.667 0 75.334 -14.333 104.001 -43s43 -63.334 43 -104.001c0 -40 -14.333 -74.333 -43 -103
s-63.334 -43 -104.001 -43z" />
    <glyph glyph-name="Yacute" unicode="&#xdd;" horiz-adv-x="835" 
d="M304 75l11 620.001c-152 321.333 -269.333 582.666 -352 783.999l282 29l191 -558c86 268 155 467.667 207 599h273l-352 -873v-589zM321 1710c78 92.667 142.001 181 192.001 265l164 -130c-70.667 -69.333 -149.334 -154.333 -236.001 -255z" />
    <glyph glyph-name="Thorn" unicode="&#xde;" horiz-adv-x="879" 
d="M56 80c0.666992 123.333 1.00195 248.668 1.00195 376.001c0 331.333 -3 676.666 -9 1036l252 18v-230c45.333 12.667 89.666 19 132.999 19c78 0 153.667 -21 227 -63c107.333 -62 161 -189 161 -381v-33c-6.66699 -210.667 -54.334 -345.5 -143.001 -404.5
s-204.667 -90.5 -348 -94.5l6 -237zM312.002 1040l6.99902 -488.999c124 6.66699 196.667 51 218 133c10 37.333 15 75.666 15 114.999c0 46 -6.66699 93.333 -20 142c-20 71.333 -70 107 -150 107c-21.333 0 -44.666 -2.66699 -69.999 -8z" />
    <glyph glyph-name="germandbls" unicode="&#xdf;" horiz-adv-x="891" 
d="M286 89l-246.001 -4.00293l1 1051c7.33301 248.667 93.333 383.334 258 404.001c44 5.33301 84.667 8 122 8c104 0 184 -20.667 240 -62c76.667 -56 121 -137.333 133 -244c2.66699 -27.333 4 -53.666 4 -78.999c0 -72.667 -12.333 -135.667 -37 -189
c-34 -72.667 -94.333 -124.667 -181 -156c96.667 -14.667 166 -49.667 208 -105c35.333 -46.667 53 -113.334 53 -200.001c0 -16.667 -0.666992 -34 -2 -52c-8 -113.333 -43.833 -198 -107.5 -254s-152.167 -94.333 -265.5 -115c-33.333 -6 -66.666 -10.667 -99.999 -14
l-3 260c109.333 2 180 36 212 102c18 38 27 72.333 27 103c0 30 -8.66699 56.333 -26 79c-28 36.667 -91.667 55 -191 55h-26l-2 230c81.333 2.66699 137.333 39.334 168 110.001c15.333 36 23 71.333 23 106c0 32.667 -7 64.334 -21 95.001c-26.667 58.667 -71 88 -133 88
h-13c-63.333 -4 -95 -56.333 -95 -157c0 -9.33301 0.333008 -19.333 1 -30z" />
    <glyph glyph-name="agrave" unicode="&#xe0;" horiz-adv-x="796" 
d="M427 1106c219.333 -12 329 -122.332 329 -330.999v-710l-233 -4l-8 95c-48 -54.667 -111.667 -82 -191 -82c-34 0 -70.667 5.33301 -110 16c-118 29.333 -177 120.666 -177 273.999c0 18.667 1 38.667 3 60c13.333 158 125.666 237 336.999 237
c40.667 0 85.334 -3 134.001 -9v116c0 94 -29.667 141 -89 141h-4c-4.66699 0.666992 -9 1 -13 1c-64.667 0 -97 -52.667 -97 -158v-15l-238 20c0 232.667 112 349 336 349h21zM511 316.001l-0.000976562 176.001c-28.667 6 -54.667 9 -78 9
c-60.667 0 -102 -20.333 -124 -61c-13.333 -24.667 -20 -47.667 -20 -69c0 -26.667 10.667 -50.334 32 -71.001c16.667 -16 38.334 -24 65.001 -24c34 0 75.667 13.333 125 40zM394.999 1162c-86.667 100.667 -165.333 185.667 -236 255l164 130
c50 -84 114 -172.333 192 -265z" />
    <glyph glyph-name="aacute" unicode="&#xe1;" horiz-adv-x="796" 
d="M427 1106c219.333 -12 329 -122.332 329 -330.999v-710l-233 -4l-8 95c-48 -54.667 -111.667 -82 -191 -82c-34 0 -70.667 5.33301 -110 16c-118 29.333 -177 120.666 -177 273.999c0 18.667 1 38.667 3 60c13.333 158 125.666 237 336.999 237
c40.667 0 85.334 -3 134.001 -9v116c0 94 -29.667 141 -89 141h-4c-4.66699 0.666992 -9 1 -13 1c-64.667 0 -97 -52.667 -97 -158v-15l-238 20c0 232.667 112 349 336 349h21zM511 316.001l-0.000976562 176.001c-28.667 6 -54.667 9 -78 9
c-60.667 0 -102 -20.333 -124 -61c-13.333 -24.667 -20 -47.667 -20 -69c0 -26.667 10.667 -50.334 32 -71.001c16.667 -16 38.334 -24 65.001 -24c34 0 75.667 13.333 125 40zM277.999 1282c78 92.667 142.001 181 192.001 265l164 -130
c-70.667 -69.333 -149.334 -154.333 -236.001 -255z" />
    <glyph glyph-name="acircumflex" unicode="&#xe2;" horiz-adv-x="796" 
d="M427 1106c219.333 -12 329 -122.332 329 -330.999v-710l-233 -4l-8 95c-48 -54.667 -111.667 -82 -191 -82c-34 0 -70.667 5.33301 -110 16c-118 29.333 -177 120.666 -177 273.999c0 18.667 1 38.667 3 60c13.333 158 125.666 237 336.999 237
c40.667 0 85.334 -3 134.001 -9v116c0 94 -29.667 141 -89 141h-4c-4.66699 0.666992 -9 1 -13 1c-64.667 0 -97 -52.667 -97 -158v-15l-238 20c0 232.667 112 349 336 349h21zM511 316.001l-0.000976562 176.001c-28.667 6 -54.667 9 -78 9
c-60.667 0 -102 -20.333 -124 -61c-13.333 -24.667 -20 -47.667 -20 -69c0 -26.667 10.667 -50.334 32 -71.001c16.667 -16 38.334 -24 65.001 -24c34 0 75.667 13.333 125 40zM95.999 1201l180 300h240l180 -300h-200l-100 150l-100 -150h-200z" />
    <glyph glyph-name="atilde" unicode="&#xe3;" horiz-adv-x="796" 
d="M427 1106c219.333 -12 329 -122.332 329 -330.999v-710l-233 -4l-8 95c-48 -54.667 -111.667 -82 -191 -82c-34 0 -70.667 5.33301 -110 16c-118 29.333 -177 120.666 -177 273.999c0 18.667 1 38.667 3 60c13.333 158 125.666 237 336.999 237
c40.667 0 85.334 -3 134.001 -9v116c0 94 -29.667 141 -89 141h-4c-4.66699 0.666992 -9 1 -13 1c-64.667 0 -97 -52.667 -97 -158v-15l-238 20c0 232.667 112 349 336 349h21zM511 316.001l-0.000976562 176.001c-28.667 6 -54.667 9 -78 9
c-60.667 0 -102 -20.333 -124 -61c-13.333 -24.667 -20 -47.667 -20 -69c0 -26.667 10.667 -50.334 32 -71.001c16.667 -16 38.334 -24 65.001 -24c34 0 75.667 13.333 125 40zM70.999 1211c0 200 66.667 300 200 300c66.667 0 118.334 -25 155.001 -75
c30.667 -41.333 59 -62 85 -62c5.33301 0 10.333 0.666992 15 2c30 10 45 55 45 135h150c0 -200 -66.667 -300 -200 -300c-66.667 0 -120 25 -160 75c-33.333 42 -62 63 -86 63c-4.66699 0 -9.33398 -1 -14.001 -3c-26.667 -10 -40 -55 -40 -135h-150z" />
    <glyph glyph-name="adieresis" unicode="&#xe4;" horiz-adv-x="796" 
d="M427 1106c219.333 -12 329 -122.332 329 -330.999v-710l-233 -4l-8 95c-48 -54.667 -111.667 -82 -191 -82c-34 0 -70.667 5.33301 -110 16c-118 29.333 -177 120.666 -177 273.999c0 18.667 1 38.667 3 60c13.333 158 125.666 237 336.999 237
c40.667 0 85.334 -3 134.001 -9v116c0 94 -29.667 141 -89 141h-4c-4.66699 0.666992 -9 1 -13 1c-64.667 0 -97 -52.667 -97 -158v-15l-238 20c0 232.667 112 349 336 349h21zM511 316.001l-0.000976562 176.001c-28.667 6 -54.667 9 -78 9
c-60.667 0 -102 -20.333 -124 -61c-13.333 -24.667 -20 -47.667 -20 -69c0 -26.667 10.667 -50.334 32 -71.001c16.667 -16 38.334 -24 65.001 -24c34 0 75.667 13.333 125 40zM190.999 1196c-40 0 -74.333 14.333 -103 43s-43 63 -43 103
c0 40.667 14.333 75.334 43 104.001s63 43 103 43c40.667 0 75.334 -14.333 104.001 -43s43 -63.334 43 -104.001c0 -40 -14.333 -74.333 -43 -103s-63.334 -43 -104.001 -43zM600.999 1196c-40 0 -74.333 14.333 -103 43s-43 63 -43 103c0 40.667 14.333 75.334 43 104.001
s63 43 103 43c40.667 0 75.334 -14.333 104.001 -43s43 -63.334 43 -104.001c0 -40 -14.333 -74.333 -43 -103s-63.334 -43 -104.001 -43z" />
    <glyph glyph-name="aring" unicode="&#xe5;" horiz-adv-x="796" 
d="M427 1106c219.333 -12 329 -122.332 329 -330.999v-710l-233 -4l-8 95c-48 -54.667 -111.667 -82 -191 -82c-34 0 -70.667 5.33301 -110 16c-118 29.333 -177 120.666 -177 273.999c0 18.667 1 38.667 3 60c13.333 158 125.666 237 336.999 237
c40.667 0 85.334 -3 134.001 -9v116c0 94 -29.667 141 -89 141h-4c-4.66699 0.666992 -9 1 -13 1c-64.667 0 -97 -52.667 -97 -158v-15l-238 20c0 232.667 112 349 336 349h21zM511 316.001l-0.000976562 176.001c-28.667 6 -54.667 9 -78 9
c-60.667 0 -102 -20.333 -124 -61c-13.333 -24.667 -20 -47.667 -20 -69c0 -26.667 10.667 -50.334 32 -71.001c16.667 -16 38.334 -24 65.001 -24c34 0 75.667 13.333 125 40zM595.999 1450c0 -55.333 -19.5 -102.5 -58.5 -141.5s-86.167 -58.5 -141.5 -58.5
s-102.5 19.5 -141.5 58.5s-58.5 86.167 -58.5 141.5s19.5 102.5 58.5 141.5s86.167 58.5 141.5 58.5s102.5 -19.5 141.5 -58.5s58.5 -86.167 58.5 -141.5zM395.999 1533c-22.667 0 -42 -8.16699 -58 -24.5s-24 -35.833 -24 -58.5s8 -42 24 -58s35.333 -24 58 -24
s42.167 8 58.5 24s24.5 35.333 24.5 58s-8.16699 42.167 -24.5 58.5s-35.833 24.5 -58.5 24.5z" />
    <glyph glyph-name="ae" unicode="&#xe6;" horiz-adv-x="1220" 
d="M417 1106c106 -6.66699 183.667 -41.001 233 -103.001c52 49.333 119.333 74 202 74c231.333 0 347 -153.667 347 -461c0 -37.333 -1.66699 -77.333 -5 -120h-447c0 -171.333 33 -257 99 -257h7c58 4.66699 87 49 87 133c0 18 -1.33301 38 -4 60l238 5
c0 -254 -111.333 -383 -334 -387h-6c-97.333 0 -172.333 33.667 -225 101c-94 -48.667 -185 -73 -273 -73c-34.667 0 -69 3.66699 -103 11c-137.333 30.667 -206 124.667 -206 282c0 16.667 1 34.334 3 53.001c13.333 158 125.666 237 336.999 237
c40.667 0 85.334 -3 134.001 -9v116c0 94 -29.667 141 -89 141h-4c-4.66699 0.666992 -9 1 -13 1c-64.667 0 -97 -52.667 -97 -158v-15l-238 20c0 232.667 112 349 336 349h21zM501 491.999c-28.667 6 -54.668 9.00098 -78.001 9.00098c-60.667 0 -102 -20.333 -124 -61
c-13.333 -24.667 -20 -47.667 -20 -69c0 -26.667 10.667 -50.334 32 -71.001c16.667 -16 38.334 -24 65.001 -24c34 0 75.667 13.333 125 40v176zM948.999 680v24c0 121.333 -34.333 182 -103 182c-74 0 -115 -68.667 -123 -206h226z" />
    <glyph glyph-name="ccedilla" unicode="&#xe7;" horiz-adv-x="730" 
d="M687 447c0 -220.667 -93.667 -341.67 -281 -363.003h8l-9 -89c17.333 14 37 21 59 21c12 0 24.667 -2 38 -6c37.333 -11.333 65.333 -37.666 84 -78.999c11.333 -26.667 17 -54 17 -82c0 -16.667 -2 -33.667 -6 -51c-10.667 -46.667 -39.334 -82 -86.001 -106
c-30 -15.333 -71 -23 -123 -23c-30 0 -64 2.66699 -102 8l-10 119c37.333 -4 69 -6 95 -6c42 0 69.667 5 83 15c14 10.667 21 23 21 37c0 6.66699 -1.33301 13.334 -4 20.001c-8 18 -22 27 -42 27c-4.66699 0 -9.33398 -0.333008 -14.001 -1
c-27.333 -4.66699 -44.666 -19.667 -51.999 -45l-89 9c6.66699 104 12.667 181.333 18 232c-174.667 26.667 -262 185.667 -262 477v30c6.66699 344 119.334 517.667 338.001 521h8c201.333 0 302 -115.333 302 -346c0 -13.333 -0.333008 -26.666 -1 -39.999l-215 -16v24
c0 121.333 -34.333 182 -103 182c-70 0 -105 -98.333 -105 -295v-33c4 -212.667 39.333 -319 106 -319h6c58 4.66699 87 49 87 133c0 18 -1.33301 38 -4 60z" />
    <glyph glyph-name="egrave" unicode="&#xe8;" 
d="M365 1077c231.333 0 346.999 -153.667 346.999 -461c0 -37.333 -1.66699 -77.333 -5 -120h-447c0 -171.333 33 -257 99 -257h7c58 4.66699 87 49 87 133c0 18 -1.33301 38 -4 60l238 5c0 -254 -111 -382.667 -333 -386c-2.66699 -0.666992 -5 -1 -7 -1
c-211.333 0 -317 160.333 -317 481v30c6.66699 344 118.334 516 335.001 516zM235.999 680h226v24c0 121.333 -34.333 182 -103 182c-74 0 -115 -68.667 -123 -206zM369.999 1152c-86.667 100.667 -165.333 185.667 -236 255l164 130c50 -84 114 -172.333 192 -265z" />
    <glyph glyph-name="eacute" unicode="&#xe9;" 
d="M365 1077c231.333 0 346.999 -153.667 346.999 -461c0 -37.333 -1.66699 -77.333 -5 -120h-447c0 -171.333 33 -257 99 -257h7c58 4.66699 87 49 87 133c0 18 -1.33301 38 -4 60l238 5c0 -254 -111 -382.667 -333 -386c-2.66699 -0.666992 -5 -1 -7 -1
c-211.333 0 -317 160.333 -317 481v30c6.66699 344 118.334 516 335.001 516zM235.999 680h226v24c0 121.333 -34.333 182 -103 182c-74 0 -115 -68.667 -123 -206zM251.999 1272c78 92.667 142.001 181 192.001 265l164 -130
c-70.667 -69.333 -149.334 -154.333 -236.001 -255z" />
    <glyph glyph-name="ecircumflex" unicode="&#xea;" 
d="M365 1077c231.333 0 346.999 -153.667 346.999 -461c0 -37.333 -1.66699 -77.333 -5 -120h-447c0 -171.333 33 -257 99 -257h7c58 4.66699 87 49 87 133c0 18 -1.33301 38 -4 60l238 5c0 -254 -111 -382.667 -333 -386c-2.66699 -0.666992 -5 -1 -7 -1
c-211.333 0 -317 160.333 -317 481v30c6.66699 344 118.334 516 335.001 516zM235.999 680h226v24c0 121.333 -34.333 182 -103 182c-74 0 -115 -68.667 -123 -206zM70.999 1201l180 300h240l180 -300h-200l-100 150l-100 -150h-200z" />
    <glyph glyph-name="edieresis" unicode="&#xeb;" 
d="M365 1077c231.333 0 346.999 -153.667 346.999 -461c0 -37.333 -1.66699 -77.333 -5 -120h-447c0 -171.333 33 -257 99 -257h7c58 4.66699 87 49 87 133c0 18 -1.33301 38 -4 60l238 5c0 -254 -111 -382.667 -333 -386c-2.66699 -0.666992 -5 -1 -7 -1
c-211.333 0 -317 160.333 -317 481v30c6.66699 344 118.334 516 335.001 516zM235.999 680h226v24c0 121.333 -34.333 182 -103 182c-74 0 -115 -68.667 -123 -206zM165.999 1196c-40 0 -74.333 14.333 -103 43s-43 63 -43 103c0 40.667 14.333 75.334 43 104.001
s63 43 103 43c40.667 0 75.334 -14.333 104.001 -43s43 -63.334 43 -104.001c0 -40 -14.333 -74.333 -43 -103s-63.334 -43 -104.001 -43zM575.999 1196c-40 0 -74.333 14.333 -103 43s-43 63 -43 103c0 40.667 14.333 75.334 43 104.001s63 43 103 43
c40.667 0 75.334 -14.333 104.001 -43s43 -63.334 43 -104.001c0 -40 -14.333 -74.333 -43 -103s-63.334 -43 -104.001 -43z" />
    <glyph glyph-name="igrave" unicode="&#xec;" horiz-adv-x="335" 
d="M52 45c-4.66699 390 -7 727 -7 1011l252 15c-8 -272 -12 -542.333 -12 -811c0 -72 0.333008 -143.667 1 -215h-234zM171 1152c-86.667 100.667 -165.333 185.667 -236 255l164 130c50 -84 114 -172.333 192 -265z" />
    <glyph glyph-name="iacute" unicode="&#xed;" horiz-adv-x="335" 
d="M52 45c-4.66699 390 -7 727 -7 1011l252 15c-8 -272 -12 -542.333 -12 -811c0 -72 0.333008 -143.667 1 -215h-234zM52 1272c78 92.667 142.001 181 192.001 265l164 -130c-70.667 -69.333 -149.334 -154.333 -236.001 -255z" />
    <glyph glyph-name="icircumflex" unicode="&#xee;" horiz-adv-x="335" 
d="M52 45c-4.66699 390 -7 727 -7 1011l252 15c-8 -272 -12 -542.333 -12 -811c0 -72 0.333008 -143.667 1 -215h-234zM-128 1201l180 300h240l180 -300h-200l-100 150l-100 -150h-200z" />
    <glyph glyph-name="idieresis" unicode="&#xef;" horiz-adv-x="335" 
d="M53 45c-4.66699 390 -7 727 -7 1011l252 15c-8 -272 -12 -542.333 -12 -811c0 -72 0.333008 -143.667 1 -215h-234zM-33 1196c-40 0 -74.333 14.333 -103 43s-43 63 -43 103c0 40.667 14.333 75.334 43 104.001s63 43 103 43c40.667 0 75.334 -14.333 104.001 -43
s43 -63.334 43 -104.001c0 -40 -14.333 -74.333 -43 -103s-63.334 -43 -104.001 -43zM377 1196c-40 0 -74.333 14.333 -103 43s-43 63 -43 103c0 40.667 14.333 75.334 43 104.001s63 43 103 43c40.667 0 75.334 -14.333 104.001 -43s43 -63.334 43 -104.001
c0 -40 -14.333 -74.333 -43 -103s-63.334 -43 -104.001 -43z" />
    <glyph glyph-name="eth" unicode="&#xf0;" horiz-adv-x="835" 
d="M796 1465c-1.33301 -51.333 -2.33301 -103.001 -3 -155.001h117v-170h-119c-0.666992 -113.333 -1 -229 -1 -347c0 -236.667 1.66699 -483.667 5 -741l-237 -1l-8 153c-49.333 -74 -115 -111 -197 -111c-204.667 0 -307 156.667 -307 470
c0 6.66699 0.333008 13.334 1 20.001c4 314 105.333 471 304 471c8 0 16.333 -0.333008 25 -1c68 -4 123 -41 165 -111c0 61.333 -0.666992 127.333 -2 198h-129v170h125c-1.33301 49.333 -3 101 -5 155h266zM541 754.999c-38.667 52.667 -78.332 79.001 -118.999 79.001
c-16.667 0 -33.334 -4.33301 -50.001 -13c-52.667 -27.333 -79 -104 -79 -230c0 -14.667 0.333008 -29.667 1 -45c6.66699 -152.667 40.667 -233.334 102 -242.001c6 -0.666992 12 -1 18 -1c53.333 0 97.333 35.333 132 106z" />
    <glyph glyph-name="ntilde" unicode="&#xf1;" horiz-adv-x="786" 
d="M224 1103l10 -162.999c28 86.667 101.667 130.667 221 132h4c117.333 0 197.333 -46 240 -138c29.333 -62.667 44 -209.334 44 -440.001c0 -113.333 -3.66699 -247.333 -11 -402h-242c8.66699 206 13 365.667 13 479c0 56.667 -1 102 -3 136
c-6.66699 100 -38.667 150 -96 150s-93.333 -26.667 -108 -80l10 -725l-235 -2c0 306.667 -10.333 651 -31 1033zM66 1211c0 200 66.667 300 200 300c66.667 0 118.334 -25 155.001 -75c30.667 -41.333 59 -62 85 -62c5.33301 0 10.333 0.666992 15 2c30 10 45 55 45 135
h150c0 -200 -66.667 -300 -200 -300c-66.667 0 -120 25 -160 75c-33.333 42 -62 63 -86 63c-4.66699 0 -9.33398 -1 -14.001 -3c-26.667 -10 -40 -55 -40 -135h-150z" />
    <glyph glyph-name="ograve" unicode="&#xf2;" 
d="M392 1077c226.667 0 340 -157.332 340 -471.999c0 -12.667 -0.333008 -25.334 -1 -38.001c-9.33301 -340.667 -130 -512.667 -362 -516c-2.66699 -0.666992 -5.33398 -1 -8.00098 -1c-220.667 0 -331 161 -331 483v28c6.66699 344 127.334 516 362.001 516zM359 849.001
c-42 -14.667 -70.668 -68.999 -86.001 -162.999c-9.33301 -56 -14 -112.333 -14 -169c0 -38 2 -76.333 6 -115c10.667 -96 45 -145.667 103 -149h7c54 0 91 35.667 111 107c16.667 59.333 25 129.666 25 210.999c0 20 -0.333008 40.333 -1 61
c-5.33301 107.333 -21.333 174.333 -48 201c-16.667 16 -36.667 24 -60 24c-13.333 0 -27.666 -2.66699 -42.999 -8zM378.999 1152c-86.667 100.667 -165.333 185.667 -236 255l164 130c50 -84 114 -172.333 192 -265z" />
    <glyph glyph-name="oacute" unicode="&#xf3;" 
d="M392 1077c226.667 0 340 -157.332 340 -471.999c0 -12.667 -0.333008 -25.334 -1 -38.001c-9.33301 -340.667 -130 -512.667 -362 -516c-2.66699 -0.666992 -5.33398 -1 -8.00098 -1c-220.667 0 -331 161 -331 483v28c6.66699 344 127.334 516 362.001 516zM359 849.001
c-42 -14.667 -70.668 -68.999 -86.001 -162.999c-9.33301 -56 -14 -112.333 -14 -169c0 -38 2 -76.333 6 -115c10.667 -96 45 -145.667 103 -149h7c54 0 91 35.667 111 107c16.667 59.333 25 129.666 25 210.999c0 20 -0.333008 40.333 -1 61
c-5.33301 107.333 -21.333 174.333 -48 201c-16.667 16 -36.667 24 -60 24c-13.333 0 -27.666 -2.66699 -42.999 -8zM261.999 1272c78 92.667 142.001 181 192.001 265l164 -130c-70.667 -69.333 -149.334 -154.333 -236.001 -255z" />
    <glyph glyph-name="ocircumflex" unicode="&#xf4;" 
d="M392 1077c226.667 0 340 -157.332 340 -471.999c0 -12.667 -0.333008 -25.334 -1 -38.001c-9.33301 -340.667 -130 -512.667 -362 -516c-2.66699 -0.666992 -5.33398 -1 -8.00098 -1c-220.667 0 -331 161 -331 483v28c6.66699 344 127.334 516 362.001 516zM359 849.001
c-42 -14.667 -70.668 -68.999 -86.001 -162.999c-9.33301 -56 -14 -112.333 -14 -169c0 -38 2 -76.333 6 -115c10.667 -96 45 -145.667 103 -149h7c54 0 91 35.667 111 107c16.667 59.333 25 129.666 25 210.999c0 20 -0.333008 40.333 -1 61
c-5.33301 107.333 -21.333 174.333 -48 201c-16.667 16 -36.667 24 -60 24c-13.333 0 -27.666 -2.66699 -42.999 -8zM80.999 1201l180 300h240l180 -300h-200l-100 150l-100 -150h-200z" />
    <glyph glyph-name="otilde" unicode="&#xf5;" 
d="M392 1077c226.667 0 340 -157.332 340 -471.999c0 -12.667 -0.333008 -25.334 -1 -38.001c-9.33301 -340.667 -130 -512.667 -362 -516c-2.66699 -0.666992 -5.33398 -1 -8.00098 -1c-220.667 0 -331 161 -331 483v28c6.66699 344 127.334 516 362.001 516zM359 849.001
c-42 -14.667 -70.668 -68.999 -86.001 -162.999c-9.33301 -56 -14 -112.333 -14 -169c0 -38 2 -76.333 6 -115c10.667 -96 45 -145.667 103 -149h7c54 0 91 35.667 111 107c16.667 59.333 25 129.666 25 210.999c0 20 -0.333008 40.333 -1 61
c-5.33301 107.333 -21.333 174.333 -48 201c-16.667 16 -36.667 24 -60 24c-13.333 0 -27.666 -2.66699 -42.999 -8zM55.999 1211c0 200 66.667 300 200 300c66.667 0 118.334 -25 155.001 -75c30.667 -41.333 59 -62 85 -62c5.33301 0 10.333 0.666992 15 2
c30 10 45 55 45 135h150c0 -200 -66.667 -300 -200 -300c-66.667 0 -120 25 -160 75c-33.333 42 -62 63 -86 63c-4.66699 0 -9.33398 -1 -14.001 -3c-26.667 -10 -40 -55 -40 -135h-150z" />
    <glyph glyph-name="odieresis" unicode="&#xf6;" 
d="M392 1077c226.667 0 340 -157.332 340 -471.999c0 -12.667 -0.333008 -25.334 -1 -38.001c-9.33301 -340.667 -130 -512.667 -362 -516c-2.66699 -0.666992 -5.33398 -1 -8.00098 -1c-220.667 0 -331 161 -331 483v28c6.66699 344 127.334 516 362.001 516zM359 849.001
c-42 -14.667 -70.668 -68.999 -86.001 -162.999c-9.33301 -56 -14 -112.333 -14 -169c0 -38 2 -76.333 6 -115c10.667 -96 45 -145.667 103 -149h7c54 0 91 35.667 111 107c16.667 59.333 25 129.666 25 210.999c0 20 -0.333008 40.333 -1 61
c-5.33301 107.333 -21.333 174.333 -48 201c-16.667 16 -36.667 24 -60 24c-13.333 0 -27.666 -2.66699 -42.999 -8zM175.999 1196c-40 0 -74.333 14.333 -103 43s-43 63 -43 103c0 40.667 14.333 75.334 43 104.001s63 43 103 43c40.667 0 75.334 -14.333 104.001 -43
s43 -63.334 43 -104.001c0 -40 -14.333 -74.333 -43 -103s-63.334 -43 -104.001 -43zM585.999 1196c-40 0 -74.333 14.333 -103 43s-43 63 -43 103c0 40.667 14.333 75.334 43 104.001s63 43 103 43c40.667 0 75.334 -14.333 104.001 -43s43 -63.334 43 -104.001
c0 -40 -14.333 -74.333 -43 -103s-63.334 -43 -104.001 -43z" />
    <glyph glyph-name="divide" unicode="&#xf7;" horiz-adv-x="980" 
d="M940 870v-250h-900v250h900zM490 215c-40 0 -74.333 14.333 -103 43s-43 63 -43 103c0 40.667 14.333 75.334 43 104.001s63 43 103 43c40.667 0 75.334 -14.333 104.001 -43s43 -63.334 43 -104.001c0 -40 -14.333 -74.333 -43 -103s-63.334 -43 -104.001 -43zM490 976
c-40 0 -74.333 14.333 -103 43s-43 63 -43 103c0 40.667 14.333 75.334 43 104.001s63 43 103 43c40.667 0 75.334 -14.333 104.001 -43s43 -63.334 43 -104.001c0 -40 -14.333 -74.333 -43 -103s-63.334 -43 -104.001 -43z" />
    <glyph glyph-name="oslash" unicode="&#xf8;" 
d="M392 1077c14 0 27.666 -0.666992 40.999 -2l30 135l119 -36l-30 -133c120 -62.667 180 -208.667 180 -438c0 -12 -0.333008 -24.333 -1 -37c-9.33301 -340 -130.333 -512 -363 -516c-14 0 -28 0.333008 -42 1l-34 -151l-112 36l32 146c-121.333 61.333 -182 211 -182 449
v30c6.66699 344 127.334 516 362.001 516zM508.999 632c-2.66699 60 -8.66699 107.333 -18 142l-119 -521h3c54.667 0 91.667 35.333 111 106c16.667 59.333 25 129 25 209c0 20.667 -0.666992 42 -2 64zM358.999 849c-42 -14.667 -70.667 -68.999 -86 -162.999
c-9.33301 -56 -14 -112.333 -14 -169c0 -38.667 2 -77.334 6 -116.001c2 -17.333 4.66699 -33 8 -47l111 501c-8 -0.666992 -16.333 -2.66699 -25 -6z" />
    <glyph glyph-name="ugrave" unicode="&#xf9;" horiz-adv-x="786" 
d="M559 50l-10.001 163.002c-28 -86.667 -103.333 -130.334 -226 -131.001c-1.33301 -0.666992 -2.33301 -1 -3 -1c-121.333 0 -201.666 54.667 -240.999 164c-26.667 72.667 -40 223 -40 451c0 117.333 3.66699 255.666 11 414.999h243c-13.333 -224 -20 -396.333 -20 -517
c0 -60.667 1.66699 -108 5 -142c10 -104 43.667 -156 101 -156s93.333 27 108 81l-10 694l235 2c0 -286.667 10.333 -620.667 31 -1002zM389.999 1181c-86.667 100.667 -165.333 185.667 -236 255l164 130c50 -84 114 -172.333 192 -265z" />
    <glyph glyph-name="uacute" unicode="&#xfa;" horiz-adv-x="786" 
d="M559 50l-10.001 163.002c-28 -86.667 -103.333 -130.334 -226 -131.001c-1.33301 -0.666992 -2.33301 -1 -3 -1c-121.333 0 -201.666 54.667 -240.999 164c-26.667 72.667 -40 223 -40 451c0 117.333 3.66699 255.666 11 414.999h243c-13.333 -224 -20 -396.333 -20 -517
c0 -60.667 1.66699 -108 5 -142c10 -104 43.667 -156 101 -156s93.333 27 108 81l-10 694l235 2c0 -286.667 10.333 -620.667 31 -1002zM272.999 1301c78 92.667 142.001 181 192.001 265l164 -130c-70.667 -69.333 -149.334 -154.333 -236.001 -255z" />
    <glyph glyph-name="ucircumflex" unicode="&#xfb;" horiz-adv-x="786" 
d="M559 50l-10.001 163.002c-28 -86.667 -103.333 -130.334 -226 -131.001c-1.33301 -0.666992 -2.33301 -1 -3 -1c-121.333 0 -201.666 54.667 -240.999 164c-26.667 72.667 -40 223 -40 451c0 117.333 3.66699 255.666 11 414.999h243c-13.333 -224 -20 -396.333 -20 -517
c0 -60.667 1.66699 -108 5 -142c10 -104 43.667 -156 101 -156s93.333 27 108 81l-10 694l235 2c0 -286.667 10.333 -620.667 31 -1002zM90.999 1250l180 300h240l180 -300h-200l-100 150l-100 -150h-200z" />
    <glyph glyph-name="udieresis" unicode="&#xfc;" horiz-adv-x="786" 
d="M559 50l-10.001 163.002c-28 -86.667 -103.333 -130.334 -226 -131.001c-1.33301 -0.666992 -2.33301 -1 -3 -1c-121.333 0 -201.666 54.667 -240.999 164c-26.667 72.667 -40 223 -40 451c0 117.333 3.66699 255.666 11 414.999h243c-13.333 -224 -20 -396.333 -20 -517
c0 -60.667 1.66699 -108 5 -142c10 -104 43.667 -156 101 -156s93.333 27 108 81l-10 694l235 2c0 -286.667 10.333 -620.667 31 -1002zM185.999 1216c-40 0 -74.333 14.333 -103 43s-43 63 -43 103c0 40.667 14.333 75.334 43 104.001s63 43 103 43
c40.667 0 75.334 -14.333 104.001 -43s43 -63.334 43 -104.001c0 -40 -14.333 -74.333 -43 -103s-63.334 -43 -104.001 -43zM595.999 1216c-40 0 -74.333 14.333 -103 43s-43 63 -43 103c0 40.667 14.333 75.334 43 104.001s63 43 103 43
c40.667 0 75.334 -14.333 104.001 -43s43 -63.334 43 -104.001c0 -40 -14.333 -74.333 -43 -103s-63.334 -43 -104.001 -43z" />
    <glyph glyph-name="yacute" unicode="&#xfd;" horiz-adv-x="803" 
d="M38 1081l261.999 21.002c-6 -200 -9 -364.667 -9 -494c0 -48.667 0.666992 -92.334 2 -131.001c2.66699 -142.667 34.667 -216 96 -220c4 -0.666992 7.66699 -1 11 -1c54.667 0 89.334 31.333 104.001 94c8 36.667 12 123.667 12 261c0 110 -2.66699 252 -8 426l246 18
c2.66699 -203.333 4 -378 4 -524c0 -182 -2 -319.333 -6 -412c-6.66699 -166.667 -54.334 -293.334 -143.001 -380.001c-80 -78.667 -192.333 -118 -337 -118c-16.667 0 -33.667 0.666992 -51 2l-28 244c12.667 -0.666992 25 -1 37 -1c112 0 188.667 19.667 230 59
c42.667 40.667 64 106 64 196v16c-38 -60 -96.333 -90 -175 -90h-14c-86 4 -152.667 37.833 -200 101.5s-73.166 153 -77.499 268s-10.833 336.5 -19.5 664.5zM278.999 1301c78 92.667 142.001 181 192.001 265l164 -130c-70.667 -69.333 -149.334 -154.333 -236.001 -255z
" />
    <glyph glyph-name="thorn" unicode="&#xfe;" horiz-adv-x="835" 
d="M46 -349c4 224.667 6 501.999 6 831.999c0 300.667 -1.66699 644.334 -5 1031l243 1l2 -574c49.333 74.667 115 112 197 112c204.667 0 307 -161.667 307 -485v-20c-4.66699 -324 -106.667 -486 -306 -486c-8 0 -16 0.333008 -24 1c-68 3.33301 -123 40.333 -165 111
c0 -148 3.66699 -322.333 11 -523h-266zM296 735.999l5.00098 -376.002c38.667 -52.667 77.667 -79 117 -79c16 0 32 4.66699 48 14c48.667 26.667 73 106.334 73 239.001c0 16 -0.333008 32.667 -1 50c-6.66699 162.667 -39 248.334 -97 257.001
c-6 0.666992 -11.667 1 -17 1c-50.667 0 -93.334 -35.333 -128.001 -106z" />
    <glyph glyph-name="ydieresis" unicode="&#xff;" horiz-adv-x="803" 
d="M38 1081l261.999 21.002c-6 -200 -9 -364.667 -9 -494c0 -48.667 0.666992 -92.334 2 -131.001c2.66699 -142.667 34.667 -216 96 -220c4 -0.666992 7.66699 -1 11 -1c54.667 0 89.334 31.333 104.001 94c8 36.667 12 123.667 12 261c0 110 -2.66699 252 -8 426l246 18
c2.66699 -203.333 4 -378 4 -524c0 -182 -2 -319.333 -6 -412c-6.66699 -166.667 -54.334 -293.334 -143.001 -380.001c-80 -78.667 -192.333 -118 -337 -118c-16.667 0 -33.667 0.666992 -51 2l-28 244c12.667 -0.666992 25 -1 37 -1c112 0 188.667 19.667 230 59
c42.667 40.667 64 106 64 196v16c-38 -60 -96.333 -90 -175 -90h-14c-86 4 -152.667 37.833 -200 101.5s-73.166 153 -77.499 268s-10.833 336.5 -19.5 664.5zM191.999 1216c-40 0 -74.333 14.333 -103 43s-43 63 -43 103c0 40.667 14.333 75.334 43 104.001s63 43 103 43
c40.667 0 75.334 -14.333 104.001 -43s43 -63.334 43 -104.001c0 -40 -14.333 -74.333 -43 -103s-63.334 -43 -104.001 -43zM601.999 1216c-40 0 -74.333 14.333 -103 43s-43 63 -43 103c0 40.667 14.333 75.334 43 104.001s63 43 103 43
c40.667 0 75.334 -14.333 104.001 -43s43 -63.334 43 -104.001c0 -40 -14.333 -74.333 -43 -103s-63.334 -43 -104.001 -43z" />
    <glyph glyph-name="Ccaron" unicode="&#x10c;" horiz-adv-x="885" 
d="M816 978l-222 -1v27c0 156.667 -44 235 -132 235c-94 0 -141 -144.667 -141 -434c0 -326 49.333 -489 148 -489h1c98.667 0.666992 148 80.667 148 240v99h248v-75c0 -332 -136.333 -505.667 -409 -521c-8 -0.666992 -16 -1 -24 -1c-256.667 0 -385 246.667 -385 740
c0 482.667 132 724 396 724c248.667 0 373 -161.333 373 -484c0 -19.333 -0.333008 -39.333 -1 -60zM718 1959l-180 -300h-240l-180 300h200l100 -150l100 150h200z" />
    <glyph glyph-name="ccaron" unicode="&#x10d;" horiz-adv-x="730" 
d="M449 462l237.999 -15.001c0 -240.667 -111 -362.667 -333 -366c-2.66699 -0.666992 -5 -1 -7 -1c-211.333 0 -317 160.333 -317 481v30c6.66699 344 119.334 517.667 338.001 521h8c201.333 0 302 -115.333 302 -346c0 -13.333 -0.333008 -26.666 -1 -39.999l-215 -16v24
c0 121.333 -34.333 182 -103 182c-70 0 -105 -98.333 -105 -295v-33c4 -212.667 39.333 -319 106 -319h6c58 4.66699 87 49 87 133c0 18 -1.33301 38 -4 60zM658.999 1550l-180 -300h-240l-180 300h200l100 -150l100 150h200z" />
    <glyph glyph-name="Ecaron" unicode="&#x11a;" horiz-adv-x="798" 
d="M683 1490l-0.000976562 -282l-395 16v-328l355 10l9 -271h-317v-254h415v-284l-692 10c7.33301 187.333 11 376 11 566c0 263.333 -7 529 -21 797c150.667 6 362.334 12.667 635.001 20zM717.999 1959l-180 -300h-240l-180 300h200l100 -150l100 150h200z" />
    <glyph glyph-name="ecaron" unicode="&#x11b;" 
d="M365 1077c231.333 0 346.999 -153.667 346.999 -461c0 -37.333 -1.66699 -77.333 -5 -120h-447c0 -171.333 33 -257 99 -257h7c58 4.66699 87 49 87 133c0 18 -1.33301 38 -4 60l238 5c0 -254 -111 -382.667 -333 -386c-2.66699 -0.666992 -5 -1 -7 -1
c-211.333 0 -317 160.333 -317 481v30c6.66699 344 118.334 516 335.001 516zM235.999 680h226v24c0 121.333 -34.333 182 -103 182c-74 0 -115 -68.667 -123 -206zM670.999 1550l-180 -300h-240l-180 300h200l100 -150l100 150h200z" />
    <glyph glyph-name="dotlessi" unicode="&#x131;" horiz-adv-x="335" 
d="M52 45c-4.66699 390 -7 727 -7 1011l252 15c-8 -272 -12 -542.333 -12 -811c0 -72 0.333008 -143.667 1 -215h-234z" />
    <glyph glyph-name="Ncaron" unicode="&#x147;" horiz-adv-x="947" 
d="M52 79c8 228 12 450 12 666c0 249.333 -5.33301 491 -16 725l294 14l270 -753c-2.66699 258.667 -10 523.334 -22 794.001l309 4c-30.667 -408.667 -46 -821.334 -46 -1238c0 -56 0.333008 -112 1 -168l-271 -3l-288 806l24 -829zM718 1959l-180 -300h-240l-180 300h200
l100 -150l100 150h200z" />
    <glyph glyph-name="ncaron" unicode="&#x148;" horiz-adv-x="786" 
d="M224 1103l10 -162.999c28 86.667 101.667 130.667 221 132h4c117.333 0 197.333 -46 240 -138c29.333 -62.667 44 -209.334 44 -440.001c0 -113.333 -3.66699 -247.333 -11 -402h-242c8.66699 206 13 365.667 13 479c0 56.667 -1 102 -3 136
c-6.66699 100 -38.667 150 -96 150s-93.333 -26.667 -108 -80l10 -725l-235 -2c0 306.667 -10.333 651 -31 1033zM692 1550l-180 -300h-240l-180 300h200l100 -150l100 150h200z" />
    <glyph glyph-name="OE" unicode="&#x152;" horiz-adv-x="1451" 
d="M447 1524c128 0 217.666 -86.333 268.999 -259c-2.66699 68 -5.66699 136.333 -9 205c150.667 6 362.334 12.667 635.001 20v-282l-395 16v-328l355 10l9 -271h-317v-254h415v-284l-692 10c3.33301 92.667 6 186 8 280c-53.333 -202.667 -156 -304 -308 -304
c-254 0 -381 249 -381 747c0 462.667 137 694 411 694zM316.999 777c-0.666992 -17.333 -0.999023 -34 -0.999023 -50c0 -251.333 58.667 -377 176 -377c124.667 0 187 142.333 187 427s-58 427 -174 427c-116.667 0 -179.334 -142.333 -188.001 -427z" />
    <glyph glyph-name="oe" unicode="&#x153;" horiz-adv-x="1238" 
d="M347 1077c112.667 0 193 -51.667 241 -155c56 103.333 143.333 155 262 155c231.333 0 347 -153.667 347 -461c0 -37.333 -1.66699 -77.333 -5 -120h-447c0 -171.333 33 -257 99 -257h7c58 4.66699 87 49 87 133c0 18 -1.33301 38 -4 60l238 5
c0 -254 -111.333 -383 -334 -387h-7c-122 0 -208.667 53.667 -260 161c-52.667 -105.333 -135.334 -159 -248.001 -161h-6c-191.333 0 -287 159.667 -287 479v32c6.66699 344 112.334 516 317.001 516zM359 849c-42 -14.667 -70.668 -68.999 -86.001 -162.999
c-9.33301 -56 -14 -112.333 -14 -169c0 -38 2 -76.333 6 -115c10.667 -96 45 -145.667 103 -149h7c54 0 91 35.667 111 107c16.667 59.333 25 129.666 25 210.999c0 20 -0.333008 40.333 -1 61c-5.33301 107.333 -21.333 174.333 -48 201c-16.667 16 -36.667 24 -60 24
c-13.333 0 -27.666 -2.66699 -42.999 -8zM946.999 680.001v24c0 121.333 -34.333 182 -103 182c-74 0 -115 -68.667 -123 -206h226z" />
    <glyph glyph-name="Rcaron" unicode="&#x158;" horiz-adv-x="895" 
d="M56 64c4 190.667 5.99805 382.667 5.99805 576c0 296 -4.66699 595 -14 897c103.333 10.667 196 16 278 16c228 0 373.333 -41.667 436 -125c58.667 -78 88 -164 88 -258c0 -42.667 -5.66699 -86.667 -17 -132c-38.667 -146.667 -120 -239.667 -244 -279
c86.667 -12 152.334 -58.667 197.001 -140c42.667 -78.667 64 -276.667 64 -594v-43l-302 -4c3.33301 84 5 159.333 5 226c0 202 -16.333 325.667 -49 371c-37.333 50.667 -81.666 76 -132.999 76c-10 0 -20.333 -1 -31 -3c4 -203.333 12.667 -396 26 -578zM311.998 1304
l7 -427.999c124 6 202.667 48 236 126c18 41.333 27 81.666 27 120.999c0 34 -6.66699 67.333 -20 100c-24 56.667 -83.667 85 -179 85c-22 0 -45.667 -1.33301 -71 -4zM717.998 1959l-180 -300h-240l-180 300h200l100 -150l100 150h200z" />
    <glyph glyph-name="rcaron" unicode="&#x159;" horiz-adv-x="759" 
d="M306 767l9.99902 -724.999l-245 -2c0 306.667 -10.333 651 -31 1033l184 20l10 -163c28 80 93.333 125.667 196 137c15.333 1.33301 30 2 44 2c80.667 0 142 -26.333 184 -79c48.667 -62.667 73.334 -162.334 74.001 -299.001l-222 -22c0.666992 11.333 1 22.333 1 33
c0 106.667 -27.667 160 -83 160h-4c-64 -3.33301 -103.333 -35 -118 -95zM685.999 1550l-180 -300h-240l-180 300h200l100 -150l100 150h200z" />
    <glyph glyph-name="Scaron" unicode="&#x160;" horiz-adv-x="909" 
d="M52 609l296.999 19.9941c-4 -41.333 -6 -78.666 -6 -111.999c0 -151.333 37.667 -227 113 -227h4c91.333 2.66699 137 51.334 137 146.001v9c-3.33301 100.667 -89.666 199.334 -258.999 296.001c-164.667 93.333 -247 247.333 -247 462
c0 6.66699 0.333008 13.334 1 20.001c4.66699 224.667 130.667 339 378 343h8c223.333 0 335 -142.333 335 -427c0 -22.667 -0.666992 -46.667 -2 -72l-261 -15c2.66699 30 4 57.667 4 83c0 119.333 -29 179 -87 179c-70 0 -108.333 -35.667 -115 -107
c-0.666992 -10 -1 -20 -1 -30c0 -59.333 17.667 -114.666 53 -165.999c40.667 -59.333 110.5 -113.666 209.5 -162.999s168.167 -117 207.5 -203c28 -62 42 -128 42 -198c0 -26.667 -2 -54 -6 -82c-15.333 -100.667 -58 -184.167 -128 -250.5s-164 -102.5 -282 -108.5
c-8 -0.666992 -16 -1 -24 -1c-107.333 0 -197 39.333 -269 118c-69.333 75.333 -104 212.333 -104 411c0 24 0.666992 49 2 75zM756.999 1958.99l-180 -300h-240l-180 300h200l100 -150l100 150h200z" />
    <glyph glyph-name="scaron" unicode="&#x161;" horiz-adv-x="710" 
d="M28 405l229.002 11v-13c0 -102.667 31.667 -154.667 95 -156h4c61.333 0 92 29.667 92 89v7c-2.66699 65.333 -63.167 118 -181.5 158s-189.5 107.333 -213.5 202c-8.66699 33.333 -13 65.333 -13 96c0 56 14.333 108 43 156c44 73.333 110.667 115.333 200 126
c24 2.66699 47.333 4 70 4c59.333 0 111.666 -10.333 156.999 -31c62 -28.667 105 -69.667 129 -123c16 -36.667 24 -77.334 24 -122.001c0 -21.333 -1.66699 -43.333 -5 -66l-214 -5c2 16.667 3 32 3 46c0 66.667 -21.333 102.334 -64 107.001
c-4.66699 0.666992 -9.33398 1 -14.001 1c-44 0 -73.667 -22.333 -89 -67c-5.33301 -15.333 -8 -29.333 -8 -42c0 -31.333 14.667 -58.333 44 -81c41.333 -32 102.5 -64.5 183.5 -97.5s135.5 -89.167 163.5 -168.5c10 -30 15 -60 15 -90
c0 -50.667 -14.667 -101.667 -44 -153c-46.667 -82 -119 -129.667 -217 -143c-21.333 -3.33301 -42.333 -5 -63 -5c-73.333 0 -141.333 19 -204 57c-80 48.667 -120.667 149.667 -122 303zM653.002 1501l-180 -300h-240l-180 300h200l100 -150l100 150h200z" />
    <glyph glyph-name="Tcaron" unicode="&#x164;" horiz-adv-x="835" 
d="M48 1232v263c98 -2.66699 195 -4 291 -4c149.333 0 295.666 3 438.999 9l9 -280h-252c0 -474 5 -850 15 -1128l-282 -14c14.667 473.333 25.334 859.333 32.001 1158zM718 1959l-180 -300h-240l-180 300h200l100 -150l100 150h200z" />
    <glyph glyph-name="tcaron" unicode="&#x165;" horiz-adv-x="1042" 
d="M207 1396l227 15v-331l191 5l3 -189l-194 -9v-455c0 -106 45 -159 135 -159c18.667 0 39 2.33301 61 7l-9 -220c-32 -4 -62.333 -6 -91 -6c-210.667 0 -318 108.667 -322 326v489l-164 -10l-4 223l168 -2zM700 1221c74 21.333 116.999 62.334 128.999 123.001
c-51.333 17.333 -85 38 -101 62s-24 51 -24 81s6.33301 56.5 19 79.5s30.834 40.5 54.501 52.5s47.167 18.333 70.5 19h2c22 0 43.333 -4 64 -12c20.667 -8.66699 37.5 -21.667 50.5 -39s22.167 -35.833 27.5 -55.5s8.33301 -43.167 9 -70.5v-4
c0 -26.667 -3.66699 -56 -11 -88c-7.33301 -34 -20 -66.333 -38 -97s-44.167 -59.834 -78.5 -87.501s-85.5 -44.167 -153.5 -49.5z" />
    <glyph glyph-name="Uring" unicode="&#x16e;" horiz-adv-x="912" 
d="M864 1516v-989.001c0 -304.667 -139.333 -457 -418 -457h-22c-233.333 26.667 -354 154.334 -362 383.001c0 456.667 -4.66699 816.667 -14 1080h266c-6.66699 -150.667 -10 -327.667 -10 -531c0 -142.667 1.66699 -298.667 5 -468c1.33301 -124 46 -186 134 -186
c0 -0.666992 0.333008 -1 1 -1c87.333 0 131 79.333 131 238l-5 922zM630 1809c0 -55.333 -19.5 -102.5 -58.5 -141.5s-86.167 -58.5 -141.5 -58.5s-102.5 19.5 -141.5 58.5s-58.5 86.167 -58.5 141.5s19.5 102.5 58.5 141.5s86.167 58.5 141.5 58.5
s102.5 -19.5 141.5 -58.5s58.5 -86.167 58.5 -141.5zM430 1892c-22.667 0 -42 -8.16699 -58 -24.5s-24 -35.833 -24 -58.5s8 -42 24 -58s35.333 -24 58 -24s42.167 8 58.5 24s24.5 35.333 24.5 58s-8.16699 42.167 -24.5 58.5s-35.833 24.5 -58.5 24.5z" />
    <glyph glyph-name="uring" unicode="&#x16f;" horiz-adv-x="786" 
d="M559 50l-10.001 163.002c-28 -86.667 -103.333 -130.334 -226 -131.001c-1.33301 -0.666992 -2.33301 -1 -3 -1c-121.333 0 -201.666 54.667 -240.999 164c-26.667 72.667 -40 223 -40 451c0 117.333 3.66699 255.666 11 414.999h243c-13.333 -224 -20 -396.333 -20 -517
c0 -60.667 1.66699 -108 5 -142c10 -104 43.667 -156 101 -156s93.333 27 108 81l-10 694l235 2c0 -286.667 10.333 -620.667 31 -1002zM590.999 1400c0 -55.333 -19.5 -102.5 -58.5 -141.5s-86.167 -58.5 -141.5 -58.5s-102.5 19.5 -141.5 58.5s-58.5 86.167 -58.5 141.5
s19.5 102.5 58.5 141.5s86.167 58.5 141.5 58.5s102.5 -19.5 141.5 -58.5s58.5 -86.167 58.5 -141.5zM390.999 1483c-22.667 0 -42 -8.16699 -58 -24.5s-24 -35.833 -24 -58.5s8 -42 24 -58s35.333 -24 58 -24s42.167 8 58.5 24s24.5 35.333 24.5 58
s-8.16699 42.167 -24.5 58.5s-35.833 24.5 -58.5 24.5z" />
    <glyph glyph-name="Ydieresis" unicode="&#x178;" horiz-adv-x="835" 
d="M304 75l11 620.001c-152 321.333 -269.333 582.666 -352 783.999l282 29l191 -558c86 268 155 467.667 207 599h273l-352 -873v-589zM234 1654c-40 0 -74.333 14.333 -103 43s-43 63 -43 103c0 40.667 14.333 75.334 43 104.001s63 43 103 43
c40.667 0 75.334 -14.333 104.001 -43s43 -63.334 43 -104.001c0 -40 -14.333 -74.333 -43 -103s-63.334 -43 -104.001 -43zM644 1654c-40 0 -74.333 14.333 -103 43s-43 63 -43 103c0 40.667 14.333 75.334 43 104.001s63 43 103 43c40.667 0 75.334 -14.333 104.001 -43
s43 -63.334 43 -104.001c0 -40 -14.333 -74.333 -43 -103s-63.334 -43 -104.001 -43z" />
    <glyph glyph-name="Zcaron" unicode="&#x17d;" horiz-adv-x="826" 
d="M61 1252l14.002 260c315.333 4 543.666 6 684.999 6v-263l-432 -858c77.333 -2 150.666 -3 219.999 -3c80.667 0 156 1.33301 226 4l10 -279c-176.667 7.33301 -414 11 -712 11l-21 292c193.333 334.667 338 612 434 832zM718.002 1959l-180 -300h-240l-180 300h200
l100 -150l100 150h200z" />
    <glyph glyph-name="zcaron" unicode="&#x17e;" horiz-adv-x="685" 
d="M45 1082c58.667 -1.33301 124.333 -2 197 -2c116.667 0 251.667 1.66699 405 5l5 -204l-356 -600h356l-3 -219c-167.333 0 -371 -3.33301 -611 -10l-8 194l373 635c-119.333 0 -237 -4.33301 -353 -13zM641.999 1501l-180 -300h-240l-180 300h200l100 -150l100 150h200z
" />
    <glyph glyph-name="florin" unicode="&#x192;" horiz-adv-x="699" 
d="M431 842c2 -201.333 3 -365.001 3 -491.001c0 -125.333 -1 -212.666 -3 -261.999c-6.66699 -186.667 -46 -313.334 -118 -380.001c-63.333 -58.667 -155.666 -88 -276.999 -88c-18 0 -36.667 0.666992 -56 2l-28 254c28 -4.66699 53.333 -7 76 -7
c63.333 0 107 18.333 131 55c31.333 48.667 47 150.334 47 305.001v10c-8 228.667 -12 402.667 -12 522v65l-162 -8l-4 215l158 7c-1.33301 18 -2 36.333 -2 55c0 62.667 6.33301 127 19 193c15.333 86 62 154.667 140 206c58 38.667 131.333 58 220 58
c29.333 0 60.666 -2.33301 93.999 -7l-2 -219c-20 2.66699 -38.667 4 -56 4c-55.333 0 -96 -13.667 -122 -41c-28.667 -28.667 -43 -84.667 -43 -168c0 -20 1 -42 3 -66l214 3v-203z" />
    <glyph glyph-name="circumflex" unicode="&#x2c6;" horiz-adv-x="690" 
d="M50 1250l180 300h240l180 -300h-200l-100 150l-100 -150h-200z" />
    <glyph glyph-name="caron" unicode="&#x2c7;" horiz-adv-x="690" 
d="M650 1550l-180 -300h-240l-180 300h200l100 -150l100 150h200z" />
    <glyph glyph-name="breve" unicode="&#x2d8;" horiz-adv-x="690" 
d="M50 1550h180c0 -80 40 -120 120 -120s120 40 120 120h180c0 -200 -100 -300 -300 -300s-300 100 -300 300z" />
    <glyph glyph-name="dotaccent" unicode="&#x2d9;" horiz-adv-x="368" 
d="M186 1245c-40 0 -74.333 14.333 -103 43s-43 63 -43 103c0 40.667 14.333 75.334 43 104.001s63 43 103 43c40.667 0 75.334 -14.333 104.001 -43s43 -63.334 43 -104.001c0 -40 -14.333 -74.333 -43 -103s-63.334 -43 -104.001 -43z" />
    <glyph glyph-name="ring" unicode="&#x2da;" horiz-adv-x="490" 
d="M450 1400c0 -55.333 -19.5 -102.5 -58.5 -141.5s-86.167 -58.5 -141.5 -58.5s-102.5 19.5 -141.5 58.5s-58.5 86.167 -58.5 141.5s19.5 102.5 58.5 141.5s86.167 58.5 141.5 58.5s102.5 -19.5 141.5 -58.5s58.5 -86.167 58.5 -141.5zM250 1483
c-22.667 0 -42 -8.16699 -58 -24.5s-24 -35.833 -24 -58.5s8 -42 24 -58s35.333 -24 58 -24s42.167 8 58.5 24s24.5 35.333 24.5 58s-8.16699 42.167 -24.5 58.5s-35.833 24.5 -58.5 24.5z" />
    <glyph glyph-name="ogonek" unicode="&#x2db;" horiz-adv-x="460" 
d="M250 0c-46.667 -66.667 -69.999 -126.667 -69.999 -180c0 -60 23.333 -90 70 -90s90 13.333 130 40l40 -110c-46.667 -40 -103.334 -60 -170.001 -60c-133.333 0 -200 63.333 -200 190c0 73.333 33.333 143.333 100 210h100z" />
    <glyph glyph-name="tilde" unicode="&#x2dc;" horiz-adv-x="740" 
d="M50 1260c0 200 66.667 300 200 300c66.667 0 118.334 -25 155.001 -75c30.667 -41.333 59 -62 85 -62c5.33301 0 10.333 0.666992 15 2c30 10 45 55 45 135h150c0 -200 -66.667 -300 -200 -300c-66.667 0 -120 25 -160 75c-33.333 42 -62 63 -86 63
c-4.66699 0 -9.33398 -1 -14.001 -3c-26.667 -10 -40 -55 -40 -135h-150z" />
    <glyph glyph-name="hungarumlaut" unicode="&#x2dd;" horiz-adv-x="728" 
d="M18 1301c78 92.667 142.001 181 192.001 265l164 -130c-70.667 -69.333 -149.334 -154.333 -236.001 -255zM338.001 1301c78 92.667 142.001 181 192.001 265l164 -130c-70.667 -69.333 -149.334 -154.333 -236.001 -255z" />
    <glyph glyph-name="endash" unicode="&#x2013;" horiz-adv-x="580" 
d="M540 870v-250h-500v250h500z" />
    <glyph glyph-name="emdash" unicode="&#x2014;" horiz-adv-x="772" 
d="M740 870v-250h-700v250h700z" />
    <glyph glyph-name="quoteleft" unicode="&#x2018;" horiz-adv-x="381" 
d="M321 1135c-68 5.33301 -119.169 21.833 -153.502 49.5s-60.5 56.834 -78.5 87.501s-30.667 63 -38 97c-7.33301 32 -11 61.333 -11 88c0 1.33301 0.333008 2.66602 1 3.99902c0 27.333 2.66699 50.833 8 70.5s14.5 38.167 27.5 55.5s30.167 30.333 51.5 39
c20 8 41 12 63 12h3c22.667 -0.666992 45.834 -7 69.501 -19s41.834 -29.5 54.501 -52.5s19 -49.5 19 -79.5s-8 -57 -24 -81s-49.667 -44.667 -101 -62c12 -60.667 55 -101.667 129 -123z" />
    <glyph glyph-name="quoteright" unicode="&#x2019;" horiz-adv-x="381" 
d="M40 1221c74 21.333 116.999 62.334 128.999 123.001c-51.333 17.333 -85 38 -101 62s-24 51 -24 81s6.33301 56.5 19 79.5s30.834 40.5 54.501 52.5s47.167 18.333 70.5 19h2c22 0 43.333 -4 64 -12c20.667 -8.66699 37.5 -21.667 50.5 -39s22.167 -35.833 27.5 -55.5
s8.33301 -43.167 9 -70.5v-4c0 -26.667 -3.66699 -56 -11 -88c-7.33301 -34 -20 -66.333 -38 -97s-44.167 -59.834 -78.5 -87.501s-85.5 -44.167 -153.5 -49.5z" />
    <glyph glyph-name="quotesinglbase" unicode="&#x201a;" horiz-adv-x="381" 
d="M40 -79c74 21.333 116.999 62.334 128.999 123.001c-51.333 17.333 -85 38 -101 62s-24 51 -24 81s6.33301 56.5 19 79.5s30.834 40.5 54.501 52.5s47.167 18.333 70.5 19h2c22 0 43.333 -4 64 -12c20.667 -8.66699 37.5 -21.667 50.5 -39s22.167 -35.833 27.5 -55.5
s8.33301 -43.167 9 -70.5v-4c0 -26.667 -3.66699 -56 -11 -88c-7.33301 -34 -20 -66.333 -38 -97s-44.167 -59.834 -78.5 -87.501s-85.5 -44.167 -153.5 -49.5z" />
    <glyph glyph-name="quotedblleft" unicode="&#x201c;" horiz-adv-x="713" 
d="M661 1135c-68 5.33301 -119.169 21.833 -153.502 49.5s-60.5 56.834 -78.5 87.501s-30.667 63 -38 97c-7.33301 32 -11 61.333 -11 88c0 1.33301 0.333008 2.66602 1 3.99902c0 27.333 2.66699 50.833 8 70.5s14.5 38.167 27.5 55.5s30.167 30.333 51.5 39
c20 8 41 12 63 12h3c22.667 -0.666992 45.834 -7 69.501 -19s41.834 -29.5 54.501 -52.5s19 -49.5 19 -79.5s-8 -57 -24 -81s-49.667 -44.667 -101 -62c12 -60.667 55 -101.667 129 -123zM320.998 1085c-68 5.33301 -119.169 21.833 -153.502 49.5
s-60.5 56.834 -78.5 87.501s-30.667 63 -38 97c-7.33301 32 -11 61.333 -11 88c0 1.33301 0.333008 2.66602 1 3.99902c0 27.333 2.66699 50.833 8 70.5s14.5 38.167 27.5 55.5s30.167 30.333 51.5 39c20 8 41 12 63 12h3c22.667 -0.666992 45.834 -7 69.501 -19
s41.834 -29.5 54.501 -52.5s19 -49.5 19 -79.5s-8 -57 -24 -81s-49.667 -44.667 -101 -62c12 -60.667 55 -101.667 129 -123z" />
    <glyph glyph-name="quotedblright" unicode="&#x201d;" horiz-adv-x="713" 
d="M40 1221c74 21.333 116.999 62.334 128.999 123.001c-51.333 17.333 -85 38 -101 62s-24 51 -24 81s6.33301 56.5 19 79.5s30.834 40.5 54.501 52.5s47.167 18.333 70.5 19h2c22 0 43.333 -4 64 -12c20.667 -8.66699 37.5 -21.667 50.5 -39s22.167 -35.833 27.5 -55.5
s8.33301 -43.167 9 -70.5v-4c0 -26.667 -3.66699 -56 -11 -88c-7.33301 -34 -20 -66.333 -38 -97s-44.167 -59.834 -78.5 -87.501s-85.5 -44.167 -153.5 -49.5zM379.999 1171c74 21.333 116.999 62.334 128.999 123.001c-51.333 17.333 -85 38 -101 62s-24 51 -24 81
s6.33301 56.5 19 79.5s30.834 40.5 54.501 52.5s47.167 18.333 70.5 19h2c22 0 43.333 -4 64 -12c20.667 -8.66699 37.5 -21.667 50.5 -39s22.167 -35.833 27.5 -55.5s8.33301 -43.167 9 -70.5v-4c0 -26.667 -3.66699 -56 -11 -88c-7.33301 -34 -20 -66.333 -38 -97
s-44.167 -59.834 -78.5 -87.501s-85.5 -44.167 -153.5 -49.5z" />
    <glyph glyph-name="quotedblbase" unicode="&#x201e;" horiz-adv-x="713" 
d="M40 -109c74 21.333 116.999 62.334 128.999 123.001c-51.333 17.333 -85 38 -101 62s-24 51 -24 81s6.33301 56.5 19 79.5s30.834 40.5 54.501 52.5s47.167 18.333 70.5 19h2c22 0 43.333 -4 64 -12c20.667 -8.66699 37.5 -21.667 50.5 -39s22.167 -35.833 27.5 -55.5
s8.33301 -43.167 9 -70.5v-4c0 -26.667 -3.66699 -56 -11 -88c-7.33301 -34 -20 -66.333 -38 -97s-44.167 -59.834 -78.5 -87.501s-85.5 -44.167 -153.5 -49.5zM379.999 -158.999c74 21.333 116.999 62.334 128.999 123.001c-51.333 17.333 -85 38 -101 62s-24 51 -24 81
s6.33301 56.5 19 79.5s30.834 40.5 54.501 52.5s47.167 18.333 70.5 19h2c22 0 43.333 -4 64 -12c20.667 -8.66699 37.5 -21.667 50.5 -39s22.167 -35.833 27.5 -55.5s8.33301 -43.167 9 -70.5v-4c0 -26.667 -3.66699 -56 -11 -88c-7.33301 -34 -20 -66.333 -38 -97
s-44.167 -59.834 -78.5 -87.501s-85.5 -44.167 -153.5 -49.5z" />
    <glyph glyph-name="dagger" unicode="&#x2020;" horiz-adv-x="920" 
d="M40 930v250h290v290h250v-290h300v-250h-300v-900h-250v900h-290z" />
    <glyph glyph-name="daggerdbl" unicode="&#x2021;" horiz-adv-x="920" 
d="M330 570v360h-290v250h290v290h250v-290h300v-250h-300v-360h300v-250h-300v-290h-250v290h-290v250h290z" />
    <glyph glyph-name="bullet" unicode="&#x2022;" horiz-adv-x="515" 
d="M279 918c70 -3.33301 117.832 -22.3311 143.499 -56.998s40.834 -84 45.501 -148c1.33301 -14 2 -27.667 2 -41c0 -46.667 -6.66699 -86.667 -20 -120c-17.333 -43.333 -53.333 -72.666 -108 -87.999c-24.667 -7.33301 -49 -11 -73 -11c-30 0 -59.333 5.33301 -88 16
c-53.333 19.333 -88.333 54.666 -105 105.999c-11.333 34 -17 68 -17 102c0 17.333 1.33301 34.666 4 51.999c8.66699 51.333 29.667 96.666 63 135.999c29.333 36 74 54 134 54c6 0 12.333 -0.333008 19 -1z" />
    <glyph glyph-name="ellipsis" unicode="&#x2026;" horiz-adv-x="1150" 
d="M186 45c-40 0 -74.333 14.333 -103 43s-43 63 -43 103c0 40.667 14.333 75.334 43 104.001s63 43 103 43c40.667 0 75.334 -14.333 104.001 -43s43 -63.334 43 -104.001c0 -40 -14.333 -74.333 -43 -103s-63.334 -43 -104.001 -43zM569 45c-40 0 -74.333 14.333 -103 43
s-43 63 -43 103c0 40.667 14.333 75.334 43 104.001s63 43 103 43c40.667 0 75.334 -14.333 104.001 -43s43 -63.334 43 -104.001c0 -40 -14.333 -74.333 -43 -103s-63.334 -43 -104.001 -43zM952 45c-40 0 -74.333 14.333 -103 43s-43 63 -43 103
c0 40.667 14.333 75.334 43 104.001s63 43 103 43c40.667 0 75.334 -14.333 104.001 -43s43 -63.334 43 -104.001c0 -40 -14.333 -74.333 -43 -103s-63.334 -43 -104.001 -43z" />
    <glyph glyph-name="perthousand" unicode="&#x2030;" horiz-adv-x="2451" 
d="M1170 1560l-440 -1540l-170 30l440 1540zM412 1560c226.667 0 340 -132.666 340 -397.999c0 -10.667 -0.333008 -21.334 -1 -32.001c-9.33301 -287.333 -130 -432.333 -362 -435c-2.66699 -0.666992 -5.33398 -1 -8.00098 -1c-220.667 0 -331 135.667 -331 407v24
c6.66699 290 127.334 435 362.001 435zM379 1329c-42 -11.333 -70.668 -51.666 -86.001 -120.999c-9.33301 -41.333 -14 -82.666 -14 -123.999c0 -28.667 2 -57.334 6 -86.001c10.667 -70.667 45 -107.334 103 -110.001h8c53.333 0 90 26.333 110 79c16.667 44 25 96 25 156
c0 14.667 -0.333008 29.667 -1 45c-5.33301 79.333 -21.333 129 -48 149c-16.667 12 -36.667 18 -60 18c-13.333 0 -27.666 -2 -42.999 -6zM1322 906.001c226.667 0 340 -132.666 340 -397.999c0 -10.667 -0.333008 -21.334 -1 -32.001
c-9.33301 -287.333 -130 -432.333 -362 -435c-2.66699 -0.666992 -5.33398 -1 -8.00098 -1c-220.667 0 -331 135.667 -331 407v24c6.66699 290 127.334 435 362.001 435zM1289 675.002c-42 -11.333 -70.668 -51.666 -86.001 -120.999
c-9.33301 -41.333 -14 -82.666 -14 -123.999c0 -28.667 2 -57.334 6 -86.001c10.667 -70.667 45 -107.334 103 -110.001h8c53.333 0 90 26.333 110 79c16.667 44 25 96 25 156c0 14.667 -0.333008 29.667 -1 45c-5.33301 79.333 -21.333 129 -48 149
c-16.667 12 -36.667 18 -60 18c-13.333 0 -27.666 -2 -42.999 -6zM2072 906.002c226.667 0 340 -132.666 340 -397.999c0 -10.667 -0.333008 -21.334 -1 -32.001c-9.33301 -287.333 -130 -432.333 -362 -435c-2.66699 -0.666992 -5.33398 -1 -8.00098 -1
c-220.667 0 -331 135.667 -331 407v24c6.66699 290 127.334 435 362.001 435zM2039 675.003c-42 -11.333 -70.667 -51.666 -86 -120.999c-9.33301 -41.333 -14 -82.666 -14 -123.999c0 -28.667 2 -57.334 6 -86.001c10.667 -70.667 45 -107.334 103 -110.001h8
c53.333 0 90 26.333 110 79c16.667 44 25 96 25 156c0 14.667 -0.333008 29.667 -1 45c-5.33301 79.333 -21.333 129 -48 149c-16.667 12 -36.667 18 -60 18c-13.333 0 -27.666 -2 -43 -6z" />
    <glyph glyph-name="guilsinglleft" unicode="&#x2039;" horiz-adv-x="540" 
d="M50 700l230 400h220l-200 -400l200 -400h-220z" />
    <glyph glyph-name="guilsinglright" unicode="&#x203a;" horiz-adv-x="540" 
d="M270 300h-220l200 400l-200 400h220l230 -400z" />
    <glyph glyph-name="Euro" unicode="&#x20ac;" horiz-adv-x="1039" 
d="M454 810v-4.99805c0 -44.667 1 -86.334 3 -125.001h180l-30 -170h-133c23.333 -129.333 65.666 -194 126.999 -194h1c99.333 0.666992 149 80.667 149 240v99h248v-75c0 -332 -136.333 -506 -409 -522c-8 -0.666992 -15.667 -1 -23 -1c-202 0 -324.667 151 -368 453h-159
v170h144c-2 37.333 -3 76.666 -3 117.999v12h-141v170h148c30.667 361.333 160.334 542 389.001 542c248.667 0 373 -161.333 373 -484c0 -19.333 -0.333008 -39.333 -1 -60l-222 -1v27c0 156.667 -44.333 235 -133 235c-72 0 -116.333 -86.333 -133 -259h229l-30 -170h-206
z" />
    <glyph glyph-name="trademark" unicode="&#x2122;" horiz-adv-x="1080" 
d="M450 1510v-120h-140v-380h-120v380h-140v120h400zM500 1010v500h160l110 -300l110 300h160v-500h-120v300l-100 -300h-100l-100 300v-300h-120z" />
    <glyph glyph-name="uniE000" unicode="&#xe000;" horiz-adv-x="967" 
d="M-18 90c125.333 569.333 220 965.333 284 1188l-132 3l4 279l523 4l316 -1428l-256 -52l-81 379h-311l-84 -409zM632 744c-34.667 144 -91.333 316.334 -170 517.001c-60.667 -168.667 -112 -343.334 -154 -524.001z" />
    <glyph glyph-name="uniE001" unicode="&#xe001;" horiz-adv-x="931" 
d="M327 1309l7 -429c124 6.66699 202.667 49 236 127c18 41.333 27 82 27 122c0 33.333 -6.66699 66.333 -20 99c-23.333 56.667 -83 85 -179 85c-21.333 0 -45 -1.33301 -71 -4zM346 674l0.00195312 -335c15.333 -0.666992 30 -1 44 -1c124 0 202.333 34 235 102
c18 38 27 72.333 27 103c0 30 -8.66699 56.333 -26 79c-28.667 36.667 -95.334 55 -200.001 55c-24.667 0 -51.334 -1 -80.001 -3zM70.002 85c2.66699 186 3.99902 357 3.99902 513c0 268.667 -4 492.334 -12 671.001l-149 -2l-9 308l281 12h22
c228.667 0 388.334 -30.333 479.001 -91c93.333 -62.667 146 -147.334 158 -254.001c2.66699 -27.333 4 -53.666 4 -78.999c0 -72.667 -12.333 -135.667 -37 -189c-34 -72.667 -94.333 -124.667 -181 -156c96.667 -14.667 166 -49.667 208 -105
c35.333 -46.667 53 -113.334 53 -200.001c0 -16.667 -0.666992 -34 -2 -52c-8 -113.333 -43.833 -198 -107.5 -254s-152.167 -94.333 -265.5 -115c-64 -11.333 -139 -17 -225 -17c-67.333 0 -141 3.33301 -221 10z" />
    <glyph glyph-name="uniE002" unicode="&#xe002;" horiz-adv-x="896" 
d="M312 1241c-11.333 -224 -16.998 -439.334 -16.998 -646.001c0 -77.333 0.666992 -153.333 2 -228c23.333 -5.33301 45.666 -8 66.999 -8c58.667 0 108 20.333 148 61c54.667 54.667 82 177.334 82 368.001v4c-0.666992 192 -27.334 318 -80.001 378
c-44 49.333 -97.667 74 -161 74c-13.333 0 -27 -1 -41 -3zM64.002 87.999c1.33301 224.667 1.99805 431.999 1.99805 621.999s-0.666992 362.333 -2 517l-121 -2l-11 309l120 10c44.667 2.66699 87.334 4 128.001 4c230.667 0 395.334 -41.667 494.001 -125
c116 -98.667 176.667 -281 182 -547v-72c0 -228 -22 -390.667 -66 -488c-48.667 -107.333 -137.667 -178.666 -267 -213.999c-74.667 -20.667 -156.667 -31 -246 -31c-66.667 0 -137.667 5.66699 -213 17z" />
    <glyph glyph-name="uniE003" unicode="&#xe003;" horiz-adv-x="693" 
d="M40 141c12 347.333 17.999 713.668 17.999 1099c0 87.333 -0.333008 175.666 -1 264.999l596 -8v-320c-143.333 12.667 -265.666 19 -366.999 19l-7 -268c166.667 4 288 11 364 21l2 -295l-375 14l2 -215c124 -6 227 -9 309 -9c22 0 42.667 0.333008 62 1l5 -323
c-118 12.667 -289 19 -513 19h-95z" />
    <glyph glyph-name="uniE004" unicode="&#xe004;" horiz-adv-x="668" 
d="M40 207c10.667 420 16 790.667 16 1112v148c226.667 0 417.334 7.33301 572.001 22l-1 -309c-85.333 4.66699 -161.333 7 -228 7c-56.667 0 -106.667 -1.66699 -150 -5l3 -286h51c91.333 0 181 4.33301 269 13v-241c-91.333 3.33301 -167.333 5 -228 5h-29v-228
c92 4 188 12.333 288 25v-276c-168.667 8.66699 -328.334 13 -479.001 13h-84z" />
    <glyph glyph-name="uniE005" unicode="&#xe005;" horiz-adv-x="731" 
d="M659 1417l-0.000976562 -247c-133.333 -11.333 -266.666 -20.333 -399.999 -27l-10 -318h392l10 -244h-364v-268h393v-254l-647 9l-2 1319c210 0 419.333 10 628 30z" />
    <glyph glyph-name="uniE006" unicode="&#xe006;" horiz-adv-x="902" 
d="M862 1484c-8 -448.667 -15.667 -932 -23 -1450h-227v583h-285v-536l-273 1c8 244.667 12 469 12 673c0 203.333 -4 386.333 -12 549h-130l5 230h386l-11 -633l285 -12v619z" />
    <glyph glyph-name="uniE007" unicode="&#xe007;" horiz-adv-x="1320" 
d="M417 1533l233 -1036l171 960l456 -5c-8 -216.667 -12 -435.334 -12 -656.001c0 -246 5 -495 15 -747l-291 -20c0 265.333 -3 589.666 -9 972.999l-163 -879l-310 -21l-200 948l-4 -960l-244 -17c4.66699 219.333 7 414.333 7 585c0 213.333 -3.66699 388.666 -11 525.999
l-139 -5l1 352z" />
    <glyph glyph-name="uniE008" unicode="&#xe008;" horiz-adv-x="940" 
d="M53 79c17.333 490.667 26 854.333 26 1091l-183 -13l-6 328l453 29l270 -783c-2.66699 258.667 -10 523.334 -22 794.001l309 4c-30.667 -408.667 -46 -821.334 -46 -1238c0 -56 0.333008 -112 1 -168l-271 -3l-288 806l24 -829z" />
    <glyph glyph-name="uniE009" unicode="&#xe009;" horiz-adv-x="876" 
d="M71 80c4 175.333 6 342.667 6 502c0 244.667 -4.66699 471.334 -14 680.001l-179 -14l1 253c170.667 27.333 315.667 41 435 41c152.667 0 264.334 -22 335.001 -66c120.667 -74.667 181 -209.334 181 -404.001v-30c-6.66699 -210.667 -54.334 -345.5 -143.001 -404.5
s-198 -90.5 -328 -94.5c-0.666992 -20.667 -1 -42 -1 -64c0 -110.667 5.66699 -241.667 17 -393zM327 1260l6.99902 -488.999c124 6.66699 196.667 51 218 133c10 37.333 15 75.666 15 114.999c0 46 -6.66699 93.333 -20 142c-20 71.333 -70 107 -150 107
c-21.333 0 -44.666 -2.66699 -69.999 -8z" />
    <glyph glyph-name="uniE00A" unicode="&#xe00a;" horiz-adv-x="876" 
d="M71 80c4 175.333 6 342.667 6 502c0 244.667 -4.66699 471.334 -14 680.001l-179 -14l1 253c170.667 27.333 315.667 41 435 41c152.667 0 264.334 -22 335.001 -66c120.667 -74.667 181 -209.334 181 -404.001v-30c-6.66699 -210.667 -54.334 -345.5 -143.001 -404.5
s-198 -90.5 -328 -94.5c-0.666992 -20.667 -1 -42 -1 -64c0 -110.667 5.66699 -241.667 17 -393zM277 1260l7 -489c124 6.66699 202.167 36.5 234.5 89.5s48.5 104.167 48.5 153.5s-13.333 104 -40 164c-24.667 55.333 -97 83 -217 83c-10.667 0 -21.667 -0.333008 -33 -1z
" />
    <glyph glyph-name="uniE00B" unicode="&#xe00b;" horiz-adv-x="876" 
d="M71 80c4 175.333 6 342.668 6 502.001c0 244.667 -4.66699 554.667 -14 930c52 20 137.667 30 257 30c152.667 0 264.334 -22 335.001 -66c120.667 -74.667 181 -209.334 181 -404.001v-30c-6.66699 -210.667 -54.334 -345.5 -143.001 -404.5s-198 -90.5 -328 -94.5
c-0.666992 -20.667 -1 -42 -1 -64c0 -110.667 5.66699 -241.667 17 -393zM277 1260l7 -489c124 6.66699 202.167 36.5 234.5 89.5s48.5 104.167 48.5 153.5s-13.333 104 -40 164c-24.667 55.333 -97 83 -217 83c-10.667 0 -21.667 -0.333008 -33 -1z" />
    <glyph glyph-name="uniE00C" unicode="&#xe00c;" horiz-adv-x="704" 
d="M-44 1575l334 0.00195312c233.333 0 357 -100.667 371 -302c2 -28 3 -55 3 -81c0 -160.667 -37.667 -271.334 -113 -332.001c-87.333 -70.667 -180 -106 -278 -106c12 -214.667 26.667 -425.334 44 -632.001l-263 -2c5.33301 430.667 8 799 8 1105v176l-107 7zM257 1375
c-3.33301 -94.667 -5 -204.333 -5 -329v-111h6c76 0 123.333 35 142 105c12.667 46.667 19 95.334 19 146.001c0 25.333 -1.66699 51.666 -5 78.999c-9.33301 73.333 -56.333 110 -141 110h-16z" />
    <glyph glyph-name="uniE00D" unicode="&#xe00d;" horiz-adv-x="690" 
d="M264 1575l11.999 -0.000976562c234 0 358 -100.667 372 -302c1.33301 -28 2 -54.333 2 -79c0 -161.333 -37.667 -272.666 -113 -333.999c-87.333 -70.667 -180 -106 -278 -106c12.667 -214.667 27.334 -425.334 44.001 -632.001l-263 -2
c5.33301 430.667 8 838.334 8 1223v228zM242.999 1375c-2.66699 -91.333 -3.99902 -196.667 -3.99902 -316v-124h6c75.333 0 122.666 35 141.999 105c12.667 46.667 19 95 19 145c0 26 -1.66699 52.667 -5 80c-10 73.333 -57.333 110 -142 110h-16z" />
    <glyph glyph-name="uniE00E" unicode="&#xe00e;" horiz-adv-x="866" 
d="M-124 1549c63.333 3.33301 123.333 5 180 5c512.667 0 769 -135 769 -405c0.666992 -9.33301 1 -18.666 1 -27.999c0 -154.667 -52.667 -268 -158 -340c-111.333 -77.333 -235.333 -129.333 -372 -156l25 -550l-270 -5c5.33301 248 8 474.333 8 679
c0 205.333 -2.66699 388.666 -8 549.999h-170zM390 934.5c49.333 15.667 91 45.5 125 89.5c20.667 26 31 57 31 93c0 22.667 -4.33301 47.667 -13 75c-22 68 -116.333 103.667 -283 107v-396c44 5.33301 90.667 15.833 140 31.5z" />
    <glyph glyph-name="uniE00F" unicode="&#xe00f;" horiz-adv-x="856" 
d="M40 1549c66.667 6 129.333 8.99805 188 8.99805c391.333 0 587 -136.333 587 -409c0.666992 -9.33301 1 -18.666 1 -27.999c0 -154.667 -52.667 -268 -158 -340c-112 -77.333 -236.333 -129.333 -373 -156l25 -550l-270 -5c5.33301 248 8 495.333 8 742
s-2.66699 492.334 -8 737.001zM378.999 934.498c49.333 15.667 91 45.5 125 89.5c20.667 26 31 58 31 96c0 24.667 -4.33301 52 -13 82c-18 61.333 -84.333 92 -199 92c-26 0 -54 -1.66699 -84 -5v-386c44 5.33301 90.667 15.833 140 31.5z" />
    <glyph glyph-name="uniE010" unicode="&#xe010;" horiz-adv-x="890" 
d="M245 1561c390 0 585.001 -143 585.001 -429c0 -227.333 -54 -375 -162 -443c-106.667 -68 -220.334 -102 -341.001 -102h-4v-429l-259 -4l25 1173l-156 -7v238zM284.001 1288v-467c180.667 4.66699 271 84.667 271 240v8c-3.33301 147.333 -79.333 221 -228 221
c-14 0 -28.333 -0.666992 -43 -2z" />
    <glyph glyph-name="uniE011" unicode="&#xe011;" horiz-adv-x="890" 
d="M245 1561c389.333 0 584 -149.667 584 -449c0 -194 -58.333 -330 -175 -408s-227 -117 -331 -117v-429l-259 -4l5 1393zM284 1288v-467c180.667 4.66699 271 84.667 271 240v8c-3.33301 147.333 -79.333 221 -228 221c-14 0 -28.333 -0.666992 -43 -2z" />
    <glyph glyph-name="uniE012" unicode="&#xe012;" horiz-adv-x="896" 
d="M62 64c4 190.667 5.99805 370.667 5.99805 540c0 259.333 -4.66699 493.666 -14 702.999l-147 -14l-4 252c170.667 24.667 317 37 439 37c218 0 356.667 -39.667 416 -119c64.667 -87.333 97 -182 97 -284c0 -42 -5.33301 -85.667 -16 -131
c-38.667 -153.333 -120 -249.666 -244 -288.999c86.667 -12 152.334 -58.667 197.001 -140c42.667 -78.667 64 -276.667 64 -594v-43l-302 -4c3.33301 84 5 159.333 5 226c0 202 -16.333 325.667 -49 371c-37.333 50.667 -81.666 76 -132.999 76c-10 0 -20.333 -1 -31 -3
c4 -203.333 12.667 -396 26 -578zM317.998 1304l7 -427.999c124 6 202.667 48 236 126c18 41.333 27 81.666 27 120.999c0 34 -6.66699 67.333 -20 100c-24 56.667 -83.667 85 -179 85c-22 0 -45.667 -1.33301 -71 -4z" />
    <glyph glyph-name="uniE013" unicode="&#xe013;" horiz-adv-x="726" 
d="M-44 1575l334 0.00292969c233.333 0 360.333 -100.667 381 -302c2.66699 -24.667 4 -48.334 4 -71.001c0 -166 -67 -280.667 -201 -344c124 -20.667 186 -248 186 -682c0 -42 -0.666992 -86.333 -2 -133h-224c2 61.333 3 118.666 3 171.999
c0 360.667 -48.667 541 -146 541c-6 0 -12 -0.666992 -18 -2c12 -214.667 26.667 -425.334 44 -632.001l-263 -2c5.33301 430.667 8 799 8 1105v176l-107 7zM257 1375c-3.33301 -94.667 -5 -204.333 -5 -329v-111h6c76 0 123.333 35 142 105
c12.667 46.667 19 95.334 19 146.001c0 25.333 -1.66699 51.666 -5 78.999c-9.33301 73.333 -56.333 110 -141 110h-16z" />
    <glyph glyph-name="uniE014" unicode="&#xe014;" horiz-adv-x="726" 
d="M290 1575c233.333 0 360.333 -100.665 381 -301.998c2.66699 -24.667 4 -48.334 4 -71.001c0 -166 -67 -280.667 -201 -344c124 -20.667 186 -248 186 -682c0 -42 -0.666992 -86.333 -2 -133h-224c2 61.333 3 118.666 3 171.999c0 360.667 -48.667 541 -146 541
c-6 0 -12 -0.666992 -18 -2c12 -214.667 26.667 -425.334 44 -632.001l-263 -2c5.33301 430.667 8 914.334 8 1451zM257 1375c-3.33301 -94.667 -5 -204.333 -5 -329v-111h6c76 0 123.333 35 142 105c12.667 46.667 19 95.334 19 146.001
c0 25.333 -1.66699 51.666 -5 78.999c-9.33301 73.333 -56.333 110 -141 110h-16z" />
    <glyph glyph-name="uniE015" unicode="&#xe015;" horiz-adv-x="901" 
d="M-124 1549c63.333 3.33301 123.332 5 179.999 5c512.667 0 769 -135 769 -405c0 -195.333 -109.667 -331.666 -329 -408.999l357 -670l-277 -70c-103.333 276.667 -196.666 485 -279.999 625l25 -550l-270 -5c5.33301 248 8 474.333 8 679
c0 205.333 -2.66699 388.666 -8 549.999h-170zM389.999 934.5c49.333 15.667 91 45.5 125 89.5c20.667 26 31 57 31 93c0 22.667 -4.33301 47.667 -13 75c-22 68 -116.333 103.667 -283 107v-396c44 5.33301 90.667 15.833 140 31.5z" />
    <glyph glyph-name="uniE016" unicode="&#xe016;" horiz-adv-x="901" 
d="M56 1544c34 1.33301 66.666 1.99902 97.999 1.99902c447.333 0 671 -132.333 671 -397c0 -195.333 -109.667 -331.666 -329 -408.999l357 -670l-277 -70c-103.333 276.667 -196.666 485 -279.999 625l25 -550l-270 -5c5.33301 248 8 474.333 8 679
c0 205.333 -1 470.333 -3 795zM389.999 934.499c49.333 15.667 91 45.5 125 89.5c20.667 26 31 57 31 93c0 22.667 -4.33301 47.667 -13 75c-22 68 -116.333 103.667 -283 107v-396c44 5.33301 90.667 15.833 140 31.5z" />
    <glyph glyph-name="uniE017" unicode="&#xe017;" horiz-adv-x="890" 
d="M245 1561c390 0 584.999 -143 584.999 -429v-78c0 -188.667 -78 -331.334 -234 -428.001c118 -102.667 190.333 -289 217 -559l-279 -16c-3.33301 250.667 -47.666 429.334 -132.999 536.001h-78v-429l-259 -4l25 1173l-156 -7v238zM283.999 1288v-467
c180.667 4.66699 271 84.667 271 240v8c-3.33301 147.333 -79.333 221 -228 221c-14 0 -28.333 -0.666992 -43 -2z" />
    <glyph glyph-name="uniE018" unicode="&#xe018;" horiz-adv-x="890" 
d="M245 1561c389.333 0 584 -143 584 -429v-78c0 -188.667 -77.667 -331.334 -233 -428.001c118 -102.667 190.333 -289 217 -559l-280 -16c-2.66699 250.667 -46.667 429.334 -132 536.001h-78v-429l-259 -4l5 1393zM284 1288v-467c180.667 4.66699 271 84.667 271 240v8
c-3.33301 147.333 -79.333 221 -228 221c-14 0 -28.333 -0.666992 -43 -2z" />
    <glyph glyph-name="uniE019" unicode="&#xe019;" horiz-adv-x="1251" 
d="M325 1501c-15.333 -400.667 -22.999 -799.333 -22.999 -1196c88.667 0 224.667 4.66699 408 14l5 -259c-142 5.33301 -277 8 -405 8c-88.667 0 -174.334 -1.33301 -257.001 -4c0.666992 90.667 1 181.667 1 273c0 385.333 -4.66699 770 -14 1154zM711.001 1514h243
l268 -1095l-219 -48l-54 218h-262l-35 -194l-257 24c90.667 255.333 196 620.333 316 1095zM808.001 1232l-97 -399h219c-43.333 166 -84 299 -122 399z" />
    <glyph glyph-name="uniE01A" unicode="&#xe01a;" horiz-adv-x="1260" 
d="M1136 1587v-247c-133.333 -11.333 -277 -20.333 -431 -27v-138h413l10 -244h-365v-168h454v-254l-708 9l-1 1039c210 0 419.333 10 628 30zM75 56c2.66699 209.333 4 409.332 4 599.999c0 266 -2.66699 513.667 -8 743l259 21l-27 -1093
c224 6.66699 446 18.334 666 35.001l4 -291c-314.667 0 -614 -5 -898 -15z" />
    <glyph glyph-name="uniE01B" unicode="&#xe01b;" horiz-adv-x="993" 
d="M619 1586l-11 -848c24 -0.666992 48.333 -1 73 -1c89.333 0 180 3 272 9l-9 -263c-87.333 7.33301 -174 11 -260 11s-171.333 -3.66699 -256 -11c4.66699 175.333 7 354 7 536c0 182.667 -2.33301 369 -7 559zM54 70c0.666992 94 0.999023 187 0.999023 279
c0 412.667 -5 801.667 -15 1167l252 8c-11.333 -388 -21.333 -782 -30 -1182h61c219.333 0 391.333 6.66699 516 20l3 -298c-169.333 5.33301 -342.666 8 -519.999 8c-88 0 -177.333 -0.666992 -268 -2z" />
    <glyph glyph-name="uniE01C" unicode="&#xe01c;" horiz-adv-x="1271" 
d="M54 0c0.666992 94 0.999023 187 0.999023 279c0 412.667 -5 801.667 -15 1167l252 8c-11.333 -388 -21.333 -782 -30 -1182h61c219.333 0 391.333 6.66699 516 20l3 -298c-169.333 5.33301 -342.666 8 -519.999 8c-88 0 -177.333 -0.666992 -268 -2zM449.999 1546
c66.667 5.33301 129.333 7.99805 188 7.99805c351.333 0 537.333 -98.667 558 -296c2.66699 -32 4 -62.333 4 -91c0 -146.667 -44 -246.667 -132 -300c-112 -68.667 -236.333 -114.667 -373 -138l25 -275l-270 -4c5.33301 136.667 8 299.334 8 488.001
s-2.66699 391.334 -8 608.001zM788.998 974.498c49.333 15.667 87.666 41 114.999 76s41 68.167 41 99.5s-11.667 64.833 -35 100.5s-65 58.5 -125 68.5c-45.333 7.33301 -82.333 11 -111 11c-9.33301 0 -17.666 -0.333008 -24.999 -1v-386
c44 5.33301 90.667 15.833 140 31.5z" />
    <glyph glyph-name="uniE01D" unicode="&#xe01d;" horiz-adv-x="1240" 
d="M54 70c0.666992 94 0.999023 187 0.999023 279c0 412.667 -5 801.667 -15 1167l252 8c-11.333 -388 -21.333 -782 -30 -1182h61c219.333 0 391.333 6.66699 516 20l3 -298c-169.333 5.33301 -342.666 8 -519.999 8c-88 0 -177.333 -0.666992 -268 -2zM644.999 1591
c336 0 517.333 -116.666 544 -349.999c4 -34 6 -66.667 6 -98c0 -181.333 -66.333 -310.333 -199 -387c118 -102.667 190.333 -322.334 217 -659.001l-280 -16c-2.66699 317.333 -46.667 529.333 -132 636h-78v-239l-229 -4l-25 1103zM683.999 1318v-367.001
c179.333 4.66699 269 66.334 269 185.001v3c-2 120.667 -77.333 181 -226 181c-14 0 -28.333 -0.666992 -43 -2z" />
    <glyph glyph-name="uniE01E" unicode="&#xe01e;" horiz-adv-x="1230" 
d="M54 70c0.666992 94 1 187 1 279c0 412.667 -5 801.667 -15 1167l252 8c-11.333 -388 -21.333 -782 -30 -1182h61c152.667 0 334.667 6.66699 546 20l3 -298c-256 5.33301 -439.333 8 -550 8c-88 0 -177.333 -0.666992 -268 -2zM432 1283l-16 246.998
c52 -1.33301 105 -2 159 -2c154.667 0 360 11 616 33l5 -237l-334 -26c-0.666992 -61.333 -1 -123.666 -1 -186.999c0 -254 8.66699 -467.667 26 -641l-267 -16c5.33301 150.667 8 344.334 8 581.001c0 85.333 -0.666992 168 -2 248h-194z" />
    <glyph glyph-name="uniE01F" unicode="&#xe01f;" horiz-adv-x="1271" 
d="M54 70c0.666992 94 1 187 1 279c0 412.667 -5 801.667 -15 1167l252 8c-11.333 -388 -21.333 -782 -30 -1182h61c99.333 0 198 6.66699 296 20l3 -298c-142.667 5.33301 -242.667 8 -300 8c-88 0 -177.333 -0.666992 -268 -2zM432 1283l-16 246.999
c52 -1.33301 105 -2 159 -2c154.667 0 360 11 616 33l5 -237l-224 -16c-0.666992 -61.333 -1 -123.666 -1 -186.999c0 -254 8.66699 -601 26 -1041l-267 -16c5.33301 417.333 8 744.333 8 981c0 85.333 -0.666992 168 -2 248z" />
    <glyph glyph-name="uniE020" unicode="&#xe020;" horiz-adv-x="1540" 
d="M-44 1575l334 0.00292969c233.333 0 360.333 -100.667 381 -302c2.66699 -24.667 4 -48.334 4 -71.001c0 -166 -67 -280.667 -201 -344c69.333 -22.667 104 -80.667 104 -174v-311c2 -56.667 33 -87.334 93 -92.001c10 -0.666992 22 -1 36 -1
c68.667 0 182 9.33301 340 28l23 -237c-118 -14 -231 -21 -339 -21c-211.333 0 -317 91 -317 273l-13 320c-7.33301 74 -50 111 -128 111c12 -214.667 26.667 -425.334 44 -632.001l-263 -2c5.33301 430.667 8 799 8 1105v176l-107 7zM257 1375
c-3.33301 -94.667 -5 -204.333 -5 -329v-111h6c76 0 123.333 35 142 105c12.667 46.667 19 95.334 19 146.001c0 25.333 -1.66699 51.666 -5 78.999c-9.33301 73.333 -56.333 110 -141 110h-16zM1275 1524l225 -1099l-250 -50l-25 285l-250 15l-70 -275l-229 30
c182.667 501.333 299 866 349 1094h250zM1145 1279l-139.999 -374.001c63.333 -13.333 136.666 -21.666 219.999 -24.999c-20 136.667 -46.667 269.667 -80 399z" />
    <glyph glyph-name="uniE021" unicode="&#xe021;" horiz-adv-x="1526" 
d="M48 1561c82.667 17.333 157.999 26.002 225.999 26.002c72 0 136 -9.66699 192 -29c107.333 -38.667 163 -147 167 -325v-16c0 -169.333 -57.667 -289 -173 -359c69.333 -22.667 104 -80.667 104 -174v-311c2 -56.667 33 -87.334 93 -92.001c10 -0.666992 22 -1 36 -1
c68.667 0 182 9.33301 340 28l24 -237c-118 -14 -231.333 -21 -340 -21c-211.333 0 -317 91 -317 273l-13 320c-7.33301 74 -50 111 -128 111c12.667 -214.667 27.334 -425.334 44.001 -632.001l-263 -2c5.33301 430.667 8 836 8 1216v225zM242.999 1375
c-2.66699 -91.333 -3.99902 -196.667 -3.99902 -316v-124h6c75.333 0 122.666 35 141.999 105c12.667 46.667 19 95 19 145c0 26 -1.66699 52.667 -5 80c-10 73.333 -57.333 110 -142 110h-16zM1261 1524l225 -1099l-250 -50l-25 285l-250 15l-70 -275l-229 30
c182.667 501.333 299 866 349 1094h250zM1131 1279l-139.999 -374.001c63.333 -13.333 136.666 -21.666 219.999 -24.999c-20 136.667 -46.667 269.667 -80 399z" />
    <glyph glyph-name="uniE022" unicode="&#xe022;" horiz-adv-x="1640" 
d="M-124 1549c63.333 3.33301 123.333 5 180 5c512.667 0 769 -135 769 -405c0 -195.333 -109.667 -331.666 -329 -408.999l234 -445h370l10 -225h-554c-90 230 -176.667 415 -260 555l25 -550l-270 -5c5.33301 248 8 474.333 8 679c0 205.333 -2.66699 388.666 -8 549.999
h-170zM1375 1524l225 -1099l-250 -50l-25 285l-250 15l-70 -275l-229 30c182.667 501.333 299 866 349 1094h250zM1245 1279l-139.999 -374.001c63.333 -13.333 136.666 -21.666 219.999 -24.999c-20 136.667 -46.667 269.667 -80 399zM390.001 934.499
c49.333 15.667 91 45.5 125 89.5c20.667 26 31 57 31 93c0 22.667 -4.33301 47.667 -13 75c-22 68 -116.333 103.667 -283 107v-396c44 5.33301 90.667 15.833 140 31.5z" />
    <glyph glyph-name="uniE023" unicode="&#xe023;" horiz-adv-x="1629" 
d="M40 1539c93.333 14 179.334 21 258.001 21c111.333 0 208.666 -13.667 291.999 -41c143.333 -46.667 218.333 -170 225 -370c0 -195.333 -110 -331.666 -330 -408.999l235 -445h369l10 -225h-554c-90 230 -176.667 415 -260 555l25 -550l-270 -5
c5.33301 248 8 494.333 8 739c0 245.333 -2.66699 488.666 -8 729.999zM1364 1524l225 -1099l-250 -50l-25 285l-250 15l-70 -275l-229 30c182.667 501.333 299 866 349 1094h250zM1234 1279l-139.999 -374.001c63.333 -13.333 136.666 -21.666 219.999 -24.999
c-20 136.667 -46.667 269.667 -80 399zM379.002 934.499c49.333 15.667 90.999 45.5 124.999 89.5c20.667 26 31 59.333 31 100c0 26 -4.33301 55.333 -13 88c-17.333 63.333 -78.333 95 -183 95c-29.333 0 -62.666 -2.66699 -99.999 -8v-396
c44 5.33301 90.667 15.833 140 31.5z" />
    <glyph glyph-name="uniE024" unicode="&#xe024;" horiz-adv-x="1853" 
d="M1189 1600l379 -20c73.333 -474.667 152 -922.667 236 -1344l-274 -39l-38 312l-351 10c-20 -82.667 -38.667 -164 -56 -244l-255 39c140 431.333 259.667 860 359 1286zM245 1561c390 0 585 -143 585 -429v-78c0 -188.667 -78 -331.334 -234 -428.001
c78 -102.667 117 -245.667 117 -429l386 -11v-246l-595 21c-10 310.667 -44.333 519.334 -103 626.001h-78v-429l-259 -4l25 1173l-156 -7v238zM284 1288v-467c180.667 4.66699 271 84.667 271 240v8c-3.33301 147.333 -79.333 221 -228 221c-14 0 -28.333 -0.666992 -43 -2
zM1188 799l284 -10l-108 441z" />
    <glyph glyph-name="uniE025" unicode="&#xe025;" horiz-adv-x="1853" 
d="M1189 1600l379 -20c73.333 -474.667 152 -922.667 236 -1344l-274 -39l-38 312l-351 10l-57 -244l-255 39c140.667 431.333 260.667 860 360 1286zM79 1537c52.667 4.66699 102.333 7 149 7c400.667 0 601 -163.333 601 -490c0 -188.667 -77.667 -331.334 -233 -428.001
c78 -102.667 117 -245.667 117 -429l386 -11v-246l-596 21c-9.33301 310.667 -43.333 519.334 -102 626.001h-78v-429l-259 -4zM283.999 1288v-467c180.667 4.66699 271 84.667 271 240v8c-3.33301 147.333 -79.333 221 -228 221c-14 0 -28.333 -0.666992 -43 -2zM1188 799
l284 -10l-108 441z" />
    <glyph glyph-name="uniE026" unicode="&#xe026;" horiz-adv-x="1322" 
d="M-39 1575l334 0.00292969c233.333 0 360.333 -100.667 381 -302c2.66699 -24.667 4 -48.334 4 -71.001c0 -166 -67 -280.667 -201 -344c69.333 -22.667 104 -80.667 104 -174v-311c2 -56.667 33 -87.334 93 -92.001c10 -0.666992 22 -1 36 -1
c68.667 0 182 9.33301 340 28l23 -237c-118 -14 -231 -21 -339 -21c-211.333 0 -317 91 -317 273l-13 320c-7.33301 74 -50 111 -128 111c12 -214.667 26.667 -425.334 44 -632.001l-263 -2c5.33301 430.667 8 799 8 1105v176l-107 7zM262 1375
c-3.33301 -94.667 -5 -204.333 -5 -329v-111h6c76 0 123.333 35 142 105c12.667 46.667 19 95.334 19 146.001c0 25.333 -1.66699 51.666 -5 78.999c-9.33301 73.333 -56.333 110 -141 110h-16zM729 401.004c12 293.333 18.001 605.333 18.001 936
c0 74.667 -0.333008 150.667 -1 228l536 -8v-290c-143.333 12.667 -259 19 -347 19l-7 -228c153.333 4 268 11 344 21l2 -225c-92 3.33301 -210.333 8 -355 14c0 -82 4 -150.333 12 -205c108.667 -6 202 -9 280 -9c21.333 0 41.666 0.333008 60.999 1l5 -273
c-118 12.667 -273.667 19 -467 19h-81z" />
    <glyph glyph-name="uniE027" unicode="&#xe027;" horiz-adv-x="1304" 
d="M48 1561c82.667 17.333 157.999 26.002 225.999 26.002c72 0 136 -9.66699 192 -29c107.333 -38.667 163 -147 167 -325v-16c0 -169.333 -57.667 -289 -173 -359c69.333 -22.667 104 -80.667 104 -174v-311c2 -56.667 33 -87.334 93 -92.001c10 -0.666992 22 -1 36 -1
c68.667 0 182 9.33301 340 28l24 -237c-118 -14 -231.333 -21 -340 -21c-211.333 0 -317 91 -317 273l-13 320c-7.33301 74 -50 111 -128 111c12.667 -214.667 27.334 -425.334 44.001 -632.001l-263 -2c5.33301 430.667 8 836 8 1216v225zM242.999 1375
c-2.66699 -91.333 -3.99902 -196.667 -3.99902 -316v-124h6c75.333 0 122.666 35 141.999 105c12.667 46.667 19 95 19 145c0 26 -1.66699 52.667 -5 80c-10 73.333 -57.333 110 -142 110h-16zM710 401.001c12 293.333 18.001 605.333 18.001 936
c0 74.667 -0.333008 150.667 -1 228l537 -8v-290c-143.333 12.667 -259.333 19 -348 19l-7 -228c153.333 4 268 11 344 21l2 -225c-92 3.33301 -210 8 -354 14c0 -82 3.66699 -150.333 11 -205c108.667 -6 202 -9 280 -9c21.333 0 41.666 0.333008 60.999 1l5 -273
c-118 12.667 -273.667 19 -467 19h-81z" />
    <glyph glyph-name="uniE028" unicode="&#xe028;" horiz-adv-x="1457" 
d="M-124 1549c63.333 3.33301 123.333 5 180 5c512.667 0 769 -135 769 -405c0 -195.333 -109.667 -331.666 -329 -408.999l234 -445h370l10 -225h-554c-90 230 -176.667 415 -260 555l25 -550l-270 -5c5.33301 248 8 474.333 8 679c0 205.333 -2.66699 388.666 -8 549.999
h-170zM390 934.5c49.333 15.667 91 45.5 125 89.5c20.667 26 31 57 31 93c0 22.667 -4.33301 47.667 -13 75c-22 68 -116.333 103.667 -283 107v-396c44 5.33301 90.667 15.833 140 31.5zM864 401c12 293.333 18.001 605.333 18.001 936c0 74.667 -0.333008 150.667 -1 228
l536 -8v-290c-143.333 12.667 -259 19 -347 19l-7 -228c153.333 4 268 11 344 21l2 -225c-92 3.33301 -210.333 8 -355 14c0 -82 4 -150.333 12 -205c108.667 -6 202 -9 280 -9c21.333 0 41.666 0.333008 60.999 1l5 -273c-118 12.667 -273.667 19 -467 19h-81z" />
    <glyph glyph-name="uniE029" unicode="&#xe029;" horiz-adv-x="1446" 
d="M40 1539c93.333 14 179.334 21 258.001 21c111.333 0 208.666 -13.667 291.999 -41c143.333 -46.667 218.333 -170 225 -370c0 -195.333 -110 -331.666 -330 -408.999l235 -445h369l10 -225h-554c-90 230 -176.667 415 -260 555l25 -550l-270 -5
c5.33301 248 8 494.333 8 739c0 245.333 -2.66699 488.666 -8 729.999zM379.001 934.5c49.333 15.667 90.999 45.5 124.999 89.5c20.667 26 31 59.333 31 100c0 26 -4.33301 55.333 -13 88c-17.333 63.333 -78.333 95 -183 95c-29.333 0 -62.666 -2.66699 -99.999 -8v-396
c44 5.33301 90.667 15.833 140 31.5zM853 401c12 293.333 18.001 605.333 18.001 936c0 74.667 -0.333008 150.667 -1 228l536 -8v-290c-143.333 12.667 -259 19 -347 19l-7 -228c153.333 4 268 11 344 21l2 -225c-92 3.33301 -210.333 8 -355 14c0 -82 4 -150.333 12 -205
c108.667 -6 202 -9 280 -9c21.333 0 41.666 0.333008 60.999 1l5 -273c-118 12.667 -273.667 19 -467 19h-81z" />
    <glyph glyph-name="uniE02A" unicode="&#xe02a;" horiz-adv-x="1492" 
d="M245 1561c390 0 585 -143 585 -429v-78c0 -188.667 -78 -331.334 -234 -428.001c78 -102.667 117 -245.667 117 -429l386 -11v-246l-595 21c-10 310.667 -44.333 519.334 -103 626.001h-78v-429l-259 -4l25 1173l-156 -7v238zM284 1288v-467
c180.667 4.66699 271 84.667 271 240v8c-3.33301 147.333 -79.333 221 -228 221c-14 0 -28.333 -0.666992 -43 -2zM904 281c12 333.333 18.001 665.333 18.001 996c0 74.667 -0.333008 150.667 -1 228l536 -8v-290c-143.333 12.667 -259 19 -347 19l-7 -258
c153.333 4 268 11 344 21l2 -225c-92 3.33301 -210.333 8 -355 14c0 -102 4 -180.333 12 -235c108.667 -6 202 -9 280 -9c21.333 0 41.666 0.333008 60.999 1l5 -273c-118 12.667 -273.667 19 -467 19h-81z" />
    <glyph glyph-name="uniE02B" unicode="&#xe02b;" horiz-adv-x="1498" 
d="M79 1537c52.667 4.66699 102.333 7 149 7c400.667 0 601 -163.333 601 -490c0 -188.667 -77.667 -331.334 -233 -428.001c78 -102.667 117 -245.667 117 -429l386 -11v-246l-596 21c-9.33301 310.667 -43.333 519.334 -102 626.001h-78v-429l-259 -4zM283.999 1288v-467
c180.667 4.66699 271 84.667 271 240v8c-3.33301 147.333 -79.333 221 -228 221c-14 0 -28.333 -0.666992 -43 -2zM883.999 281c12 333.333 18.001 665.333 18.001 996c0 74.667 -0.333008 150.667 -1 228l536 -8v-290c-143.333 12.667 -259 19 -347 19l-7 -258
c153.333 4 268 11 344 21l2 -225c-92 3.33301 -210.333 8 -355 14c0 -102 4 -180.333 12 -235c108.667 -6 202 -9 280 -9c21.333 0 41.666 0.333008 60.999 1l5 -273c-118 12.667 -273.667 19 -467 19h-81z" />
    <glyph glyph-name="uniE02C" unicode="&#xe02c;" horiz-adv-x="1663" 
d="M47 1219l-11 278.999l1066 72l20 -217l-519 -66c-7.33301 -374 -11 -777.333 -11 -1210l-278 16c17.333 428.667 26 816.334 26 1163zM752 982.999l-16 246.999c52 -1.33301 105 -2 159 -2c221.333 0 460 11 716 33l5 -237l-334 -26
c-0.666992 -61.333 -1 -123.666 -1 -186.999c0 -254 5.33301 -527.667 16 -821l-267 -26c12 277.333 18 534.333 18 771c0 85.333 -0.666992 168 -2 248h-294z" />
    <glyph glyph-name="uniE02D" unicode="&#xe02d;" horiz-adv-x="1663" 
d="M1318 1256c0 -346.667 8.66699 -734.333 26 -1163l-278 -16c0 432.667 -3.66699 836 -11 1210l-519 66l20 217l1066 -72l-11 -279zM52 983.001l-16 246.999c85.333 -2 173.333 -3 264 -3c191.333 0 395 4.66699 611 14l5 -237l-334 -6
c-0.666992 -61.333 -1 -123.666 -1 -186.999c0 -254 5.33301 -527.667 16 -821l-267 -26c12 277.333 18 534.333 18 771c0 85.333 -0.666992 168 -2 248h-294z" />
    <glyph glyph-name="uniE02E" unicode="&#xe02e;" 
d="M392 1077c226.667 0 340 -157.332 340 -471.999c0 -12.667 -0.333008 -25.334 -1 -38.001c-9.33301 -340.667 -130 -512.667 -362 -516c-2.66699 -0.666992 -5.33398 -1 -8.00098 -1c-220.667 0 -331 161 -331 483v28c6.66699 344 127.334 516 362.001 516zM357 849.001
c-39.333 -14.667 -66.333 -68.999 -81 -162.999c-8.66699 -56 -13 -112.333 -13 -169c0 -38 2 -76.333 6 -115c10 -96 42.333 -145.667 97 -149h7c50.667 0 85.334 35.667 104.001 107c16 59.333 24 129.666 24 210.999c0 20 -0.333008 40.333 -1 61
c-4.66699 107.333 -19.667 174.333 -45 201c-16 16 -35 24 -57 24c-12.667 0 -26.334 -2.66699 -41.001 -8z" />
    <glyph glyph-name="uniE02F" unicode="&#xe02f;" horiz-adv-x="521" 
d="M479 1086c-4.66699 -314.667 -7 -525.335 -7 -632.002c0 -107.333 0.666992 -238.666 2 -393.999l-258 -13l-7 773c-56 -11.333 -112 -32.666 -168 -63.999l-48 189l218 146z" />
    <glyph glyph-name="uniE030" unicode="&#xe030;" horiz-adv-x="855" 
d="M72 702l-0.000976562 32.001c0 136 20 228.333 60 277c55.333 67.333 126 107.666 212 120.999c30.667 4.66699 60.667 7 90 7c52.667 0 103.334 -7.33301 152.001 -22c76 -23.333 133.333 -69.333 172 -138c27.333 -50.667 41 -110 41 -178v-28
c-4.66699 -80.667 -37.5 -157.5 -98.5 -230.5s-166.5 -159.167 -316.5 -258.5l437 7l-3 -231c-191.333 -8.66699 -438 -13 -740 -13l-23 273c181.333 109.333 309 196.333 383 261c70.667 60.667 106 125 106 193v11c-4 71.333 -45.667 107 -125 107
c-64.667 -2 -97 -63.333 -97 -184v-11z" />
    <glyph glyph-name="uniE031" unicode="&#xe031;" horiz-adv-x="824" 
d="M39 612c-2.66699 35.333 -3.99805 68.334 -3.99805 99.001c0 106 16 187.667 48 245c40.667 73.333 107.334 118.666 200.001 135.999c45.333 8.66699 88.666 13 129.999 13c42 0 82 -4.66699 120 -14c74 -18 133.167 -58.333 177.5 -121s68.166 -148.667 71.499 -258
v-30c0 -94.667 -14.667 -163.667 -44 -207c-32.667 -48.667 -86.334 -85.334 -161.001 -110.001c62 -9.33301 108.5 -31.833 139.5 -67.5s52.5 -83.5 64.5 -143.5c6.66699 -33.333 10 -70 10 -110c0 -32.667 -2.33301 -68 -7 -106c-10 -83.333 -43.833 -155.333 -101.5 -216
s-146.5 -92.334 -266.5 -95.001h-16c-112.667 0 -202.667 29.333 -270 88c-70 60 -105 189 -105 387v6l259 15c-0.666992 -11.333 -1 -22.333 -1 -33c0 -140 36.667 -212.333 110 -217c5.33301 -0.666992 10.333 -1 15 -1c69.333 0 111 36.667 125 110
c4 20.667 6 40.334 6 59.001c0 52.667 -15 98.334 -45 137.001c-41.333 52 -109.666 78 -204.999 78l-12 190c11.333 -0.666992 22 -1 32 -1c83.333 0 140.666 24 171.999 72c29.333 44.667 44 102.667 44 174c0 14 -0.666992 28.333 -2 43c-6 85.333 -44.333 128 -115 128
h-13c-70 -4.66699 -105 -74.667 -105 -210c0 -16 0.333008 -33 1 -51z" />
    <glyph glyph-name="uniE032" unicode="&#xe032;" horiz-adv-x="921" 
d="M39 87l-21.001 239c114.667 250.667 247.334 510 398.001 778l322 -18l-4 -772l141 -3v-239h-137v-421l-242 9l3 417zM502.999 311l3 515.999c-73.333 -169.333 -151.333 -339.666 -234 -510.999z" />
    <glyph glyph-name="uniE033" unicode="&#xe033;" horiz-adv-x="824" 
d="M29 105l235 19.9971c0 -146 46 -219 138 -219c91.333 0 141 43.667 149 131c3.33301 40.667 5 81.667 5 123c0 47.333 -2.33301 95 -7 143c-8.66699 87.333 -44.667 131 -108 131h-6c-68 -3.33301 -117.333 -56.333 -148 -159l-243 6l28 829l672 12l3 -243l-445 -9
l-18 -340c30.667 88.667 86.334 139.334 167.001 152.001c19.333 3.33301 38.333 5 57 5c58 0 111.333 -15.333 160 -46c64 -40 104 -135.333 120 -286c5.33301 -51.333 8 -101.666 8 -150.999c0 -93.333 -10 -181.666 -30 -264.999
c-30.667 -127.333 -90.667 -206.333 -180 -237c-63.333 -22 -127 -33 -191 -33c-26 0 -52.333 2 -79 6c-90.667 12.667 -162.334 51.667 -215.001 117c-48.667 59.333 -73 151 -73 275c0 12 0.333008 24.667 1 38z" />
    <glyph glyph-name="uniE034" unicode="&#xe034;" horiz-adv-x="885" 
d="M312 804c52 98 127.335 146.999 226.002 146.999h2c99.333 -0.666992 175 -37.167 227 -109.5s79.667 -155.5 83 -249.5v-25c0 -86 -14.667 -171.667 -44 -257c-32 -93.333 -82.333 -155.333 -151 -186c-50 -23.333 -106.333 -35 -169 -35
c-22.667 0 -46.334 1.66699 -71.001 5c-91.333 11.333 -164.333 53.333 -219 126s-94 169.334 -118 290.001c-18 88.667 -27 188 -27 298c0 38.667 1.33301 78.334 4 119.001c8 157.333 28 285.5 60 384.5s79.667 169.5 143 211.5c62 40.667 132.667 61 212 61h6
c81.333 -1.33301 150.166 -27.666 206.499 -78.999s92.833 -121.333 109.5 -210c10.667 -58.667 16 -116.334 16 -173.001c0 -30 -1.33301 -59.333 -4 -88h-224c1.33301 23.333 2 45 2 65c0 124.667 -23 193 -69 205c-12 2.66699 -23.333 4 -34 4
c-38.667 0 -71 -19.667 -97 -59c-34 -50.667 -55 -120.667 -63 -210c-6 -60.667 -9 -116.334 -9 -167.001c0 -24 0.666992 -46.667 2 -68zM332.002 613.999c1.33301 -88 12.8301 -153.832 34.4971 -197.499s53.834 -68.834 96.501 -75.501c6.66699 -1.33301 13.667 -2 21 -2
c33.333 0 63 13.667 89 41c28.667 30 43 84 43 162v20c-2.66699 88.667 -33.667 140.667 -93 156c-9.33301 2 -18.666 3 -27.999 3c-51.333 0 -105.666 -35.667 -162.999 -107z" />
    <glyph glyph-name="uniE035" unicode="&#xe035;" horiz-adv-x="826" 
d="M64 844l10 250c242 4 474.667 7 698 9v-254c-185.333 -380 -292.666 -757 -321.999 -1131l-237 27c29.333 362 125.666 729.333 288.999 1102z" />
    <glyph glyph-name="uniE036" unicode="&#xe036;" horiz-adv-x="820" 
d="M605 805c90.667 -40.667 147.002 -99.333 169.002 -176c15.333 -53.333 23 -108 23 -164c0 -25.333 -1.66699 -51 -5 -77c-10 -83.333 -43.833 -155.333 -101.5 -216s-146.5 -92.334 -266.5 -95.001h-16c-112.667 0 -202.667 29.333 -270 88
c-70.667 60.667 -107.334 146.334 -110.001 257.001c-0.666992 7.33301 -1 14.666 -1 21.999c0 100.667 19.333 181 58 241c41.333 64 92.333 104.333 153 121c-44.667 18 -90 53.833 -136 107.5s-69.667 130.834 -71 231.501v9c0 96 20 180 60 252
c40.667 73.333 107.334 118.666 200.001 135.999c45.333 8.66699 88.666 13 129.999 13c42 0 82 -4.66699 120 -14c74 -18 133.167 -58.333 177.5 -121s68.166 -145.334 71.499 -248.001v-29c0 -89.333 -14.667 -158.666 -44 -207.999
c-32.667 -55.333 -79.667 -98.666 -141 -129.999zM416.002 704.001c-68 -36 -108.001 -78.6689 -120.001 -128.002c-6.66699 -28 -10 -55 -10 -81c0 -20 2 -39.333 6 -58c9.33301 -44 27 -75.333 53 -94c18.667 -14 40.334 -21 65.001 -21c9.33301 0 19.333 1 30 3
c37.333 6.66699 64.5 22.834 81.5 48.501s26.833 61.167 29.5 106.5c0.666992 5.33301 1 11 1 17c0 38.667 -8 75.334 -24 110.001c-18.667 40 -56 72.333 -112 97zM414.001 955.999c69.333 30 109.666 78.334 120.999 145.001c4.66699 25.333 7 48.666 7 69.999
c0 33.333 -5.66699 61.333 -17 84c-18 36.667 -49.667 56.334 -95 59.001h-9c-41.333 0 -73.666 -17.333 -96.999 -52c-18.667 -28 -28 -64 -28 -108c0 -16 1.33301 -33.333 4 -52c9.33301 -68.667 47.333 -117.334 114 -146.001z" />
    <glyph glyph-name="uniE037" unicode="&#xe037;" horiz-adv-x="885" 
d="M589 289c-52 -98 -127.33 -146.999 -225.997 -146.999c-0.666992 0 -1 0.333008 -1 1c-100 0 -177.667 36.167 -233 108.5s-84.333 172.5 -87 300.5c-0.666992 9.33301 -1 19 -1 29c0 115.333 16.333 216 49 302c35.333 93.333 90.666 155.666 165.999 186.999
c55.333 22.667 113 34 173 34c22 0 44.333 -1.66699 67 -5c84.667 -11.333 154.334 -53.333 209.001 -126s94 -169 118 -289c18 -89.333 27 -189 27 -299c0 -38.667 -1 -78 -3 -118c-8.66699 -158 -29 -286.5 -61 -385.5s-79.667 -169.167 -143 -210.5
c-62 -41.333 -135.667 -62 -221 -62c-2 0 -4 0.333008 -6 1c-88.667 0.666992 -164.334 33.334 -227.001 98.001c-61.333 62.667 -92 174.667 -92 336v15h224c-1.33301 -15.333 -2 -30 -2 -44c0 -74 20 -122.333 60 -145c19.333 -12 38.666 -18 57.999 -18
c26.667 0 52.667 11 78 33c43.333 36.667 67.666 96.667 72.999 180c2.66699 46 4 89.333 4 130c0 33.333 -1 64.666 -3 93.999zM579.003 479.001c0.666992 22.667 1 44 1 64c0 95.333 -10 166.666 -30 213.999c-25.333 56.667 -59 88.334 -101 95.001
c-6 0.666992 -11.667 1 -17 1c-36 0 -69 -18.333 -99 -55c-32 -39.333 -48 -110.333 -48 -213v-24c2.66699 -115.333 40.667 -177 114 -185c6.66699 -1.33301 13.667 -2 21 -2c63.333 0 116.333 35 159 105z" />
  </font>
</defs>
</svg>
